<?xml version="1.0" encoding="UTF-8" standalone="no"?>
<svg width="89px" height="61px" viewBox="0 0 89 61" version="1.1" xmlns="http://www.w3.org/2000/svg" xmlns:xlink="http://www.w3.org/1999/xlink" xmlns:sketch="http://www.bohemiancoding.com/sketch/ns">
    <!-- Generator: Sketch 3.5.1 (25234) - http://www.bohemiancoding.com/sketch -->
    <title>axure</title>
    <desc>Created with Sketch.</desc>
    <defs>
        <filter x="-50%" y="-50%" width="200%" height="200%" filterUnits="objectBoundingBox" id="filter-1">
            <feGaussianBlur stdDeviation="5.08961397" in="SourceGraphic" result="blur"></feGaussianBlur>
        </filter>
    </defs>
    <g id="Page-1" stroke="none" stroke-width="1" fill="none" fill-rule="evenodd" sketch:type="MSPage">
        <g id="shadow" sketch:type="MSLayerGroup" transform="translate(6.718574, 30.752500)" fill-opacity="0.100000001" filter="url(#filter-1)" fill="#000000">
            <path d="M38.7430474,22.8253612 C60.1402416,22.8253612 77.4860948,17.7157301 77.4860948,11.4126806 C77.4860948,5.10963116 60.1402416,0 38.7430474,0 C17.3458532,0 0,5.10963116 0,11.4126806 C0,17.7157301 17.3458532,22.8253612 38.7430474,22.8253612 Z" id="Oval-15" sketch:type="MSShapeGroup"></path>
        </g>
        <g id="axure" sketch:type="MSLayerGroup" transform="translate(25.414347, 7.776972)">
            <rect id="Rectangle-11" fill="#94CA44" sketch:type="MSShapeGroup" x="0" y="0" width="40.1696325" height="8.27481469"></rect>
            <g id="Rectangle-11-+-Rectangle-11" transform="translate(0.025100, 11.629469)" sketch:type="MSShapeGroup">
                <rect id="Rectangle-11" fill="#049ADC" x="0" y="0" width="11.8441754" height="27.5640786"></rect>
                <rect id="Rectangle-11" fill="#F2208A" x="15.6432505" y="0" width="24.302907" height="27.5640786"></rect>
            </g>
            <g id="Rectangle-11-+-Rectangle-11" transform="translate(0.025100, 11.573558)" sketch:type="MSShapeGroup">
                <path d="M0,0 L11.8441754,0 L11.8441754,10.2560089 L0,13.0396584 L0,0 Z" id="Rectangle-11" fill="#32B1E2"></path>
                <path d="M15.6432505,0 L39.83442,0 L39.83442,3.7405291 L15.6432505,10.0141793 L15.6432505,0 Z" id="Rectangle-11" fill="#FC339C"></path>
            </g>
        </g>
        <g id="SLICES" sketch:type="MSLayerGroup" transform="translate(-190.000000, -174.000000)"></g>
    </g>
</svg>