<?xml version="1.0" encoding="UTF-8" standalone="no"?>
<svg width="1166px" height="786px" viewBox="0 0 1166 786" version="1.1" xmlns="http://www.w3.org/2000/svg" xmlns:xlink="http://www.w3.org/1999/xlink" xmlns:sketch="http://www.bohemiancoding.com/sketch/ns">
    <!-- Generator: Sketch 3.2.2 (9983) - http://www.bohemiancoding.com/sketch -->
    <title>cs_icons</title>
    <desc>Created with Sketch.</desc>
    <defs>
        <filter x="-50%" y="-50%" width="200%" height="200%" filterUnits="objectBoundingBox" id="filter-1">
            <feGaussianBlur stdDeviation="41.947955" in="SourceGraphic" result="blur"></feGaussianBlur>
        </filter>
        <linearGradient x1="0.737402199%" y1="-0.759234987%" x2="99.2642392%" y2="100.760081%" id="linearGradient-2">
            <stop stop-color="#59233B" offset="0%"></stop>
            <stop stop-color="#412835" offset="100%"></stop>
        </linearGradient>
        <linearGradient x1="-0.000504782817%" y1="-7.34240343e-14%" x2="100.000505%" y2="100.001421%" id="linearGradient-3">
            <stop stop-color="#E159A0" offset="0%"></stop>
            <stop stop-color="#E23A95" offset="100%"></stop>
        </linearGradient>
        <filter x="-50%" y="-50%" width="200%" height="200%" filterUnits="objectBoundingBox" id="filter-4">
            <feOffset dx="0" dy="2" in="SourceAlpha" result="shadowOffsetOuter1"></feOffset>
            <feGaussianBlur stdDeviation="2" in="shadowOffsetOuter1" result="shadowBlurOuter1"></feGaussianBlur>
            <feColorMatrix values="0 0 0 0 0   0 0 0 0 0   0 0 0 0 0  0 0 0 0.35 0" in="shadowBlurOuter1" type="matrix" result="shadowMatrixOuter1"></feColorMatrix>
            <feMerge>
                <feMergeNode in="shadowMatrixOuter1"></feMergeNode>
                <feMergeNode in="SourceGraphic"></feMergeNode>
            </feMerge>
        </filter>
        <linearGradient x1="-0.931749749%" y1="50%" x2="539.933088%" y2="50%" id="linearGradient-5">
            <stop stop-color="#E159A0" offset="0%"></stop>
            <stop stop-color="#E23A95" offset="100%"></stop>
        </linearGradient>
        <linearGradient x1="-49.7431986%" y1="50.0002854%" x2="100.413313%" y2="50.0002854%" id="linearGradient-6">
            <stop stop-color="#E159A0" offset="0%"></stop>
            <stop stop-color="#E23A95" offset="100%"></stop>
        </linearGradient>
        <linearGradient x1="0.737812551%" y1="-0.757120911%" x2="99.2636921%" y2="100.761067%" id="linearGradient-7">
            <stop stop-color="#395528" offset="0%"></stop>
            <stop stop-color="#2E352D" offset="100%"></stop>
        </linearGradient>
        <linearGradient x1="0.000504782817%" y1="-0.000129167259%" x2="100.001514%" y2="100.000129%" id="linearGradient-8">
            <stop stop-color="#9BCB3C" offset="0%"></stop>
            <stop stop-color="#8FC73F" offset="100%"></stop>
        </linearGradient>
        <filter x="-50%" y="-50%" width="200%" height="200%" filterUnits="objectBoundingBox" id="filter-9">
            <feOffset dx="0" dy="2" in="SourceAlpha" result="shadowOffsetOuter1"></feOffset>
            <feGaussianBlur stdDeviation="2" in="shadowOffsetOuter1" result="shadowBlurOuter1"></feGaussianBlur>
            <feColorMatrix values="0 0 0 0 0   0 0 0 0 0   0 0 0 0 0  0 0 0 0.35 0" in="shadowBlurOuter1" type="matrix" result="shadowMatrixOuter1"></feColorMatrix>
            <feMerge>
                <feMergeNode in="shadowMatrixOuter1"></feMergeNode>
                <feMergeNode in="SourceGraphic"></feMergeNode>
            </feMerge>
        </filter>
        <linearGradient x1="0.204411823%" y1="50.0020997%" x2="220.886705%" y2="50.0020997%" id="linearGradient-10">
            <stop stop-color="#9BCB3C" offset="0%"></stop>
            <stop stop-color="#8FC73F" offset="100%"></stop>
        </linearGradient>
        <linearGradient x1="-84.1105371%" y1="49.9991549%" x2="97.5933327%" y2="49.9991549%" id="linearGradient-11">
            <stop stop-color="#9BCB3C" offset="0%"></stop>
            <stop stop-color="#8FC73F" offset="100%"></stop>
        </linearGradient>
        <linearGradient x1="0.737412286%" y1="-0.757825603%" x2="99.263682%" y2="100.759517%" id="linearGradient-12">
            <stop stop-color="#5F4522" offset="0%"></stop>
            <stop stop-color="#373316" offset="100%"></stop>
        </linearGradient>
        <linearGradient x1="-0.000504782817%" y1="-0.000129168927%" x2="99.9994952%" y2="100.000517%" id="linearGradient-13">
            <stop stop-color="#FDC560" offset="0%"></stop>
            <stop stop-color="#F99C1C" offset="100%"></stop>
        </linearGradient>
        <filter x="-50%" y="-50%" width="200%" height="200%" filterUnits="objectBoundingBox" id="filter-14">
            <feOffset dx="0" dy="2" in="SourceAlpha" result="shadowOffsetOuter1"></feOffset>
            <feGaussianBlur stdDeviation="2" in="shadowOffsetOuter1" result="shadowBlurOuter1"></feGaussianBlur>
            <feColorMatrix values="0 0 0 0 0   0 0 0 0 0   0 0 0 0 0  0 0 0 0.35 0" in="shadowBlurOuter1" type="matrix" result="shadowMatrixOuter1"></feColorMatrix>
            <feMerge>
                <feMergeNode in="shadowMatrixOuter1"></feMergeNode>
                <feMergeNode in="SourceGraphic"></feMergeNode>
            </feMerge>
        </filter>
        <linearGradient x1="-1.98088286%" y1="50.0018318%" x2="128.529023%" y2="50.0018318%" id="linearGradient-15">
            <stop stop-color="#FDC560" offset="0%"></stop>
            <stop stop-color="#F99C1C" offset="100%"></stop>
        </linearGradient>
        <linearGradient x1="-467.177155%" y1="50.0011929%" x2="92.7348643%" y2="50.0011929%" id="linearGradient-16">
            <stop stop-color="#FDC560" offset="0%"></stop>
            <stop stop-color="#F99C1C" offset="100%"></stop>
        </linearGradient>
        <linearGradient x1="0.737802459%" y1="-0.758530295%" x2="99.2632918%" y2="100.760785%" id="linearGradient-17">
            <stop stop-color="#322E7C" offset="0%"></stop>
            <stop stop-color="#272861" offset="100%"></stop>
        </linearGradient>
        <linearGradient x1="-0.000630978521%" y1="-0.000645836293%" x2="100.000252%" y2="99.9994833%" id="linearGradient-18">
            <stop stop-color="#9BC5E9" offset="0%"></stop>
            <stop stop-color="#7CB2E0" offset="100%"></stop>
        </linearGradient>
        <linearGradient x1="-0.955668605%" y1="50%" x2="178.258085%" y2="50%" id="linearGradient-19">
            <stop stop-color="#9BC5E9" offset="0%"></stop>
            <stop stop-color="#7CB2E0" offset="100%"></stop>
        </linearGradient>
        <linearGradient x1="-136.208147%" y1="49.9963619%" x2="98.4448409%" y2="49.9963619%" id="linearGradient-20">
            <stop stop-color="#9BC5E9" offset="0%"></stop>
            <stop stop-color="#7CB2E0" offset="100%"></stop>
        </linearGradient>
        <linearGradient x1="0.73671828%" y1="-0.758530295%" x2="99.2635553%" y2="100.760785%" id="linearGradient-21">
            <stop stop-color="#52481C" offset="0%"></stop>
            <stop stop-color="#313424" offset="100%"></stop>
        </linearGradient>
        <linearGradient x1="0.000757174226%" y1="-0.000129167259%" x2="100.000757%" y2="99.999225%" id="linearGradient-22">
            <stop stop-color="#E1E323" offset="0%"></stop>
            <stop stop-color="#E5D11D" offset="100%"></stop>
        </linearGradient>
        <filter x="-50%" y="-50%" width="200%" height="200%" filterUnits="objectBoundingBox" id="filter-23">
            <feOffset dx="0" dy="2" in="SourceAlpha" result="shadowOffsetOuter1"></feOffset>
            <feGaussianBlur stdDeviation="2" in="shadowOffsetOuter1" result="shadowBlurOuter1"></feGaussianBlur>
            <feColorMatrix values="0 0 0 0 0   0 0 0 0 0   0 0 0 0 0  0 0 0 0.35 0" in="shadowBlurOuter1" type="matrix" result="shadowMatrixOuter1"></feColorMatrix>
            <feMerge>
                <feMergeNode in="shadowMatrixOuter1"></feMergeNode>
                <feMergeNode in="SourceGraphic"></feMergeNode>
            </feMerge>
        </filter>
        <linearGradient x1="-0.445790618%" y1="49.9982071%" x2="273.366988%" y2="49.9982071%" id="linearGradient-24">
            <stop stop-color="#E1E323" offset="0%"></stop>
            <stop stop-color="#E5D11D" offset="100%"></stop>
        </linearGradient>
        <linearGradient x1="-60.7323392%" y1="49.9958645%" x2="98.5793041%" y2="49.9958645%" id="linearGradient-25">
            <stop stop-color="#E1E323" offset="0%"></stop>
            <stop stop-color="#E5D11D" offset="100%"></stop>
        </linearGradient>
    </defs>
    <g id="Page-1" stroke="none" stroke-width="1" fill="none" fill-rule="evenodd" sketch:type="MSPage">
        <g id="shadow" sketch:type="MSLayerGroup" transform="translate(76.000000, 406.000000)" filter="url(#filter-1)" fill="#000000" fill-opacity="0.170000002">
            <ellipse id="Oval-15" sketch:type="MSShapeGroup" cx="516" cy="152" rx="516" ry="152"></ellipse>
        </g>
        <g id="cs_icons" sketch:type="MSLayerGroup" transform="translate(320.000000, 113.000000)">
            <g id="Group" transform="translate(270.786164, 263.576923)" sketch:type="MSShapeGroup">
                <rect id="Rectangle-path" fill="url(#linearGradient-2)" x="12.702956" y="15.0683846" width="250.590314" height="242.877577"></rect>
                <g id="Shape" filter="url(#filter-4)" fill="url(#linearGradient-3)">
                    <path d="M1.90921384,3.14923077 L1.90921384,268.157 L273.524874,268.157 L273.524874,3.14923077 L1.90921384,3.14923077 L1.90921384,3.14923077 Z M251.930535,247.166692 L24.0656918,247.166692 L24.0656918,24.7146154 L251.930535,24.7146154 L251.930535,247.166692 L251.930535,247.166692 Z"></path>
                </g>
                <g transform="translate(82.264151, 68.461538)" id="Shape">
                    <g transform="translate(0.000000, 6.846154)">
                        <g transform="translate(0.000000, 3.423077)" fill="#010101">
                            <path d="M20.4940566,3.24165385 L20.4940566,115.364538 L0.00342767296,115.364538 L0.00342767296,3.24165385 L20.4940566,3.24165385 L20.4940566,3.24165385 Z"></path>
                        </g>
                        <path d="M20.4940566,2.12915385 L20.4940566,114.255462 L0.00342767296,114.255462 L0.00342767296,2.12915385 L20.4940566,2.12915385 L20.4940566,2.12915385 Z" fill="url(#linearGradient-5)"></path>
                    </g>
                    <g transform="translate(34.276730, 0.000000)">
                        <g transform="translate(0.000000, 6.846154)" fill="#010101">
                            <path d="M75.4499371,0.677769231 L75.4499371,96.0001923 C75.4499371,104.318269 75.7515723,113.300423 76.0600629,118.787615 L59.2816038,118.787615 L58.5206604,105.978462 L58.2121698,105.978462 C53.787044,114.964038 44.7962579,120.618962 33.968239,120.618962 C16.2814465,120.618962 2.25198113,104.147115 2.25198113,79.1928846 C2.09773585,52.0786923 17.6490881,35.9423077 35.4935535,35.9423077 C45.7114465,35.9423077 53.0295283,40.6011154 56.3852201,46.5880769 L56.6868553,46.5880769 L56.6868553,0.674346154 L75.4499371,0.674346154 L75.4499371,0.677769231 Z M56.6868553,71.5457308 C56.6868553,69.8821154 56.5360377,67.8830385 56.2344025,66.2194231 C54.5548428,58.2333846 48.6078302,51.7466538 40.0660692,51.7466538 C28.0177987,51.7466538 21.3064151,63.3885385 21.3064151,78.5322308 C21.3064151,93.3336154 28.0177987,104.147115 39.9152516,104.147115 C47.5418239,104.147115 54.2463522,98.4921923 56.0767296,89.6743462 C56.5360377,87.843 56.6868553,85.8473462 56.6868553,83.6839615 L56.6868553,71.5457308 L56.6868553,71.5457308 Z"></path>
                        </g>
                        <path d="M75.4499371,2.98834615 L75.4499371,98.3107692 C75.4499371,106.628846 75.7515723,115.611 76.0600629,121.101615 L59.2816038,121.101615 L58.5206604,108.292462 L58.2121698,108.292462 C53.787044,117.274615 44.7962579,122.932962 33.968239,122.932962 C16.2814465,122.932962 2.25198113,106.461115 2.25198113,81.5068846 C2.09773585,54.3892692 17.6490881,38.2528846 35.4935535,38.2528846 C45.7114465,38.2528846 53.0295283,42.9116923 56.3852201,48.8986538 L56.6868553,48.8986538 L56.6868553,2.98492308 L75.4499371,2.98492308 L75.4499371,2.98834615 Z M56.6868553,73.8528846 C56.6868553,72.1892692 56.5360377,70.1936154 56.2344025,68.53 C54.5548428,60.5439615 48.6078302,54.0572308 40.0660692,54.0572308 C28.0177987,54.0572308 21.3064151,65.6991154 21.3064151,80.8393846 C21.3064151,95.6476154 28.0177987,106.457692 39.9152516,106.457692 C47.5418239,106.457692 54.2463522,100.802769 56.0767296,91.9815 C56.5360377,90.1535769 56.6868553,88.1579231 56.6868553,85.9945385 L56.6868553,73.8528846 L56.6868553,73.8528846 Z" fill="url(#linearGradient-6)"></path>
                    </g>
                </g>
            </g>
            <g id="Group" transform="translate(0.000000, 263.576923)" sketch:type="MSShapeGroup">
                <rect id="Rectangle-path" fill="url(#linearGradient-7)" x="11.8734591" y="15.0649615" width="250.590314" height="242.877577"></rect>
                <g id="Shape" filter="url(#filter-9)" fill="url(#linearGradient-8)">
                    <path d="M1.07628931,3.14923077 L1.07628931,268.160423 L272.69195,268.160423 L272.69195,3.14923077 L1.07628931,3.14923077 L1.07628931,3.14923077 Z M251.104465,247.163269 L23.2396226,247.163269 L23.2396226,24.7146154 L251.104465,24.7146154 L251.104465,247.163269 L251.104465,247.163269 Z"></path>
                </g>
                <g transform="translate(41.132075, 75.307692)" id="Shape">
                    <g>
                        <g transform="translate(0.000000, 3.423077)" fill="#010101">
                            <path d="M0.493584906,4.19326923 C8.63773585,2.69396154 19.0441509,1.86215385 30.0538365,1.86215385 C49.05,1.86215385 62.1745597,6.18892308 71.5183962,14.8390385 C81.3215409,23.6568846 87.3542453,36.9623846 87.3542453,56.0973846 C87.3542453,76.0573462 81.1707233,91.0298846 71.5183962,100.676115 C61.417044,110.825538 45.2829874,115.980692 25.5293082,115.980692 C14.6738679,115.980692 6.52971698,115.320038 0.497012579,114.484808 L0.497012579,4.19326923 L0.493584906,4.19326923 Z M19.0441509,99.1836538 C21.6046226,99.6834231 25.5258805,99.6834231 29.2963208,99.6834231 C53.4237107,99.8511538 67.747956,85.2072308 67.747956,56.7648846 C67.8987736,31.9783846 54.9318868,17.8342308 31.7094025,17.8342308 C25.8275157,17.8342308 21.6046226,18.334 19.0441509,19.0015 L19.0441509,99.1836538 L19.0441509,99.1836538 Z"></path>
                        </g>
                        <path d="M0.493584906,3.07734615 C8.63773585,1.57803846 19.0441509,0.746230769 30.0538365,0.746230769 C49.05,0.746230769 62.1745597,5.073 71.5183962,13.7231154 C81.3215409,22.5409615 87.3542453,35.8464615 87.3542453,54.9814615 C87.3542453,74.9414231 81.1707233,89.9139615 71.5183962,99.5601923 C61.417044,109.709615 45.2829874,114.864769 25.5293082,114.864769 C14.6738679,114.864769 6.52971698,114.204115 0.497012579,113.368885 L0.497012579,3.07734615 L0.493584906,3.07734615 Z M19.0441509,98.0677308 C21.6046226,98.5675 25.5258805,98.5675 29.2963208,98.5675 C53.4237107,98.7352308 67.747956,84.0913077 67.747956,55.6489615 C67.8987736,30.8624615 54.9318868,16.7183077 31.7094025,16.7183077 C25.8275157,16.7183077 21.6046226,17.2180769 19.0441509,17.8855769 L19.0441509,98.0677308 L19.0441509,98.0677308 Z" fill="url(#linearGradient-10)"></path>
                    </g>
                    <g transform="translate(89.119497, 30.807692)">
                        <g transform="translate(0.000000, 3.423077)" fill="#010101">
                            <path d="M18.6911006,2.99519231 L26.1428616,39.7590385 C27.7504403,48.4057308 29.3580189,57.227 30.6673899,66.0448462 L30.9621698,66.0448462 C32.4257862,57.227 34.7600314,48.2448462 36.8063522,39.9267692 L46.0130818,2.99519231 L60.6286792,2.99519231 L69.5406289,38.9272308 C71.7377673,48.4091538 73.6298428,57.227 75.2374214,66.0448462 L75.5322013,66.0448462 C76.7010377,57.227 78.312044,48.4091538 80.2041195,38.9272308 L88.0980503,2.99519231 L105.777987,2.99519231 L83.4227044,84.0091538 L66.7676415,84.0091538 L58.2910063,51.0723077 C56.1007233,42.5865 54.4931447,34.9359231 52.885566,25.1185385 L52.5907862,25.1185385 C51.1305975,35.1036538 49.2316667,43.0862692 47.1887736,51.0723077 L38.1260063,84.0091538 L21.3269811,84.0091538 L0.284496855,2.99519231 L18.6911006,2.99519231 L18.6911006,2.99519231 Z"></path>
                        </g>
                        <path d="M18.6911006,1.88269231 L26.1428616,38.6465385 C27.7504403,47.2932308 29.3580189,56.1145 30.6673899,64.9323462 L30.9621698,64.9323462 C32.4257862,56.1145 34.7600314,47.1323462 36.8063522,38.8142692 L46.0130818,1.88269231 L60.6286792,1.88269231 L69.5406289,37.8147308 C71.7377673,47.2966538 73.6298428,56.1145 75.2374214,64.9323462 L75.5322013,64.9323462 C76.7010377,56.1145 78.312044,47.2966538 80.2041195,37.8147308 L88.0980503,1.88269231 L105.777987,1.88269231 L83.4227044,82.8966538 L66.7676415,82.8966538 L58.2910063,49.9598077 C56.1007233,41.474 54.4931447,33.8234231 52.885566,24.0060385 L52.5907862,24.0060385 C51.1305975,33.9911538 49.2316667,41.9737692 47.1887736,49.9598077 L38.1260063,82.8966538 L21.3269811,82.8966538 L0.284496855,1.88269231 L18.6911006,1.88269231 L18.6911006,1.88269231 Z" fill="url(#linearGradient-11)"></path>
                    </g>
                </g>
            </g>
            <g id="Group" transform="translate(270.786164, 0.000000)" sketch:type="MSShapeGroup">
                <rect id="Rectangle-path" fill="url(#linearGradient-12)" x="12.7063836" y="13.6341154" width="250.586887" height="242.877577"></rect>
                <g id="Shape" filter="url(#filter-14)" fill="url(#linearGradient-13)">
                    <path d="M1.90921384,1.71838462 L1.90921384,266.726154 L273.524874,266.726154 L273.524874,1.71838462 L1.90921384,1.71838462 L1.90921384,1.71838462 Z M251.930535,245.735846 L24.0656918,245.735846 L24.0656918,23.2837692 L251.930535,23.2837692 L251.930535,245.735846 L251.930535,245.735846 Z"></path>
                </g>
                <g transform="translate(68.553459, 71.884615)" id="Shape">
                    <g transform="translate(0.000000, 3.423077)">
                        <g transform="translate(0.000000, 3.423077)" fill="#010101">
                            <path d="M32.322956,82.5132692 L22.6637736,114.286269 L1.5081761,114.286269 L37.4850314,2.16338462 L63.6416038,2.16338462 L100.122327,114.286269 L78.1372327,114.286269 L67.9741824,82.5132692 L32.322956,82.5132692 L32.322956,82.5132692 Z M64.4745283,67.0443846 L55.6414151,39.4304231 C53.4785535,32.6116538 51.6447484,24.9576538 49.982327,18.4709231 L49.6498428,18.4709231 C47.9839937,24.9576538 46.314717,32.7759615 44.3163836,39.4304231 L35.6580818,67.0443846 L64.4745283,67.0443846 L64.4745283,67.0443846 Z"></path>
                        </g>
                        <path d="M32.322956,81.4007692 L22.6637736,113.173769 L1.5081761,113.173769 L37.4850314,1.05088462 L63.6416038,1.05088462 L100.122327,113.173769 L78.1372327,113.173769 L67.9741824,81.4007692 L32.322956,81.4007692 L32.322956,81.4007692 Z M64.4745283,65.9318846 L55.6414151,38.3179231 C53.4785535,31.4991538 51.6447484,23.8451538 49.982327,17.3584231 L49.6498428,17.3584231 C47.9839937,23.8451538 46.314717,31.6634615 44.3163836,38.3179231 L35.6580818,65.9318846 L64.4745283,65.9318846 L64.4745283,65.9318846 Z" fill="url(#linearGradient-15)"></path>
                    </g>
                    <g transform="translate(106.257862, 0.000000)">
                        <g transform="translate(0.000000, 3.423077)" fill="#010101">
                            <path d="M23.6715094,14.0722692 C23.6715094,20.2269615 19.1744025,25.0500769 12.0139937,25.0500769 C5.18264151,25.0500769 0.685534591,20.2269615 0.685534591,14.0722692 C0.685534591,7.74984615 5.34716981,2.92330769 12.178522,2.92330769 C19.1744025,2.92330769 23.5035535,7.74984615 23.6715094,14.0722692 L23.6715094,14.0722692 Z M1.8509434,117.712769 L1.8509434,36.6953846 L22.5061006,36.6953846 L22.5061006,117.709346 L1.8509434,117.709346 L1.8509434,117.712769 Z"></path>
                        </g>
                        <path d="M23.6715094,12.9597692 C23.6715094,19.1144615 19.1744025,23.9375769 12.0139937,23.9375769 C5.18264151,23.9375769 0.685534591,19.1144615 0.685534591,12.9597692 C0.685534591,6.63734615 5.34716981,1.81080769 12.178522,1.81080769 C19.1744025,1.81080769 23.5035535,6.63734615 23.6715094,12.9597692 L23.6715094,12.9597692 Z M1.8509434,116.596846 L1.8509434,35.5828846 L22.5061006,35.5828846 L22.5061006,116.596846 L1.8509434,116.596846 L1.8509434,116.596846 Z" fill="url(#linearGradient-16)"></path>
                    </g>
                </g>
            </g>
            <g id="Group" sketch:type="MSShapeGroup">
                <rect id="Rectangle-path" fill="url(#linearGradient-17)" x="11.8768868" y="13.6341154" width="250.593742" height="242.877577"></rect>
                <g id="Shape" fill="url(#linearGradient-18)">
                    <path d="M1.07971698,1.71838462 L1.07971698,266.729577 L272.695377,266.729577 L272.695377,1.71838462 L1.07971698,1.71838462 L1.07971698,1.71838462 Z M251.104465,245.732423 L23.2396226,245.732423 L23.2396226,23.2803462 L251.104465,23.2803462 L251.104465,245.732423 L251.104465,245.732423 Z"></path>
                </g>
                <g transform="translate(71.981132, 71.884615)" id="Shape">
                    <g>
                        <g transform="translate(0.000000, 6.846154)" fill="#010101">
                            <path d="M0.497012579,3.36830769 C7.82880503,2.03673077 17.9884277,1.03719231 31.8156604,1.03719231 C46.8083019,1.03719231 57.8008491,4.19669231 64.9646855,10.1870769 C71.6280818,15.6776923 75.9606604,24.4955385 75.9606604,34.9735769 C75.9606604,45.6193462 72.6289623,54.4371923 66.301478,60.4275769 C58.1401887,68.5779231 45.3104088,72.4049231 30.8182075,72.4049231 C26.9860692,72.4049231 23.4898428,72.2371923 20.8231132,71.7408462 L20.8231132,113.995308 L0.500440252,113.995308 L0.500440252,3.36830769 L0.497012579,3.36830769 Z M20.8196855,55.6044615 C23.3184591,56.2719615 26.6501572,56.4362692 30.8147799,56.4362692 C46.1399057,56.4362692 55.4700314,48.95 55.4700314,35.8088077 C55.4700314,23.3316923 46.8048742,16.6772308 32.6451572,16.6772308 C26.9826415,16.6772308 22.9859748,17.177 20.8196855,17.6767692 L20.8196855,55.6044615 L20.8196855,55.6044615 Z"></path>
                        </g>
                        <path d="M0.497012579,5.67888462 C7.82880503,4.34730769 17.9884277,3.34776923 31.8156604,3.34776923 C46.8083019,3.34776923 57.8008491,6.50726923 64.9646855,12.4976538 C71.6280818,17.9882692 75.9606604,26.8061154 75.9606604,37.2841538 C75.9606604,47.9299231 72.6289623,56.7477692 66.301478,62.7381538 C58.1401887,70.8885 45.3104088,74.7155 30.8182075,74.7155 C26.9860692,74.7155 23.4898428,74.5477692 20.8231132,74.0514231 L20.8231132,116.305885 L0.500440252,116.305885 L0.500440252,5.67888462 L0.497012579,5.67888462 Z M20.8196855,57.9116154 C23.3184591,58.5791154 26.6501572,58.7434231 30.8147799,58.7434231 C46.1399057,58.7434231 55.4700314,51.2571538 55.4700314,38.1159615 C55.4700314,25.6388462 46.8048742,18.9843846 32.6451572,18.9843846 C26.9826415,18.9843846 22.9859748,19.4841538 20.8196855,19.9839231 L20.8196855,57.9116154 L20.8196855,57.9116154 Z" fill="url(#linearGradient-19)"></path>
                    </g>
                    <g transform="translate(75.408805, 30.807692)">
                        <g transform="translate(0.000000, 6.846154)" fill="#010101">
                            <path d="M6.8690566,64.3880769 C11.5341195,67.2189615 20.3672327,70.2107308 27.6955975,70.2107308 C36.6863836,70.2107308 40.6830503,66.5514615 40.6830503,61.2285769 C40.6830503,55.7379615 37.3547799,52.9105 27.3596855,49.4155385 C11.5341195,43.9249231 4.87072327,35.2748077 5.0318239,25.7963077 C5.0318239,11.4912692 16.8607233,0.342307692 35.6855031,0.342307692 C44.679717,0.342307692 52.508522,2.67 57.1735849,5.16542308 L53.1803459,19.6381923 C49.6806918,17.6425385 43.1818239,14.9793846 36.0214151,14.9793846 C28.6896226,14.9793846 24.6895283,18.4743462 24.6895283,23.4651923 C24.6895283,28.6237692 28.5216667,31.1157692 38.852673,34.7784615 C53.5094025,40.1013462 60.3407547,47.5876154 60.505283,59.5649615 C60.505283,74.2020385 49.0122956,85.0223846 27.5242138,85.0223846 C17.6936478,85.0223846 8.86738994,82.5269615 2.86896226,79.1963077 L6.8690566,64.3880769 L6.8690566,64.3880769 Z"></path>
                        </g>
                        <path d="M6.8690566,66.6986538 C11.5341195,69.5295385 20.3672327,72.5213077 27.6955975,72.5213077 C36.6863836,72.5213077 40.6830503,68.8620385 40.6830503,63.5391538 C40.6830503,58.0485385 37.3547799,55.2210769 27.3596855,51.7261154 C11.5341195,46.2355 4.87072327,37.5853846 5.0318239,28.1068846 C5.0318239,13.8018462 16.8607233,2.65288462 35.6855031,2.65288462 C44.679717,2.65288462 52.508522,4.98057692 57.1735849,7.476 L53.1803459,21.9487692 C49.6806918,19.9531154 43.1818239,17.2899615 36.0214151,17.2899615 C28.6896226,17.2899615 24.6895283,20.7849231 24.6895283,25.7757692 C24.6895283,30.9343462 28.5216667,33.4263462 38.852673,37.0890385 C53.5094025,42.4119231 60.3407547,49.8981923 60.505283,61.8755385 C60.505283,76.5126154 49.0122956,87.3329615 27.5242138,87.3329615 C17.6936478,87.3329615 8.86738994,84.8375385 2.86896226,81.5068846 L6.8690566,66.6986538 L6.8690566,66.6986538 Z" fill="url(#linearGradient-20)"></path>
                    </g>
                </g>
            </g>
            <g id="Group" transform="translate(130.251572, 130.076923)" sketch:type="MSShapeGroup">
                <rect id="Rectangle-path" fill="url(#linearGradient-21)" x="13.4878931" y="12.638" width="250.590314" height="242.877577"></rect>
                <g id="Shape" filter="url(#filter-23)" fill="url(#linearGradient-22)">
                    <path d="M2.69072327,0.722269231 L2.69072327,265.733462 L274.306384,265.733462 L274.306384,0.722269231 L2.69072327,0.722269231 L2.69072327,0.722269231 Z M252.715472,244.736308 L24.8506289,244.736308 L24.8506289,22.2876538 L252.715472,22.2876538 L252.715472,244.736308 L252.715472,244.736308 Z"></path>
                </g>
                <g transform="translate(47.987421, 71.884615)" id="Shape">
                    <g>
                        <g transform="translate(0.000000, 3.423077)" fill="#010101">
                            <path d="M2.15943396,3.03626923 L68.3615094,3.03626923 L68.3615094,20.203 L23.0956604,20.203 L23.0956604,51.8151154 L65.2971698,51.8151154 L65.2971698,68.9818462 L23.0956604,68.9818462 L23.0956604,117.589538 L2.15943396,117.589538 L2.15943396,3.03626923 L2.15943396,3.03626923 Z"></path>
                        </g>
                        <path d="M2.15943396,1.92376923 L68.3615094,1.92376923 L68.3615094,19.0905 L23.0956604,19.0905 L23.0956604,50.7026154 L65.2971698,50.7026154 L65.2971698,67.8693462 L23.0956604,67.8693462 L23.0956604,116.477038 L2.15943396,116.477038 L2.15943396,1.92376923 L2.15943396,1.92376923 Z" fill="url(#linearGradient-24)"></path>
                    </g>
                    <g transform="translate(68.553459, 30.807692)">
                        <g transform="translate(0.000000, 6.846154)" fill="#010101">
                            <path d="M22.2661635,0.588769231 L30.3074843,38.1501923 C32.0418868,46.9885769 33.7762893,55.9946923 35.1919182,65.0042308 L35.5072642,65.0042308 C37.0839937,55.9946923 39.6033333,46.8208462 41.8141824,38.3213462 L51.7407233,0.592192308 L67.5011635,0.592192308 L77.1157862,37.3046923 C79.4808805,46.992 81.5272013,55.9981154 83.2616038,65.0076538 L83.5803774,65.0076538 C84.841761,55.9981154 86.5693082,46.992 88.6224843,37.3046923 L97.1299686,0.592192308 L116.198113,0.592192308 L92.084434,83.3621923 L74.12,83.3621923 L64.9818239,49.7099231 C62.6167296,41.0426923 60.8857547,33.2278077 59.1479245,23.1981923 L58.8325786,23.1981923 C57.2558491,33.3955385 55.2095283,41.5527308 53.0055346,49.7099231 L43.2298113,83.3621923 L25.1077044,83.3621923 L2.41650943,0.592192308 L22.2661635,0.592192308 L22.2661635,0.588769231 Z"></path>
                        </g>
                        <path d="M22.2661635,2.89934615 L30.3074843,40.4607692 C32.0418868,49.2991538 33.7762893,58.3052692 35.1919182,67.3148077 L35.5072642,67.3148077 C37.0839937,58.3052692 39.6033333,49.1314231 41.8141824,40.6319231 L51.7407233,2.90276923 L67.5011635,2.90276923 L77.1157862,39.6152692 C79.4808805,49.3025769 81.5272013,58.3086923 83.2616038,67.3182308 L83.5803774,67.3182308 C84.841761,58.3086923 86.5693082,49.3025769 88.6224843,39.6152692 L97.1299686,2.90276923 L116.198113,2.90276923 L92.084434,85.6727692 L74.12,85.6727692 L64.9818239,52.0205 C62.6167296,43.3532692 60.8857547,35.5383846 59.1479245,25.5087692 L58.8325786,25.5087692 C57.2558491,35.7061154 55.2095283,43.8633077 53.0055346,52.0205 L43.2298113,85.6727692 L25.1077044,85.6727692 L2.41650943,2.90276923 L22.2661635,2.90276923 L22.2661635,2.89934615 Z" fill="url(#linearGradient-25)"></path>
                    </g>
                </g>
            </g>
        </g>
        <g id="SLICES" sketch:type="MSLayerGroup" transform="translate(-3829.000000, -1.000000)"></g>
    </g>
</svg>