<?xml version="1.0" encoding="UTF-8" standalone="no"?>
<svg width="89px" height="61px" viewBox="0 0 89 61" version="1.1" xmlns="http://www.w3.org/2000/svg" xmlns:xlink="http://www.w3.org/1999/xlink" xmlns:sketch="http://www.bohemiancoding.com/sketch/ns">
    <!-- Generator: Sketch 3.5.1 (25234) - http://www.bohemiancoding.com/sketch -->
    <title>html</title>
    <desc>Created with Sketch.</desc>
    <defs>
        <filter x="-50%" y="-50%" width="200%" height="200%" filterUnits="objectBoundingBox" id="filter-1">
            <feGaussianBlur stdDeviation="5.08961397" in="SourceGraphic" result="blur"></feGaussianBlur>
        </filter>
    </defs>
    <g id="Page-1" stroke="none" stroke-width="1" fill="none" fill-rule="evenodd" sketch:type="MSPage">
        <g id="shadow" sketch:type="MSLayerGroup" transform="translate(5.386539, 30.558954)" fill-opacity="0.100000001" filter="url(#filter-1)" fill="#000000">
            <path d="M38.7430474,22.8253612 C60.1402416,22.8253612 77.4860948,17.7157301 77.4860948,11.4126806 C77.4860948,5.10963116 60.1402416,0 38.7430474,0 C17.3458532,0 0,5.10963116 0,11.4126806 C0,17.7157301 17.3458532,22.8253612 38.7430474,22.8253612 Z" id="Oval-15" sketch:type="MSShapeGroup"></path>
        </g>
        <g id="html" sketch:type="MSLayerGroup" transform="translate(26.710232, 8.784761)">
            <path d="M3.22394764,35.6510967 L0.0569857306,0.0620795242 L34.856807,0.0620795242 L31.6863938,35.6454677 L17.4355468,39.6038415 L3.22394764,35.6510967" id="Fill-1" fill="#D3492B" sketch:type="MSShapeGroup"></path>
            <path d="M17.4568964,36.5782689 L28.9722678,33.3797259 L31.6815781,2.97201701 L17.4568964,2.97201701 L17.4568964,36.5782689" id="Fill-2" fill="#E15E30" sketch:type="MSShapeGroup"></path>
            <path d="M11.6920272,16.1715552 L11.2938495,11.7018295 L17.4568964,11.7018295 L17.4568964,7.33696346 L6.53265153,7.33696346 L7.70768124,20.5362604 L17.4568964,20.5362604 L17.4568964,16.1715552 L11.6920272,16.1715552 Z" id="Fill-3" fill="#ECECE9" sketch:type="MSShapeGroup"></path>
            <path d="M17.4568964,27.5074211 L17.4377941,27.5125676 L12.5859006,26.1998912 L12.2756093,22.7187739 L7.9023156,22.7187739 L8.51270501,29.5722086 L17.436831,32.0542638 L17.4568964,32.0487152 L17.4568964,27.5074211" id="Fill-4" fill="#ECECE9" sketch:type="MSShapeGroup"></path>
            <path d="M17.4418072,16.1715552 L17.4418072,20.5362604 L22.8064117,20.5362604 L22.3007637,26.1971571 L17.4418072,27.5111201 L17.4418072,32.052173 L26.3729961,29.5722086 L27.4623065,17.3435877 L27.5685728,16.1715552 L17.4418072,16.1715552" id="Fill-9" fill="#FFFFFF" sketch:type="MSShapeGroup"></path>
            <path d="M17.4418072,7.33696346 L17.4418072,11.7018295 L27.9649848,11.7018295 L28.0523897,10.7206996 L28.2508766,8.50795054 L28.3550562,7.33696346 L17.4418072,7.33696346" id="Fill-10" fill="#FFFFFF" sketch:type="MSShapeGroup"></path>
        </g>
        <g id="SLICES" sketch:type="MSLayerGroup" transform="translate(-95.000000, 0.000000)"></g>
    </g>
</svg>