<?xml version="1.0" encoding="UTF-8" standalone="no"?>
<svg width="88px" height="60px" viewBox="0 0 88 60" version="1.1" xmlns="http://www.w3.org/2000/svg" xmlns:xlink="http://www.w3.org/1999/xlink" xmlns:sketch="http://www.bohemiancoding.com/sketch/ns">
    <!-- Generator: Sketch 3.5.1 (25234) - http://www.bohemiancoding.com/sketch -->
    <title>javascript</title>
    <desc>Created with Sketch.</desc>
    <defs>
        <filter x="-50%" y="-50%" width="200%" height="200%" filterUnits="objectBoundingBox" id="filter-1">
            <feGaussianBlur stdDeviation="5.08961397" in="SourceGraphic" result="blur"></feGaussianBlur>
        </filter>
    </defs>
    <g id="Page-1" stroke="none" stroke-width="1" fill="none" fill-rule="evenodd" sketch:type="MSPage">
        <g id="shadow" sketch:type="MSLayerGroup" transform="translate(5.000000, 31.000000)" fill-opacity="0.100000001" filter="url(#filter-1)" fill="#000000">
            <path d="M38.7430474,22.8253612 C60.1402416,22.8253612 77.4860948,17.7157301 77.4860948,11.4126806 C77.4860948,5.10963116 60.1402416,0 38.7430474,0 C17.3458532,0 0,5.10963116 0,11.4126806 C0,17.7157301 17.3458532,22.8253612 38.7430474,22.8253612 Z" id="Oval-15" sketch:type="MSShapeGroup"></path>
        </g>
        <g id="javascript" sketch:type="MSLayerGroup" transform="translate(26.000000, 9.000000)">
            <path d="M3.22394764,35.5835757 L0.0569857306,0.0619619493 L34.856807,0.0619619493 L31.6863938,35.5779574 L17.4355468,39.5288343 L3.22394764,35.5835757" id="Fill-1" fill="#D5BA31" sketch:type="MSShapeGroup"></path>
            <path d="M28.9722678,33.3165067 L31.6815781,2.96638819 L17.4568964,2.96638819 L17.4568964,36.5089918 L28.9722678,33.3165067 Z" id="Fill-2" fill="#FFDA3E" sketch:type="MSShapeGroup"></path>
            <path d="M17.4568964,27.4553237 L17.4377941,27.4604604 L12.5859006,26.1502702 L12.2756093,22.6757459 L7.9023156,22.6757459 L8.51270501,29.5162006 L17.436831,31.9935549 L17.4568964,31.9880169 L17.4568964,27.4553237" id="Fill-4" fill="#ECECE9" sketch:type="MSShapeGroup"></path>
            <path d="M23.6690185,10.291041 L22.3007637,26.1475413 L17.4418072,27.4590157 L17.4418072,31.9914681 L26.3729961,29.5162006 L28.3727867,7.35741744 L23.6690185,10.291041 Z" id="Fill-9" fill="#FFFFFF" sketch:type="MSShapeGroup"></path>
            <path d="M17.4167656,11.6437733 L27.9689904,11.6604041 L28.0563952,10.6811325 L28.2548822,8.47257422 L28.3590617,7.30380491 L17.4167656,7.30380491 L17.4167656,11.6437733 Z" id="Fill-11" fill="#FFFFFF" sketch:type="MSShapeGroup"></path>
            <path d="M6.9921642,11.6270329 L6.59085623,7.30380491 L17.4568964,7.30380491 L17.4568964,11.6437797 L6.9921642,11.6270329 Z" id="Fill-12" fill="#EBEBE9" sketch:type="MSShapeGroup"></path>
        </g>
        <g id="SLICES" sketch:type="MSLayerGroup" transform="translate(-287.000000, 0.000000)"></g>
    </g>
</svg>