<?xml version="1.0" encoding="UTF-8" standalone="no"?>
<svg width="88px" height="60px" viewBox="0 0 88 60" version="1.1" xmlns="http://www.w3.org/2000/svg" xmlns:xlink="http://www.w3.org/1999/xlink" xmlns:sketch="http://www.bohemiancoding.com/sketch/ns">
    <!-- Generator: Sketch 3.5.1 (25234) - http://www.bohemiancoding.com/sketch -->
    <title>meteor</title>
    <desc>Created with Sketch.</desc>
    <defs>
        <filter x="-50%" y="-50%" width="200%" height="200%" filterUnits="objectBoundingBox" id="filter-1">
            <feGaussianBlur stdDeviation="5.08961397" in="SourceGraphic" result="blur"></feGaussianBlur>
        </filter>
    </defs>
    <g id="Page-1" stroke="none" stroke-width="1" fill="none" fill-rule="evenodd" sketch:type="MSPage">
        <g id="shadow-copy" sketch:type="MSLayerGroup" transform="translate(5.000000, 30.000000)" fill-opacity="0.100000001" filter="url(#filter-1)" fill="#000000">
            <path d="M38.7430474,22.8253612 C60.1402416,22.8253612 77.4860948,17.7157301 77.4860948,11.4126806 C77.4860948,5.10963116 60.1402416,0 38.7430474,0 C17.3458532,0 0,5.10963116 0,11.4126806 C0,17.7157301 17.3458532,22.8253612 38.7430474,22.8253612 Z" id="Oval-15" sketch:type="MSShapeGroup"></path>
        </g>
        <g id="SLICES" sketch:type="MSLayerGroup" transform="translate(0.000000, -254.000000)"></g>
        <g id="meteor" sketch:type="MSLayerGroup" transform="translate(16.000000, 2.000000)" fill="#FF4545">
            <g id="Group" sketch:type="MSShapeGroup">
                <path d="M0.0837175109,0.0837262712 L41.8587557,44.3749237 C41.8587557,44.3749237 43.2819533,45.379639 44.3702811,44.2074712 C45.4586085,43.0353034 44.6214335,41.8631356 44.6214335,41.8631356 L0.0837175109,0.0837262712 L0.0837175109,0.0837262712 L0.0837175109,0.0837262712 Z" id="Shape"></path>
                <path d="M13.3110842,4.27003981 L45.1237385,38.5978111 C45.1237385,38.5978111 46.5469363,39.6025261 47.6352639,38.4303583 C48.7235915,37.2581907 47.8864165,36.0860229 47.8864165,36.0860229 L13.3110842,4.27003981 L13.3110842,4.27003981 L13.3110842,4.27003981 Z" id="Shape"></path>
                <path d="M4.01844052,13.2287509 L35.8310948,47.5565219 C35.8310948,47.5565219 37.2542926,48.5612372 38.3426202,47.3890696 C39.4309478,46.2169017 38.5937726,45.0447337 38.5937726,45.0447337 L4.01844052,13.2287509 L4.01844052,13.2287509 L4.01844052,13.2287509 Z" id="Shape"></path>
                <path d="M24.4931052,7.87026948 L46.7187073,31.8530335 C46.7187073,31.8530335 47.7130105,32.5549681 48.47336,31.7360443 C49.2337097,30.9171209 48.6488252,30.0981971 48.6488252,30.0981971 L24.4931052,7.87026948 L24.4931052,7.87026948 L24.4931052,7.87026948 Z" id="Shape"></path>
                <path d="M7.07986287,23.6108084 L29.3054648,47.5935725 C29.3054648,47.5935725 30.2997683,48.2955071 31.0601175,47.4765833 C31.8204672,46.6576597 31.2355829,45.8387361 31.2355829,45.8387361 L7.07986287,23.6108084 L7.07986287,23.6108084 L7.07986287,23.6108084 Z" id="Shape"></path>
                <path d="M35.9148123,13.0612983 L45.9882034,23.9641086 C45.9882034,23.9641086 46.4800529,24.2930171 46.8561733,23.9092903 C47.2322934,23.5255636 46.9429702,23.1418366 46.9429702,23.1418366 L35.9148123,13.0612983 L35.9148123,13.0612983 L35.9148123,13.0612983 Z" id="Shape"></path>
                <path d="M12.6413442,34.6626762 L22.7147354,45.5654865 C22.7147354,45.5654865 23.2065848,45.8943952 23.5827052,45.5106684 C23.9588252,45.1269414 23.6695021,44.7432146 23.6695021,44.7432146 L12.6413442,34.6626762 L12.6413442,34.6626762 L12.6413442,34.6626762 Z" id="Shape"></path>
            </g>
        </g>
    </g>
</svg>