<?xml version="1.0" encoding="UTF-8" standalone="no"?>
<svg width="88px" height="60px" viewBox="0 0 88 60" version="1.1" xmlns="http://www.w3.org/2000/svg" xmlns:xlink="http://www.w3.org/1999/xlink" xmlns:sketch="http://www.bohemiancoding.com/sketch/ns">
    <!-- Generator: Sketch 3.5.1 (25234) - http://www.bohemiancoding.com/sketch -->
    <title>react</title>
    <desc>Created with Sketch.</desc>
    <defs>
        <filter x="-50%" y="-50%" width="200%" height="200%" filterUnits="objectBoundingBox" id="filter-1">
            <feGaussianBlur stdDeviation="5.08961397" in="SourceGraphic" result="blur"></feGaussianBlur>
        </filter>
    </defs>
    <g id="Page-1" stroke="none" stroke-width="1" fill="none" fill-rule="evenodd" sketch:type="MSPage">
        <g id="shadow-copy-3" sketch:type="MSLayerGroup" transform="translate(4.000000, 30.000000)" fill-opacity="0.100000001" filter="url(#filter-1)" fill="#000000">
            <path d="M38.7430474,22.8253612 C60.1402416,22.8253612 77.4860948,17.7157301 77.4860948,11.4126806 C77.4860948,5.10963116 60.1402416,0 38.7430474,0 C17.3458532,0 0,5.10963116 0,11.4126806 C0,17.7157301 17.3458532,22.8253612 38.7430474,22.8253612 Z" id="Oval-15" sketch:type="MSShapeGroup"></path>
        </g>
        <g id="SLICES" sketch:type="MSLayerGroup" transform="translate(-96.000000, -254.000000)"></g>
        <g id="react-icon" sketch:type="MSLayerGroup" transform="translate(19.957652, 5.449847)" fill="#00D8FF">
            <ellipse id="Oval" sketch:type="MSShapeGroup" cx="24.1853108" cy="21.5618153" rx="4.31933132" ry="4.31933132"></ellipse>
            <path d="M24.1853108,13.8129003 C29.7660417,13.8129003 35.0674102,14.5997039 39.097739,15.9871983 C43.5738765,17.5281443 46.3042442,19.8064021 46.3042442,21.5618153 C46.3042442,23.4316732 43.3555154,25.8591961 38.5676258,27.4455639 C34.7559262,28.7084769 29.6560877,29.3968294 24.1853108,29.3968294 C18.438122,29.3968294 13.2807588,28.72189 9.51328114,27.4341167 C7.1546606,26.6279372 5.20684901,25.5802356 3.8717654,24.436898 C2.67206464,23.4094994 2.06637733,22.3894558 2.06637733,21.5618153 C2.06637733,19.8004975 4.69227328,17.5538845 9.07187507,16.0269434 C13.1038898,14.6212939 18.5350128,13.8129003 24.1853108,13.8129003 L24.1853108,13.8129003 Z M24.1853108,11.746523 C18.3154988,11.746523 12.6569036,12.5887746 8.39161922,14.075747 C3.27049313,15.8612194 0,18.6593243 0,21.5618153 C0,24.5595661 3.51093321,27.5662558 8.844942,29.389427 C12.8543302,30.7598884 18.2285431,31.4632067 24.1853108,31.4632067 C29.8623538,31.4632067 35.1767373,30.745896 39.2175293,29.4070788 C44.7627418,27.5697877 48.3706216,24.599623 48.3706216,21.5618153 C48.3706216,18.6488326 44.9946225,15.8318509 39.7703687,14.0333599 C35.5102298,12.5667502 29.9836571,11.746523 24.1853108,11.746523 L24.1853108,11.746523 Z" id="Shape" sketch:type="MSShapeGroup"></path>
            <path d="M17.4353388,17.712231 C20.2232823,12.8778845 23.5533017,8.67851044 26.7686926,5.88026009 C30.3397387,2.77254447 33.6773444,1.54544681 35.1980077,2.42237048 C36.8178293,3.35646672 37.447657,7.12367066 36.4299581,12.0636871 C35.6197226,15.9965916 33.6682898,20.7583299 30.9352788,25.4975055 C28.0641473,30.4761557 24.9030376,34.6065796 21.9052796,37.2269432 C20.0286045,38.8674212 18.1479499,40.0313417 16.490538,40.6166931 C15.0012023,41.1426847 13.8149683,41.1577806 13.0979621,40.7443075 C11.5722098,39.8643836 10.9378816,36.4673566 11.8030925,31.9106211 C12.5995937,27.7156863 14.6125136,22.6071054 17.4353407,17.7122277 L17.4353388,17.712231 Z M15.6452939,16.6799256 C12.7128008,21.7649678 10.6155687,27.0875243 9.77298585,31.5251573 C8.76128991,36.8533739 9.55133326,41.0843049 12.0656595,42.534354 C14.6626307,44.0319389 19.0211756,42.4926231 23.2652267,38.7827257 C26.4554642,35.9941142 29.7494935,31.6900127 32.7253281,26.5298033 C35.5613802,21.6119495 37.5949042,16.6498984 38.4538337,12.4806316 C39.632513,6.75919968 38.8618925,2.14986823 36.2302815,0.632307358 C33.7068596,-0.822878975 29.5800549,0.694374071 25.4121627,4.32149716 C22.0134281,7.27930562 18.5419521,11.6570657 15.6452959,16.6799222 L15.6452939,16.6799256 Z" id="Shape" sketch:type="MSShapeGroup"></path>
            <path d="M17.4417977,25.5087537 C14.64581,20.6790343 12.6706716,15.6967849 11.8521978,11.513607 C10.9431729,6.86776858 11.546925,3.3633092 13.066137,2.48384456 C14.6844045,1.54698096 18.2627397,2.8827217 22.034251,6.23155078 C25.0369706,8.89762485 28.187733,12.9662721 30.9287396,17.7009792 C33.8081911,22.6747925 35.8079907,27.4762925 36.5811118,31.3821086 C37.065128,33.8272752 37.1342814,36.0378892 36.8136688,37.7661366 C36.52557,39.3191204 35.9462218,40.35435 35.2299146,40.7690255 C33.705567,41.6514904 30.4456552,40.5045299 26.9299949,37.4792178 C23.6934931,34.6941388 20.272844,30.3988863 17.441791,25.5087421 L17.4417977,25.5087537 Z M15.6534806,26.5440494 C18.5945113,31.6241606 22.1584249,36.0993079 25.5821649,39.0455095 C29.6930588,42.5830347 33.7532347,44.0115583 36.265195,42.5573515 C38.8596282,41.0554147 39.7027551,36.5105778 38.6081588,30.9808656 C37.7853967,26.8242629 35.7015112,21.8208734 32.717058,16.6656858 C29.8727113,11.752473 26.5893984,7.51266041 23.4062297,4.68636801 C19.0381518,0.80783099 14.6598932,-0.826509559 12.0308535,0.69552037 C9.50983464,2.15492631 8.7633171,6.48806299 9.82427376,11.9103934 C10.689416,16.3320911 12.748458,21.5259859 15.6534738,26.5440378 L15.6534806,26.5440494 Z" id="Shape" sketch:type="MSShapeGroup"></path>
        </g>
    </g>
</svg>