<?xml version="1.0" encoding="UTF-8" standalone="no"?>
<svg width="89px" height="61px" viewBox="0 0 89 61" version="1.1" xmlns="http://www.w3.org/2000/svg" xmlns:xlink="http://www.w3.org/1999/xlink" xmlns:sketch="http://www.bohemiancoding.com/sketch/ns">
    <!-- Generator: Sketch 3.5.1 (25234) - http://www.bohemiancoding.com/sketch -->
    <title>sass</title>
    <desc>Created with Sketch.</desc>
    <defs>
        <filter x="-50%" y="-50%" width="200%" height="200%" filterUnits="objectBoundingBox" id="filter-1">
            <feGaussianBlur stdDeviation="5.08961397" in="SourceGraphic" result="blur"></feGaussianBlur>
        </filter>
        <radialGradient cx="50%" cy="50%" fx="50%" fy="50%" r="50%" id="radialGradient-2">
            <stop stop-color="#FFFFFF" offset="0%"></stop>
            <stop stop-color="#FFFFFF" offset="65.4283062%"></stop>
            <stop stop-color="#E0E0E0" offset="100%"></stop>
        </radialGradient>
    </defs>
    <g id="Page-1" stroke="none" stroke-width="1" fill="none" fill-rule="evenodd" sketch:type="MSPage">
        <g id="shadow" sketch:type="MSLayerGroup" transform="translate(6.718574, 30.085649)" fill-opacity="0.100000001" filter="url(#filter-1)" fill="#000000">
            <path d="M38.7430474,22.8253612 C60.1402416,22.8253612 77.4860948,17.7157301 77.4860948,11.4126806 C77.4860948,5.10963116 60.1402416,0 38.7430474,0 C17.3458532,0 0,5.10963116 0,11.4126806 C0,17.7157301 17.3458532,22.8253612 38.7430474,22.8253612 Z" id="Oval-15" sketch:type="MSShapeGroup"></path>
        </g>
        <g id="sass" sketch:type="MSLayerGroup" transform="translate(22.861510, 5.608453)">
            <ellipse id="Oval-1" fill="url(#radialGradient-2)" sketch:type="MSShapeGroup" cx="21.9481847" cy="21.9619019" rx="21.9481847" ry="21.9619019"></ellipse>
            <path d="M29.8139996,28.0740404 C29.4488405,28.7098701 29.8393933,28.0865311 29.8139996,28.0740404 L29.8139996,28.0740404 L29.8139996,28.0740404 Z M35.2522428,26.2861362 C35.2522428,26.3233909 35.3726689,26.2650649 35.2522428,26.2861362 L35.2522428,26.2861362 L35.2522428,26.2861362 Z M21.7603165,23.0196618 C21.720729,23.0157517 21.6869077,23.0123847 21.6676129,23.0104296 C21.6841354,23.0121674 21.7142974,23.0151 21.7603165,23.0196618 L21.7603165,23.0196618 Z M42.5555367,23.8048365 C40.9103799,23.1573851 38.628163,23.4735621 37.0336828,24.1494705 C36.76655,24.2627555 36.5526441,24.3156508 36.5526441,24.3156508 C36.5526441,24.3156508 36.2300665,23.829492 36.1325946,23.6364839 C35.9258966,23.2268984 35.7503585,22.8002604 35.6447917,22.354289 C35.4574993,21.5629233 35.506956,20.5409689 35.8013677,19.7871839 C35.8789903,19.5884192 36.2400466,19.0349194 35.9918759,18.8503833 C35.7602277,18.6781206 35.38653,18.6575924 35.1095281,18.6370643 C34.7842891,18.6129519 34.42911,18.6023076 34.1114116,18.6873528 C33.4913175,18.8533159 33.5006322,19.1262643 33.3236525,19.6843259 C32.7143147,21.6045227 31.5702677,23.2608948 30.6127368,25.019799 C30.0289035,24.8480794 29.8859669,23.1927934 29.8885174,22.7375898 C29.8911787,22.2368767 29.9741241,21.7373583 30.1183913,21.2576078 C30.2127583,20.9436031 30.3829737,20.5774634 30.3431644,20.243365 C30.2849474,19.754165 29.262657,19.857023 28.9448477,19.8861317 C28.2838353,19.9467387 27.9335354,20.0451435 27.698117,20.7290894 C26.5679311,24.0116386 23.7169619,29.7589781 23.4252116,29.8620534 C23.0471892,29.0540696 23.9835402,26.2459488 24.1790384,25.700052 C24.310997,25.3315228 24.6476575,24.6725582 24.5280077,24.2747031 C24.3168741,23.5701204 23.5703659,23.9016121 23.0830066,23.9767733 C23.166839,23.3824345 23.2867106,22.6213722 23.0110393,22.0582057 C22.2097517,20.4216015 19.4351853,22.1439026 18.730039,23.0914561 C18.5140262,23.3816742 18.2556536,23.6911171 17.8593345,23.9974101 C17.0978563,24.5858838 13.8006677,26.0595662 13.8006677,26.0595662 C13.8006677,26.0595662 12.4643382,24.7877983 11.9784204,24.3865761 C11.938722,24.3537745 11.89858,24.3212987 11.8582162,24.2892574 C11.162939,23.737061 10.3767324,23.2841383 9.67979183,22.6902339 C8.96533073,22.0816665 8.28214048,21.4130352 7.81074918,20.6008156 C6.72458646,18.729278 7.54173124,17.1456777 8.52310338,15.4801821 C8.8917001,14.8546708 9.2901261,14.6491721 9.63587958,14.2112381 C9.88527008,13.895387 10.4892852,13.399996 10.9135485,13.1001112 C12.62413,11.8905794 14.4070115,10.906966 16.2151758,10.0482592 C17.2937981,9.53603297 18.426867,9.14013289 19.5703596,8.79234907 C20.6159368,8.47443424 21.6390034,8.4017711 22.7073129,8.26144109 C24.3438203,8.04649287 26.7708589,8.24634367 27.8980507,9.59924664 C29.1518784,11.10421 27.8200954,13.3215763 26.7876032,14.5656475 C25.6216,15.970794 24.0143675,16.9327932 22.3170927,17.605226 C20.4723349,18.3360933 18.3341634,18.8737354 16.3509046,18.3890972 C15.8398148,18.2641905 15.3718611,18.0624933 14.9175468,17.8040992 C14.709629,17.685818 14.1548488,17.0949547 14.0055915,17.1449174 C13.5501683,17.2975209 14.2968982,18.5755884 14.6023988,18.5755884 C14.6023988,18.8002034 15.1976537,19.0642454 15.4554718,19.2494332 C15.8555611,19.5368273 16.3197446,19.6447902 16.7979002,19.7447156 C17.7997869,19.9541245 18.8308375,19.9778024 19.8564546,19.8749444 C24.0770201,19.4518907 28.0153718,16.7152382 29.1119582,15.0984019 C29.3878513,14.6915317 29.6705086,14.2846616 29.8901807,13.8449898 C30.2955928,13.0332046 30.5286825,12.1327899 30.5845708,11.2315063 C30.7032226,9.31793493 29.9264416,7.69740567 28.1576431,6.81056778 C27.7182988,6.59029745 27.2589945,6.41032312 26.7972506,6.24066718 C24.9104656,5.54748905 21.8315076,5.59321578 19.7716241,6.11445706 C18.7197262,6.38067135 17.7345838,6.69750002 16.7074143,7.0822128 C13.422978,8.31205548 9.99372002,10.0471731 7.57078429,12.3593599 C6.52432001,13.3579621 5.5120097,14.5951906 4.83857772,15.8622881 C3.93748959,17.5576528 3.94658253,19.2340099 5.02453943,20.8460672 C6.05303961,22.3840494 7.64774161,23.6445214 9.20219072,24.6099962 C9.58875154,24.8502517 10.0201117,25.1742489 10.3968034,25.4592535 C10.7135038,25.6989658 11.1519609,25.9235807 11.407783,26.1743718 C11.6041683,26.3668368 12.3204037,26.8448495 12.3204037,26.8448495 C12.3204037,26.8448495 11.0364141,27.6371927 10.6966486,27.8050022 C10.3242816,27.988778 8.26140414,29.5013444 7.56468537,30.0121587 C6.29677474,30.9417907 5.27514971,32.5356008 5.55902685,34.215868 C5.84989003,35.9378433 7.35344086,37.1371653 9.93395058,36.4765715 C11.836371,35.9896524 13.0305401,34.9339189 14.154627,33.5487574 C14.9137766,32.6133688 15.4386166,30.7027301 15.1728145,29.4522506 C15.1728145,28.8442263 15.1246884,28.376532 14.9027985,27.8061969 C14.812978,27.5754996 14.6164818,27.2309742 14.8594407,27.0470898 C15.1711511,26.8111789 15.5940837,26.6570549 15.9278611,26.4373276 C16.1709309,26.2772298 16.7116281,25.876442 16.9980557,25.876442 C16.9885192,26.3630353 16.7926884,26.9129508 16.6963254,27.394765 C16.5734598,28.0085459 16.5417454,28.563349 16.5417454,29.1916843 C16.5420781,30.2447025 16.8786277,31.6892761 17.6637255,32.4671736 C18.4807593,33.2766779 19.6215906,32.8059424 20.1045144,32.1007081 C20.4168901,31.6446355 20.6095052,31.0632218 20.8785232,30.5769544 C21.109506,30.1593314 21.2315953,29.5540225 21.5234565,29.1916843 C21.6482072,29.5661873 21.5262288,30.0661401 21.5328821,30.4595421 C21.5499591,31.4789983 22.0221266,32.2936075 22.4361881,32.3205439 C23.5188023,32.3305365 24.0373217,31.3681029 24.4823212,30.5543626 C25.1731629,29.2905235 25.8891764,28.0474299 26.5314484,26.7577406 C26.853028,26.1119184 27.0679319,25.479673 27.3779789,24.8372179 C27.5852314,24.4073215 27.7294987,23.7870237 28.0265717,23.41806 C28.4456231,24.4970371 28.6039733,25.6309731 29.185367,26.6518414 C29.4739015,27.1584197 28.817103,27.5237991 28.5209171,27.9252385 C28.1424512,28.4380078 27.6951229,28.895601 27.2737428,29.3736137 C26.7424712,29.9765331 25.847482,30.7983109 26.5275673,31.5404742 C27.0578409,32.1192812 28.7290567,31.552639 29.3315194,31.2849041 C31.1761663,30.4650814 32.065722,28.7651549 31.4222302,26.82834 C31.3721081,26.6773658 31.3059071,26.5081443 31.1830415,26.3979005 C31.6515497,25.5765572 32.2024487,24.7868207 32.4795616,24.2949054 C32.7376015,23.8369864 33.5347862,22.1887604 33.7309497,22.1887604 C33.8593597,22.8149234 34.2462532,23.9634138 34.7958216,25.1687095 C33.7961527,25.9668093 32.5140482,28.260423 32.5140482,28.8191363 C32.3161105,29.5170935 32.528353,30.4664934 33.4660347,30.4147929 C34.2838448,30.3696092 35.6270494,29.7181391 36.1832711,29.120759 C36.5060705,28.7740613 37.0757099,28.3248315 37.2603409,27.6522901 C37.3952935,27.1610264 37.3223282,26.6284892 37.1976884,26.1429822 C37.0879077,25.7154752 36.8068028,25.4753285 37.2835168,25.2792792 C38.0417793,24.9675554 38.8869791,24.8639371 39.7033477,24.8472104 C41.4923281,24.8109332 43.43733,25.1401439 44.6074361,26.5839573 C45.0505506,27.1315919 45.4344501,27.8288974 45.3285506,28.5845289 C45.2715534,28.990856 44.9933316,29.4281382 44.7158861,29.7253076 C44.4732598,29.9854395 43.9795797,30.0724398 43.846845,30.4205494 C43.7326288,30.4205494 44.0980097,30.5668532 44.2647875,30.5278606 C44.4337831,30.4884335 44.5793811,30.3987179 44.7226503,30.3065041 C45.024048,30.1125185 45.2379539,30.0438741 45.4647229,29.7864576 C46.0390197,29.1349875 46.2919586,28.1317148 46.1145354,27.2974463 C45.7319666,25.4979203 44.2437185,24.4691232 42.5555367,23.8048365 Z M13.3762935,30.7524755 C13.1067212,31.5233131 12.6937686,32.2409295 12.1150363,32.8300549 C11.5998436,33.354446 10.9594567,33.8150803 10.272718,34.0986729 C8.33802879,34.8974244 7.3847117,33.9182641 8.21349987,32.3204353 C8.6264524,31.5258112 9.13776392,30.7773483 9.80731476,30.1648707 C10.4119952,29.6116968 11.0365249,29.3391829 11.6098237,28.9011403 C12.0987355,28.5276149 13.4616785,27.8505117 13.4616785,27.8505117 C13.4616785,27.8505117 13.7221579,29.7635399 13.3762935,30.7524755 L13.3762935,30.7524755 Z M21.1066229,26.8899245 C20.7146285,27.8506203 20.0591606,29.5963821 19.4928479,30.146189 C19.2953537,30.3378937 19.19766,30.5348119 18.9640158,30.2603429 C18.8424809,30.1176234 18.7783868,29.930915 18.7331439,29.7534388 C18.4153345,28.5056747 18.6975483,27.0450261 19.2159568,25.9080489 C20.8478068,22.3281129 22.0180237,23.0455121 22.0180237,23.0455121 C22.0802327,23.933762 21.4378498,26.0780307 21.1066229,26.8899245 L21.1066229,26.8899245 Z M27.8365071,30.4207667 C27.9306522,30.0798255 28.4864305,29.675888 28.7214053,29.4123891 C29.1044177,28.9828185 29.5262414,28.575188 29.8139996,28.0741491 C30.3984982,28.3603484 28.6304759,30.6914341 27.8365071,30.4207667 L27.8365071,30.4207667 Z M34.9844447,28.4616858 C34.7274028,28.7544021 33.6860394,29.4823368 33.8058001,28.7097615 C33.8940682,28.1405126 34.263552,27.6554399 34.5677219,27.1801426 C34.7571212,26.8840593 35.2522428,26.4543801 35.2522428,26.2862448 C35.3224359,26.2773384 35.3857538,26.252357 35.4424184,26.2116266 C35.7266282,26.9755128 35.5197083,27.8521409 34.9844447,28.4616858 L34.9844447,28.4616858 Z" id="Shape-2" fill="#CC6699" sketch:type="MSShapeGroup"></path>
        </g>
        <g id="SLICES" sketch:type="MSLayerGroup" transform="translate(-190.000000, -92.000000)"></g>
    </g>
</svg>