<?xml version="1.0" encoding="UTF-8" standalone="no"?>
<svg width="89px" height="61px" viewBox="0 0 89 61" version="1.1" xmlns="http://www.w3.org/2000/svg" xmlns:xlink="http://www.w3.org/1999/xlink" xmlns:sketch="http://www.bohemiancoding.com/sketch/ns">
    <!-- Generator: Sketch 3.5.1 (25234) - http://www.bohemiancoding.com/sketch -->
    <title>sublime</title>
    <desc>Created with Sketch.</desc>
    <defs>
        <filter x="-50%" y="-50%" width="200%" height="200%" filterUnits="objectBoundingBox" id="filter-1">
            <feGaussianBlur stdDeviation="5.08961397" in="SourceGraphic" result="blur"></feGaussianBlur>
        </filter>
        <linearGradient x1="50%" y1="0%" x2="50%" y2="100%" id="linearGradient-2">
            <stop stop-color="#3F3F3F" offset="0%"></stop>
            <stop stop-color="#1A1A1A" offset="100%"></stop>
        </linearGradient>
        <linearGradient x1="50%" y1="0%" x2="50%" y2="100%" id="linearGradient-3">
            <stop stop-color="#FF9808" offset="0%"></stop>
            <stop stop-color="#FF7B08" offset="100%"></stop>
        </linearGradient>
    </defs>
    <g id="Page-1" stroke="none" stroke-width="1" fill="none" fill-rule="evenodd" sketch:type="MSPage">
        <g id="shadow" sketch:type="MSLayerGroup" transform="translate(5.386539, 30.085649)" fill-opacity="0.100000001" filter="url(#filter-1)" fill="#000000">
            <path d="M38.7430474,22.8253612 C60.1402416,22.8253612 77.4860948,17.7157301 77.4860948,11.4126806 C77.4860948,5.10963116 60.1402416,0 38.7430474,0 C17.3458532,0 0,5.10963116 0,11.4126806 C0,17.7157301 17.3458532,22.8253612 38.7430474,22.8253612 Z" id="Oval-15" sketch:type="MSShapeGroup"></path>
        </g>
        <g id="sublime" sketch:type="MSLayerGroup" transform="translate(21.953659, 6.355420)">
            <g id="Oval-13-+-Oval-14" sketch:type="MSShapeGroup">
                <ellipse id="Oval-13" stroke="#D2D2D2" fill="#F2F2F2" cx="21.4684825" cy="21.4684825" rx="21.4684825" ry="21.4684825"></ellipse>
                <ellipse id="Oval-14" fill="url(#linearGradient-2)" cx="21.4684825" cy="21.4684825" rx="19.0213825" ry="19.0213825"></ellipse>
            </g>
            <path d="M12.9235047,28.6654213 C13.1855994,29.7108971 13.683668,30.6293623 14.4147871,31.4158641 C15.1375077,32.1933311 15.978702,32.7856207 16.9353571,33.190044 C17.8616741,33.5816419 18.7843754,33.8700873 19.7032749,34.0549822 C20.6209654,34.2396339 21.5317512,34.3320573 22.4352824,34.3320573 C23.2726541,34.3320573 24.107386,34.2629517 24.9392646,34.12478 C25.7807178,33.985018 26.6307511,33.7381049 27.4891141,33.3846303 C28.3557991,33.0277286 29.116817,32.5840463 29.7708565,32.0531231 C30.4416889,31.508568 30.9889636,30.8009672 31.4123922,29.9348062 C31.8388148,29.0625205 32.0513031,28.0882741 32.0513031,27.0169838 C32.0513031,26.006403 31.8818241,25.1280845 31.538522,24.3847408 C30.8688583,22.8986367 29.4443742,21.9022525 27.3104609,21.3923054 C26.4923762,21.1961059 24.9930904,20.9927067 22.7977282,20.7782246 C22.2965104,20.7331882 21.8978231,20.6968619 21.5983862,20.6689385 C21.3036379,20.6414524 20.9369861,20.6000011 20.4989724,20.5446007 C20.0695915,20.4902921 19.7269206,20.4337315 19.4732705,20.3758024 C19.2098721,20.3156469 18.9052328,20.238711 18.5596699,20.1450256 C18.243455,20.0592967 17.9986354,19.9637835 17.82757,19.8627778 C17.6340878,19.748536 17.4291347,19.6095481 17.2130733,19.4457641 C17.0273628,19.3049875 16.8902447,19.1562913 16.7982721,19.0002664 C16.6950108,18.8250909 16.6070064,18.6168874 16.5352927,18.3752173 C16.4662077,18.1424054 16.4311545,17.8844552 16.4311545,17.6004049 C16.4311545,17.0861772 16.557078,16.6274813 16.809688,16.215321 C17.0715658,15.7880394 17.4004894,15.445794 17.798982,15.1846674 C18.2216434,14.9077033 18.701432,14.6739332 19.2390574,14.4837775 C19.7839986,14.2910342 20.2969167,14.1579191 20.7775147,14.083881 C21.2647674,14.0088178 21.7258464,13.971433 22.1607095,13.971433 C22.7928936,13.971433 23.394207,14.0093981 23.9646888,14.085161 C24.5286782,14.1600618 25.1271721,14.2971528 25.7599762,14.496875 C26.3596503,14.6861409 26.8814714,14.9757839 27.3291233,15.3668089 C27.7672348,15.7495004 28.0836893,16.2113269 28.2824194,16.7580263 C28.5025537,17.2919904 28.9181987,17.5996756 29.4810465,17.6616106 L29.6809568,17.664209 C30.1416744,17.664209 30.5544408,17.4900981 30.8982826,17.1553962 C31.1738101,16.8841338 31.3191086,16.5559498 31.3191086,16.1904358 C31.3191086,16.0056781 31.2849641,15.8178175 31.2185846,15.6279055 C30.8844951,14.6435575 30.3760418,13.7938433 29.6955041,13.086925 C29.0166312,12.381736 28.2291347,11.8540099 27.3363566,11.5065756 C26.4759458,11.1717373 25.6242785,10.9316616 24.7815213,10.7867619 C23.9431433,10.6426151 23.0593336,10.5706823 22.1302014,10.5706823 C21.3176158,10.5706823 20.5027891,10.6548314 19.6861198,10.8229662 C18.8644467,10.9921312 18.0618068,11.2603018 17.2787572,11.6270881 C16.4908525,11.9961486 15.7936097,12.4429683 15.1881678,12.96769 C14.5674777,13.5056271 14.0685712,14.1722575 13.6925023,14.963915 C13.3135917,15.7615546 13.1243428,16.6307591 13.1243428,17.5668342 C13.1243428,18.3286969 13.2280485,19.016398 13.4374612,19.6288694 C13.6435019,20.2314788 13.8956725,20.7442229 14.1960125,21.1665157 C14.5093741,21.6071174 14.9534818,21.9892979 15.5237886,22.3153818 C16.0612704,22.6226974 16.549435,22.8591687 16.9897979,23.0246314 C17.4344735,23.1917145 18.0323407,23.3430862 18.7877112,23.4816194 C19.5302324,23.6177961 20.1254939,23.708929 20.5759498,23.7550383 C21.1114767,23.8098556 22.7485211,23.9738633 22.7485211,23.9738633 C24.7681579,24.1498934 26.1726302,24.3800686 26.9419324,24.6551906 C28.186826,25.1184195 28.7749994,25.8960121 28.7749994,27.0505545 C28.7749994,27.6360441 28.6417661,28.1540595 28.3758413,28.6124973 C28.1032243,29.0824722 27.7619901,29.453021 27.3501412,29.7288774 C26.9158527,30.019764 26.4067225,30.2632327 25.8218715,30.4584113 C25.2263854,30.6571391 24.6551242,30.7935603 24.1081159,30.8681345 C23.5529302,30.9438236 22.9953696,30.9816625 22.4352824,30.9816625 C21.7555544,30.9816625 21.1041294,30.9329729 20.4808574,30.8357673 C19.861661,30.7391973 19.2286953,30.5778444 18.5818345,30.3513636 C17.9707276,30.1374012 17.443651,29.8106832 16.9963484,29.3692204 C16.5561164,28.934736 16.2513939,28.4205903 16.0786745,27.8204073 C15.9757913,27.2421516 15.5830676,26.8354243 14.9713873,26.7101993 C14.8455259,26.6824522 14.7126316,26.6678287 14.579446,26.6678287 C14.1557052,26.6825972 13.7741118,26.8273903 13.4295574,27.0941946 C13.0568329,27.4091501 12.8650239,27.7906888 12.8650239,28.2255287 C12.8650239,28.3636035 12.8849752,28.5099645 12.9235047,28.6654213 Z" id="Path-2" fill="#000000" sketch:type="MSShapeGroup"></path>
            <path d="M11.9235047,27.6654213 C12.1855994,28.7108971 12.683668,29.6293623 13.4147871,30.4158641 C14.1375077,31.1933311 14.978702,31.7856207 15.9353571,32.190044 C16.8616741,32.5816419 17.7843754,32.8700873 18.7032749,33.0549822 C19.6209654,33.2396339 20.5317512,33.3320573 21.4352824,33.3320573 C22.2726541,33.3320573 23.107386,33.2629517 23.9392646,33.12478 C24.7807178,32.985018 25.6307511,32.7381049 26.4891141,32.3846303 C27.3557991,32.0277286 28.116817,31.5840463 28.7708565,31.0531231 C29.4416889,30.508568 29.9889636,29.8009672 30.4123922,28.9348062 C30.8388148,28.0625205 31.0513031,27.0882741 31.0513031,26.0169838 C31.0513031,25.006403 30.8818241,24.1280845 30.538522,23.3847408 C29.8688583,21.8986367 28.4443742,20.9022525 26.3104609,20.3923054 C25.4923762,20.1961059 23.9930904,19.9927067 21.7977282,19.7782246 C21.2965104,19.7331882 20.8978231,19.6968619 20.5983862,19.6689385 C20.3036379,19.6414524 19.9369861,19.6000011 19.4989724,19.5446007 C19.0695915,19.4902921 18.7269206,19.4337315 18.4732705,19.3758024 C18.2098721,19.3156469 17.9052328,19.238711 17.5596699,19.1450256 C17.243455,19.0592967 16.9986354,18.9637835 16.82757,18.8627778 C16.6340878,18.748536 16.4291347,18.6095481 16.2130733,18.4457641 C16.0273628,18.3049875 15.8902447,18.1562913 15.7982721,18.0002664 C15.6950108,17.8250909 15.6070064,17.6168874 15.5352927,17.3752173 C15.4662077,17.1424054 15.4311545,16.8844552 15.4311545,16.6004049 C15.4311545,16.0861772 15.557078,15.6274813 15.809688,15.215321 C16.0715658,14.7880394 16.4004894,14.445794 16.798982,14.1846674 C17.2216434,13.9077033 17.701432,13.6739332 18.2390574,13.4837775 C18.7839986,13.2910342 19.2969167,13.1579191 19.7775147,13.083881 C20.2647674,13.0088178 20.7258464,12.971433 21.1607095,12.971433 C21.7928936,12.971433 22.394207,13.0093981 22.9646888,13.085161 C23.5286782,13.1600618 24.1271721,13.2971528 24.7599762,13.496875 C25.3596503,13.6861409 25.8814714,13.9757839 26.3291233,14.3668089 C26.7672348,14.7495004 27.0836893,15.2113269 27.2824194,15.7580263 C27.5025537,16.2919904 27.9181987,16.5996756 28.4810465,16.6616106 L28.6809568,16.664209 C29.1416744,16.664209 29.5544408,16.4900981 29.8982826,16.1553962 C30.1738101,15.8841338 30.3191086,15.5559498 30.3191086,15.1904358 C30.3191086,15.0056781 30.2849641,14.8178175 30.2185846,14.6279055 C29.8844951,13.6435575 29.3760418,12.7938433 28.6955041,12.086925 C28.0166312,11.381736 27.2291347,10.8540099 26.3363566,10.5065756 C25.4759458,10.1717373 24.6242785,9.93166162 23.7815213,9.7867619 C22.9431433,9.64261509 22.0593336,9.57068226 21.1302014,9.57068226 C20.3176158,9.57068226 19.5027891,9.65483144 18.6861198,9.82296625 C17.8644467,9.99213121 17.0618068,10.2603018 16.2787572,10.6270881 C15.4908525,10.9961486 14.7936097,11.4429683 14.1881678,11.96769 C13.5674777,12.5056271 13.0685712,13.1722575 12.6925023,13.963915 C12.3135917,14.7615546 12.1243428,15.6307591 12.1243428,16.5668342 C12.1243428,17.3286969 12.2280485,18.016398 12.4374612,18.6288694 C12.6435019,19.2314788 12.8956725,19.7442229 13.1960125,20.1665157 C13.5093741,20.6071174 13.9534818,20.9892979 14.5237886,21.3153818 C15.0612704,21.6226974 15.549435,21.8591687 15.9897979,22.0246314 C16.4344735,22.1917145 17.0323407,22.3430862 17.7877112,22.4816194 C18.5302324,22.6177961 19.1254939,22.708929 19.5759498,22.7550383 C20.1114767,22.8098556 21.7485211,22.9738633 21.7485211,22.9738633 C23.7681579,23.1498934 25.1726302,23.3800686 25.9419324,23.6551906 C27.186826,24.1184195 27.7749994,24.8960121 27.7749994,26.0505545 C27.7749994,26.6360441 27.6417661,27.1540595 27.3758413,27.6124973 C27.1032243,28.0824722 26.7619901,28.453021 26.3501412,28.7288774 C25.9158527,29.019764 25.4067225,29.2632327 24.8218715,29.4584113 C24.2263854,29.6571391 23.6551242,29.7935603 23.1081159,29.8681345 C22.5529302,29.9438236 21.9953696,29.9816625 21.4352824,29.9816625 C20.7555544,29.9816625 20.1041294,29.9329729 19.4808574,29.8357673 C18.861661,29.7391973 18.2286953,29.5778444 17.5818345,29.3513636 C16.9707276,29.1374012 16.443651,28.8106832 15.9963484,28.3692204 C15.5561164,27.934736 15.2513939,27.4205903 15.0786745,26.8204073 C14.9757913,26.2421516 14.5830676,25.8354243 13.9713873,25.7101993 C13.8455259,25.6824522 13.7126316,25.6678287 13.579446,25.6678287 C13.1557052,25.6825972 12.7741118,25.8273903 12.4295574,26.0941946 C12.0568329,26.4091501 11.8650239,26.7906888 11.8650239,27.2255287 C11.8650239,27.3636035 11.8849752,27.5099645 11.9235047,27.6654213 Z" id="Path-2" fill="url(#linearGradient-3)" sketch:type="MSShapeGroup"></path>
        </g>
        <g id="SLICES" sketch:type="MSLayerGroup" transform="translate(-95.000000, -92.000000)"></g>
    </g>
</svg>