<?xml version="1.0" encoding="UTF-8" standalone="no"?>
<svg width="88px" height="60px" viewBox="0 0 88 60" version="1.1" xmlns="http://www.w3.org/2000/svg" xmlns:xlink="http://www.w3.org/1999/xlink" xmlns:sketch="http://www.bohemiancoding.com/sketch/ns">
    <!-- Generator: Sketch 3.5.1 (25234) - http://www.bohemiancoding.com/sketch -->
    <title>svg</title>
    <desc>Created with Sketch.</desc>
    <defs>
        <filter x="-50%" y="-50%" width="200%" height="200%" filterUnits="objectBoundingBox" id="filter-1">
            <feGaussianBlur stdDeviation="5.08961397" in="SourceGraphic" result="blur"></feGaussianBlur>
        </filter>
    </defs>
    <g id="Page-1" stroke="none" stroke-width="1" fill="none" fill-rule="evenodd" sketch:type="MSPage">
        <g id="shadow-copy-4" sketch:type="MSLayerGroup" transform="translate(5.121094, 28.453125)" fill-opacity="0.100000001" filter="url(#filter-1)" fill="#000000">
            <path d="M38.7430474,22.8253612 C60.1402416,22.8253612 77.4860948,17.7157301 77.4860948,11.4126806 C77.4860948,5.10963116 60.1402416,0 38.7430474,0 C17.3458532,0 0,5.10963116 0,11.4126806 C0,17.7157301 17.3458532,22.8253612 38.7430474,22.8253612 Z" id="Oval-15" sketch:type="MSShapeGroup"></path>
        </g>
        <g id="SLICES" sketch:type="MSLayerGroup" transform="translate(-287.000000, -254.000000)"></g>
        <g id="svg" sketch:type="MSLayerGroup" transform="translate(24.587891, 5.318359)">
            <path d="M20.447,0.081 C23.391,0.081 25.953,1.761 27.21,4.226 C29.828,3.402 32.796,4.034 34.859,6.098 C36.921,8.159 37.554,11.124 36.733,13.739 C39.194,15.004 40.865,17.581 40.865,20.562 L40.865,37.635 C40.865,39.8 39.107,41.555 36.942,41.555 L3.995,41.555 C1.829,41.555 0.072,39.8 0.072,37.635 L0.072,20.498 C0.072,17.562 1.741,15.006 4.193,13.744 C3.369,11.128 4.002,8.161 6.065,6.098 C8.121,4.041 11.077,3.406 13.689,4.218 C14.947,1.757 17.507,0.081 20.447,0.081 Z M4.203,13.739 L4.193,13.744 L4.197,13.758 L4.201,13.749 L4.207,13.737 L4.203,13.739 L4.203,13.739 Z M36.726,13.737 L36.731,13.746 L36.733,13.739 L36.728,13.737 L36.726,13.736 L36.726,13.737 L36.726,13.737 Z" id="Shape" fill="#FF9900" sketch:type="MSShapeGroup"></path>
            <g id="Page-1" transform="translate(2.000000, 2.000000)" sketch:type="MSShapeGroup">
                <path d="M0.229,18.494 L0.229,22.096 L0.229,34.396 C0.229,36.052 1.573,37.398 3.23,37.398 L33.707,37.398 C35.366,37.398 36.708,36.054 36.708,34.396 L36.708,22.096 L36.708,18.543 C36.708,15.587 34.422,13.213 31.55,13.072 C33.452,10.94 33.38,7.669 31.334,5.623 C29.284,3.573 26.002,3.505 23.871,5.42 C23.741,2.536 21.363,0.238 18.447,0.238 C15.54,0.238 13.167,2.523 13.025,5.395 C10.893,3.506 7.631,3.582 5.59,5.623 C3.544,7.669 3.473,10.941 5.375,13.073 C2.508,13.22 0.229,15.591 0.229,18.494 L0.229,18.494 Z" id="back" fill="#000000"></path>
                <path d="M34.998,29.811 L34.998,22.195 C34.998,21.22 34.207,20.429 33.232,20.429 L3.705,20.429 C2.728,20.429 1.94,21.22 1.94,22.195 L1.94,26.52 C5.907,26.707 12.023,27.059 18.362,27.666 C24.214,28.227 30.484,29.116 34.998,29.811 L34.998,29.811 Z" id="Rectangle-22" fill="#525252"></path>
                <path d="M2.866,18.506 L2.866,18.48 C2.866,16.889 4.155,15.6 5.746,15.6 C6.515,15.6 7.213,15.901 7.729,16.392 L13.516,16.392 L9.45,12.326 C8.736,12.31 8.026,12.029 7.48,11.483 C6.355,10.359 6.355,8.535 7.48,7.411 C8.605,6.286 10.428,6.286 11.553,7.411 C12.096,7.954 12.377,8.661 12.395,9.374 L16.452,13.431 L16.452,7.641 C15.958,7.124 15.655,6.424 15.655,5.652 C15.655,4.062 16.944,2.772 18.535,2.772 C20.125,2.772 21.415,4.062 21.415,5.652 C21.415,6.421 21.113,7.12 20.623,7.636 L20.623,13.462 L24.704,9.381 C24.72,8.666 25.001,7.956 25.546,7.411 C26.671,6.286 28.494,6.286 29.619,7.411 C30.744,8.535 30.744,10.359 29.619,11.483 C29.075,12.027 28.369,12.308 27.656,12.326 L23.585,16.397 L29.377,16.397 C29.894,15.903 30.595,15.6 31.366,15.6 C32.957,15.6 34.246,16.889 34.246,18.48 L34.246,18.506 L2.866,18.506 L2.866,18.506 Z" id="flower" fill="#FFFFFF"></path>
                <g id="SVG" transform="translate(4.000000, 19.000000)">
                    <g id="fill" fill="#FFFFFF">
                        <path d="M5.148,10.302 C2.692,10.303 0.344,8.172 0.344,5.58 C0.344,2.986 2.446,0.883 5.04,0.883 C7.634,0.883 9.737,2.986 9.737,5.58 L7.119,5.58 C7.119,4.431 6.188,3.501 5.04,3.501 C3.892,3.501 2.961,4.431 2.961,5.58 C2.961,6.594 3.767,7.682 5.04,7.682 C7.865,7.682 9.737,9.785 9.737,12.379 C9.737,14.972 7.634,17.075 5.04,17.075 C2.446,17.075 0.344,14.972 0.344,12.379 L2.961,12.379 C2.961,13.527 3.892,14.458 5.04,14.458 C6.188,14.458 7.119,13.527 7.119,12.379 C7.119,11.271 6.486,10.302 5.148,10.302 L5.148,10.302 Z" id="Oval-32-Copy"></path>
                        <path d="M9.933,1.009 L13.174,16.944 L15.73,16.944 L19.118,1.006 L16.563,1.006 L14.525,10.865 L12.474,1.006 L9.933,1.009 L9.933,1.009 Z" id="Path-169"></path>
                        <path d="M19.272,5.376 C19.382,2.876 21.442,0.883 23.968,0.883 C26.526,0.883 28.607,2.929 28.663,5.474 L26.044,5.474 C25.989,4.375 25.081,3.501 23.968,3.501 C22.888,3.501 22.001,4.323 21.899,5.376 L21.9,12.464 C22.008,13.51 22.893,14.326 23.968,14.326 C25.026,14.326 25.899,13.535 26.03,12.513 L26.014,10.259 L24.018,10.259 L24.018,7.71 L28.663,7.71 L28.663,12.513 C28.519,14.983 26.472,16.944 23.968,16.944 C21.484,16.944 19.45,15.015 19.282,12.574 L19.272,5.376 L19.272,5.376 Z" id="Rectangle-23"></path>
                    </g>
                    <g id="outline" fill="#000000">
                        <path d="M5.148,10.204 C2.683,10.205 0.442,8.057 0.442,5.58 C0.442,3.04 2.501,0.981 5.04,0.981 C7.58,0.981 9.639,3.181 9.639,5.482 L7.217,5.482 C7.217,4.45 6.354,3.403 5.04,3.403 C3.838,3.403 2.863,4.377 2.863,5.58 C2.863,6.744 3.8,7.78 5.04,7.78 C7.73,7.78 9.639,9.756 9.639,12.379 C9.639,14.918 7.58,16.977 5.04,16.977 C2.501,16.977 0.442,14.746 0.442,12.48 L2.863,12.48 C2.863,13.484 3.838,14.556 5.04,14.556 C6.243,14.556 7.217,13.581 7.217,12.379 C7.217,11.105 6.446,10.204 5.148,10.204 L5.148,10.204 Z M5.148,10.401 C6.331,10.4 7.021,11.207 7.021,12.379 C7.021,13.473 6.134,14.36 5.04,14.36 C3.946,14.36 3.059,13.473 3.059,12.379 L3.059,12.281 L0.246,12.281 L0.246,12.379 C0.246,15.027 2.392,17.173 5.04,17.173 C7.688,17.173 9.835,15.027 9.835,12.379 C9.835,9.649 7.84,7.584 5.04,7.584 C3.913,7.584 3.059,6.64 3.059,5.58 C3.059,4.486 3.946,3.599 5.04,3.599 C6.134,3.599 7.021,4.485 7.021,5.674 L9.835,5.674 C9.835,2.933 7.688,0.785 5.04,0.785 C2.392,0.785 0.246,2.932 0.246,5.58 C0.246,8.167 2.577,10.401 5.148,10.401 L5.148,10.401 Z" id="Shape"></path>
                        <path d="M9.933,1.009 L13.174,16.944 L15.73,16.944 L19.118,1.006 L16.563,1.006 L14.525,10.865 L12.474,1.006 L9.933,1.009 L9.933,1.009 Z M13.014,17.14 L9.693,0.813 L12.634,0.81 L14.538,9.863 L16.404,0.81 L19.36,0.81 L15.889,17.14 L13.014,17.14 L13.014,17.14 Z" id="Shape1"></path>
                        <path d="M19.272,5.376 L19.282,12.574 C19.45,15.015 21.484,16.944 23.968,16.944 C26.472,16.944 28.519,14.983 28.663,12.513 L28.663,7.71 L24.018,7.71 L24.018,10.259 L26.014,10.259 L26.03,12.513 C25.899,13.535 25.026,14.326 23.968,14.326 C22.893,14.326 22.008,13.51 21.9,12.464 L21.899,5.376 C22.001,4.323 22.888,3.501 23.968,3.501 C25.081,3.501 25.989,4.375 26.044,5.474 L28.663,5.474 C28.607,2.929 26.526,0.883 23.968,0.883 C21.442,0.883 19.382,2.876 19.272,5.376 L19.272,5.376 Z M19.076,5.376 L19.077,5.367 C19.191,2.755 21.345,0.687 23.968,0.687 C26.629,0.687 28.801,2.814 28.859,5.47 L28.864,5.67 L25.858,5.67 L25.848,5.484 C25.798,4.485 24.972,3.697 23.968,3.697 C22.997,3.697 22.187,4.435 22.095,5.376 L22.095,12.443 C22.194,13.398 23.001,14.13 23.968,14.13 C24.918,14.13 25.716,13.422 25.835,12.488 L25.833,10.455 L23.822,10.455 L23.822,7.514 L28.859,7.514 L28.859,12.524 C28.708,15.109 26.566,17.14 23.968,17.14 C21.392,17.14 19.263,15.143 19.086,12.574 L19.076,5.376 L19.076,5.376 Z" id="Shape2"></path>
                    </g>
                </g>
            </g>
        </g>
    </g>
</svg>