<?xml version="1.0" encoding="UTF-8" standalone="no"?>
<svg width="89px" height="61px" viewBox="0 0 89 61" version="1.1" xmlns="http://www.w3.org/2000/svg" xmlns:xlink="http://www.w3.org/1999/xlink" xmlns:sketch="http://www.bohemiancoding.com/sketch/ns">
    <!-- Generator: Sketch 3.5.1 (25234) - http://www.bohemiancoding.com/sketch -->
    <title>terminal</title>
    <desc>Created with Sketch.</desc>
    <defs>
        <filter x="-50%" y="-50%" width="200%" height="200%" filterUnits="objectBoundingBox" id="filter-1">
            <feGaussianBlur stdDeviation="5.08961397" in="SourceGraphic" result="blur"></feGaussianBlur>
        </filter>
        <linearGradient x1="50%" y1="0%" x2="50%" y2="100%" id="linearGradient-2">
            <stop stop-color="#D1D1D1" offset="0%"></stop>
            <stop stop-color="#848484" offset="100%"></stop>
        </linearGradient>
    </defs>
    <g id="Page-1" stroke="none" stroke-width="1" fill="none" fill-rule="evenodd" sketch:type="MSPage">
        <g id="shadow" sketch:type="MSLayerGroup" transform="translate(5.255840, 30.085649)" fill-opacity="0.100000001" filter="url(#filter-1)" fill="#000000">
            <path d="M38.7430474,22.8253612 C60.1402416,22.8253612 77.4860948,17.7157301 77.4860948,11.4126806 C77.4860948,5.10963116 60.1402416,0 38.7430474,0 C17.3458532,0 0,5.10963116 0,11.4126806 C0,17.7157301 17.3458532,22.8253612 38.7430474,22.8253612 Z" id="Oval-15" sketch:type="MSShapeGroup"></path>
        </g>
        <g id="terminal" sketch:type="MSLayerGroup" transform="translate(20.347608, 7.710789)">
            <g id="Rectangle-6-+-Rectangle-7" sketch:type="MSShapeGroup">
                <rect id="Rectangle-7" fill="url(#linearGradient-2)" x="0" y="0" width="47.2274744" height="39.7942153" rx="1"></rect>
                <rect id="Rectangle-6" fill="#282828" x="4.26237713" y="3.66921627" width="39.1699982" height="31.6200008" rx="1"></rect>
                <path d="M43.4323753,12.1707119 L43.4323753,34.290669 C43.4323753,34.8421519 42.9924779,35.2892171 42.4247601,35.2892171 L5.26999234,35.2892171 C4.71350183,35.2892171 4.26237713,34.8422268 4.26237713,34.290669 L4.26237713,27.3517588 L43.4323753,12.1707119 L43.4323753,12.1707119 Z" id="Rectangle-6" fill="#000000"></path>
                <rect id="Rectangle-6" stroke="#717171" x="4.26237713" y="3.66921627" width="39.1699982" height="31.6200008"></rect>
            </g>
            <path d="M16.6467711,14.0058391 L29.355732,19.797254 L16.6467711,25.7517003 L16.6467711,28.8376055 L32.7835971,21.3123582 L32.7835971,18.2711044 L16.6467711,10.7376051 L16.6467711,14.0058391 Z" id="Path-81" fill="#CAD8E9" sketch:type="MSShapeGroup"></path>
        </g>
        <g id="SLICES" sketch:type="MSLayerGroup" transform="translate(0.000000, -92.000000)"></g>
    </g>
</svg>