<?xml version="1.0" encoding="UTF-8" standalone="no"?>
<svg width="89px" height="61px" viewBox="0 0 89 61" version="1.1" xmlns="http://www.w3.org/2000/svg" xmlns:xlink="http://www.w3.org/1999/xlink" xmlns:sketch="http://www.bohemiancoding.com/sketch/ns">
    <!-- Generator: Sketch 3.5.1 (25234) - http://www.bohemiancoding.com/sketch -->
    <title>uiux</title>
    <desc>Created with Sketch.</desc>
    <defs>
        <filter x="-50%" y="-50%" width="200%" height="200%" filterUnits="objectBoundingBox" id="filter-1">
            <feGaussianBlur stdDeviation="5.08961397" in="SourceGraphic" result="blur"></feGaussianBlur>
        </filter>
    </defs>
    <g id="Page-1" stroke="none" stroke-width="1" fill="none" fill-rule="evenodd" sketch:type="MSPage">
        <g id="shadow" sketch:type="MSLayerGroup" transform="translate(5.255840, 30.558954)" fill-opacity="0.100000001" filter="url(#filter-1)" fill="#000000">
            <path d="M38.7430474,22.8253612 C60.1402416,22.8253612 77.4860948,17.7157301 77.4860948,11.4126806 C77.4860948,5.10963116 60.1402416,0 38.7430474,0 C17.3458532,0 0,5.10963116 0,11.4126806 C0,17.7157301 17.3458532,22.8253612 38.7430474,22.8253612 Z" id="Oval-15" sketch:type="MSShapeGroup"></path>
        </g>
        <g id="uiux" sketch:type="MSLayerGroup" transform="translate(9.984760, 9.553711)">
            <path d="M0.629244911,17.5300235 C0.629244911,7.94952064 8.83180815,0.184966062 18.9522168,0.184966062 C29.0726254,0.184966062 37.2751887,7.94952064 37.2751887,17.5300235 C37.2751887,27.1105263 29.0726254,34.8750809 18.9522168,34.8750809 C8.83180815,34.8750809 0.629244911,27.1105263 0.629244911,17.5300235" id="Path" fill="#5767A2" sketch:type="MSShapeGroup"></path>
            <path d="M29.8548187,17.5300235 C29.8548187,7.94952064 38.0573819,0.184966062 48.1777905,0.184966062 C58.2981992,0.184966062 66.5007624,7.94952064 66.5007624,17.5300235 C66.5007624,27.1105263 58.2981992,34.8750809 48.1777905,34.8750809 C38.0573819,34.8750809 29.8548187,27.1105263 29.8548187,17.5300235" id="Path" fill="#18A748" sketch:type="MSShapeGroup"></path>
            <path d="M21.2840962,9.74260847 C21.2001911,9.79419044 21.0741956,9.80797603 20.8889328,9.80797603 L19.5593444,9.80797603 L19.5593444,20.3051866 C19.5593444,24.6403812 18.4242197,27.0510141 13.5490622,27.0510141 C8.67842716,27.0510141 7.53877996,24.6403812 7.53877996,20.3051866 L7.53877996,9.80797603 L6.21371398,9.80797603 C5.77051784,9.80797603 5.66650243,9.72908259 5.66650243,9.24257304 L5.66650243,7.77866141 C5.66650243,7.29215186 5.77051784,7.20887545 6.21371398,7.20887545 L11.934562,7.20887545 C12.4229822,7.20887545 12.5405649,7.29215186 12.5405649,7.77866141 L12.5405649,9.24257304 C12.5405649,9.72908259 12.4229822,9.80797603 11.934562,9.80797603 L10.487391,9.80797603 L10.487391,20.3051866 C10.487391,22.4221606 10.6321081,24.446654 13.5490622,24.446654 C16.4705387,24.446654 16.6107334,22.4221606 16.6107334,20.3051866 L16.6107334,9.80797603 L15.1680848,9.80797603 C14.6796646,9.80797603 14.5620819,9.72908259 14.5620819,9.24257304 L14.5620819,7.77866141 C14.5620819,7.29215186 14.6796646,7.20887545 15.1680848,7.20887545 L20.8889328,7.20887545 C21.0741956,7.20887545 21.2001911,7.22342691 21.2840962,7.27590032 C21.3680014,7.22342691 21.4939968,7.20887545 21.6792596,7.20887545 L27.282525,7.20887545 C27.7257211,7.20887545 27.8297365,7.29215186 27.8297365,7.77866141 L27.8297365,9.24257304 C27.8297365,9.72908259 27.7257211,9.80797603 27.282525,9.80797603 L25.9529366,9.80797603 L25.9529366,24.446654 L27.282525,24.446654 C27.7257211,24.446654 27.8297365,24.530807 27.8297365,25.0168783 L27.8297365,26.4807899 C27.8297365,26.9668611 27.7257211,27.0510141 27.282525,27.0510141 L21.6792596,27.0510141 C21.2360635,27.0510141 21.132048,26.9668611 21.132048,26.4807899 L21.132048,25.0168783 C21.132048,24.530807 21.2360635,24.446654 21.6792596,24.446654 L23.0043256,24.446654 L23.0043256,9.80797603 L21.6792596,9.80797603 C21.4939968,9.80797603 21.3680014,9.79419044 21.2840962,9.74260847 Z" id="Fill-3" fill-opacity="0.300000012" fill="#FFFFFF" sketch:type="MSShapeGroup"></path>
            <path d="M23.1232725,10.6608342 C23.0393673,10.7124162 22.9133719,10.7262018 22.7281091,10.7262018 L21.3985207,10.7262018 L21.3985207,21.2234124 C21.3985207,25.558607 20.2633959,27.9692399 15.3882385,27.9692399 C10.5176034,27.9692399 9.37795623,25.558607 9.37795623,21.2234124 L9.37795623,10.7262018 L8.05289025,10.7262018 C7.60969411,10.7262018 7.5056787,10.6473083 7.5056787,10.1607988 L7.5056787,8.69688715 C7.5056787,8.2103776 7.60969411,8.12710119 8.05289025,8.12710119 L13.7737383,8.12710119 C14.2621585,8.12710119 14.3797412,8.2103776 14.3797412,8.69688715 L14.3797412,10.1607988 C14.3797412,10.6473083 14.2621585,10.7262018 13.7737383,10.7262018 L12.3265672,10.7262018 L12.3265672,21.2234124 C12.3265672,23.3403864 12.4712843,25.3648797 15.3882385,25.3648797 C18.309715,25.3648797 18.4499097,23.3403864 18.4499097,21.2234124 L18.4499097,10.7262018 L17.0072611,10.7262018 C16.5188409,10.7262018 16.4012582,10.6473083 16.4012582,10.1607988 L16.4012582,8.69688715 C16.4012582,8.2103776 16.5188409,8.12710119 17.0072611,8.12710119 L22.7281091,8.12710119 C22.9133719,8.12710119 23.0393673,8.14165265 23.1232725,8.19412606 C23.2071777,8.14165265 23.3331731,8.12710119 23.5184359,8.12710119 L29.1217013,8.12710119 C29.5648974,8.12710119 29.6689128,8.2103776 29.6689128,8.69688715 L29.6689128,10.1607988 C29.6689128,10.6473083 29.5648974,10.7262018 29.1217013,10.7262018 L27.7921129,10.7262018 L27.7921129,25.3648797 L29.1217013,25.3648797 C29.5648974,25.3648797 29.6689128,25.4490327 29.6689128,25.935104 L29.6689128,27.3990156 C29.6689128,27.8850869 29.5648974,27.9692399 29.1217013,27.9692399 L23.5184359,27.9692399 C23.0752397,27.9692399 22.9712243,27.8850869 22.9712243,27.3990156 L22.9712243,25.935104 C22.9712243,25.4490327 23.0752397,25.3648797 23.5184359,25.3648797 L24.8435019,25.3648797 L24.8435019,10.7262018 L23.5184359,10.7262018 C23.3331731,10.7262018 23.2071777,10.7124162 23.1232725,10.6608342 Z" id="Fill-3-Copy" fill="#FFFFFF" sketch:type="MSShapeGroup"></path>
            <path d="M51.129229,12.5626533 L50.1033586,12.5626533 L50.1033586,23.0598639 C50.1033586,27.3950584 49.0330317,29.8056914 44.4356829,29.8056914 C39.8379126,29.8056914 38.7684285,27.3950584 38.7684285,23.0598639 L38.7684285,12.5626533 L37.5164831,12.5626533 C37.0993085,12.5626533 37.0023891,12.4837598 37.0023891,11.9972503 L37.0023891,10.5333386 C37.0023891,10.0468291 37.0993085,9.96355267 37.5164831,9.96355267 L42.9102564,9.96355267 C43.3737837,9.96355267 43.4833448,10.0468291 43.4833448,10.5333386 L43.4833448,11.9972503 C43.4833448,12.4837598 43.3737837,12.5626533 42.9102564,12.5626533 L41.5491714,12.5626533 L41.5491714,23.0598639 C41.5491714,25.1768379 41.6840157,27.2013312 44.4356829,27.2013312 C47.18735,27.2013312 47.3217729,25.1768379 47.3217729,23.0598639 L47.3217729,12.5626533 L45.9611093,12.5626533 C45.497582,12.5626533 45.3880209,12.4837598 45.3880209,11.9972503 L45.3880209,10.5333386 C45.3880209,10.0468291 45.497582,9.96355267 45.9611093,9.96355267 L51.129229,9.96355267 L54.241394,9.96355267 C54.5827187,9.96355267 54.608002,9.99423345 54.7769788,10.344871 L56.4958227,14.1975007 C56.7612974,14.8198823 56.9762056,15.7709865 57.1700443,16.5117083 L57.2206109,16.5117083 C57.3891663,15.7709865 57.6546411,14.7892015 57.8990465,14.1975007 L59.6183117,10.344871 C59.7864457,9.99423345 59.8121504,9.96355267 60.1496826,9.96355267 L63.4908723,9.96355267 C63.8279831,9.96355267 63.8996192,10.0468291 63.8996192,10.4237644 L63.8996192,12.1024415 C63.8996192,12.4837598 63.8279831,12.5626533 63.4908723,12.5626533 L62.1592845,12.5626533 L58.9145928,19.2729787 L62.5933147,27.2013312 L63.8785498,27.2013312 C64.2156606,27.2013312 64.2872966,27.2854842 64.2872966,27.6619813 L64.2872966,29.3450413 C64.2872966,29.7215384 64.2156606,29.8056914 63.8785498,29.8056914 L60.6085747,29.8056914 C60.2213187,29.8056914 60.1998279,29.7215384 60.0523419,29.4239348 L57.8990465,24.7078602 C57.7052077,24.2651803 57.3428136,23.2220337 57.2206109,22.6303329 L57.1700443,22.6303329 C57.0731249,23.2220337 56.6896614,24.2651803 56.4958227,24.7078602 L54.3383134,29.4239348 C54.1950413,29.7215384 54.1693366,29.8056914 53.7816591,29.8056914 L50.515898,29.8056914 C50.1749947,29.8056914 50.1033586,29.7215384 50.1033586,29.3450413 L50.1033586,27.6619813 C50.1033586,27.2854842 50.1749947,27.2013312 50.515898,27.2013312 L51.7973405,27.2013312 L55.4760624,19.2729787 L52.2355846,12.5626533 L51.129229,12.5626533 Z" id="Path" fill-opacity="0.300000012" fill="#FFFFFF" sketch:type="MSShapeGroup"></path>
            <path d="M50.213728,10.7262018 L49.1878577,10.7262018 L49.1878577,21.2234124 C49.1878577,25.558607 48.1175308,27.9692399 43.5201819,27.9692399 C38.9224116,27.9692399 37.8529275,25.558607 37.8529275,21.2234124 L37.8529275,10.7262018 L36.6009822,10.7262018 C36.1838075,10.7262018 36.0868882,10.6473083 36.0868882,10.1607988 L36.0868882,8.69688715 C36.0868882,8.2103776 36.1838075,8.12710119 36.6009822,8.12710119 L41.9947554,8.12710119 C42.4582828,8.12710119 42.5678438,8.2103776 42.5678438,8.69688715 L42.5678438,10.1607988 C42.5678438,10.6473083 42.4582828,10.7262018 41.9947554,10.7262018 L40.6336705,10.7262018 L40.6336705,21.2234124 C40.6336705,23.3403864 40.7685148,25.3648797 43.5201819,25.3648797 C46.271849,25.3648797 46.406272,23.3403864 46.406272,21.2234124 L46.406272,10.7262018 L45.0456084,10.7262018 C44.582081,10.7262018 44.47252,10.6473083 44.47252,10.1607988 L44.47252,8.69688715 C44.47252,8.2103776 44.582081,8.12710119 45.0456084,8.12710119 L50.213728,8.12710119 L53.3258931,8.12710119 C53.6672178,8.12710119 53.6925011,8.15778197 53.8614779,8.50841949 L55.5803217,12.3610492 C55.8457965,12.9834308 56.0607046,13.934535 56.2545434,14.6752568 L56.30511,14.6752568 C56.4736654,13.934535 56.7391402,12.95275 56.9835455,12.3610492 L58.7028107,8.50841949 C58.8709448,8.15778197 58.8966495,8.12710119 59.2341817,8.12710119 L62.5753714,8.12710119 C62.9124822,8.12710119 62.9841182,8.2103776 62.9841182,8.58731293 L62.9841182,10.26599 C62.9841182,10.6473083 62.9124822,10.7262018 62.5753714,10.7262018 L61.2437836,10.7262018 L57.9990919,17.4365272 L61.6778138,25.3648797 L62.9630488,25.3648797 C63.3001596,25.3648797 63.3717957,25.4490327 63.3717957,25.8255298 L63.3717957,27.5085898 C63.3717957,27.8850869 63.3001596,27.9692399 62.9630488,27.9692399 L59.6930738,27.9692399 C59.3058177,27.9692399 59.2843269,27.8850869 59.1368409,27.5874833 L56.9835455,22.8714087 C56.7897068,22.4287288 56.4273127,21.3855822 56.30511,20.7938814 L56.2545434,20.7938814 C56.157624,21.3855822 55.7741604,22.4287288 55.5803217,22.8714087 L53.4228124,27.5874833 C53.2795403,27.8850869 53.2538356,27.9692399 52.8661582,27.9692399 L49.600397,27.9692399 C49.2594937,27.9692399 49.1878577,27.8850869 49.1878577,27.5085898 L49.1878577,25.8255298 C49.1878577,25.4490327 49.2594937,25.3648797 49.600397,25.3648797 L50.8818396,25.3648797 L54.5605615,17.4365272 L51.3200836,10.7262018 L50.213728,10.7262018 Z" id="Path-Copy" fill="#FFFFFF" sketch:type="MSShapeGroup"></path>
        </g>
        <g id="SLICES" sketch:type="MSLayerGroup"></g>
    </g>
</svg>