<?xml version="1.0" encoding="UTF-8" standalone="no"?>
<svg width="88px" height="61px" viewBox="0 0 88 61" version="1.1" xmlns="http://www.w3.org/2000/svg" xmlns:xlink="http://www.w3.org/1999/xlink" xmlns:sketch="http://www.bohemiancoding.com/sketch/ns">
    <!-- Generator: Sketch 3.5.1 (25234) - http://www.bohemiancoding.com/sketch -->
    <title>yeoman</title>
    <desc>Created with Sketch.</desc>
    <defs>
        <filter x="-50%" y="-50%" width="200%" height="200%" filterUnits="objectBoundingBox" id="filter-1">
            <feGaussianBlur stdDeviation="5.08961397" in="SourceGraphic" result="blur"></feGaussianBlur>
        </filter>
    </defs>
    <g id="Page-1" stroke="none" stroke-width="1" fill="none" fill-rule="evenodd" sketch:type="MSPage">
        <g id="shadow" sketch:type="MSLayerGroup" transform="translate(5.255840, 30.752500)" fill-opacity="0.100000001" filter="url(#filter-1)" fill="#000000">
            <path d="M38.7430474,22.8253612 C60.1402416,22.8253612 77.4860948,17.7157301 77.4860948,11.4126806 C77.4860948,5.10963116 60.1402416,0 38.7430474,0 C17.3458532,0 0,5.10963116 0,11.4126806 C0,17.7157301 17.3458532,22.8253612 38.7430474,22.8253612 Z" id="Oval-15" sketch:type="MSShapeGroup"></path>
        </g>
        <g id="yeoman" sketch:type="MSLayerGroup" transform="translate(27.201098, 4.693926)">
            <g id="ear-+-ear" transform="translate(0.320464, 16.781547)" sketch:type="MSShapeGroup">
                <g id="ear" transform="translate(21.603563, 0.051598)">
                    <path d="M5.40892524,9.16848565 C8.39619217,9.16848565 10.8178505,7.11605023 10.8178505,4.58424282 C10.8178505,2.05243542 8.39619217,0 5.40892524,0 C2.42165832,0 0,2.05243542 0,4.58424282 C0,7.11605023 2.42165832,9.16848565 5.40892524,9.16848565 Z" id="Oval-8" fill="#E9A84D"></path>
                    <path d="M8.64005812,6.23360003 C9.60266998,6.23360003 10.3830211,5.48972793 10.3830211,4.5721152 C10.3830211,3.65450246 9.60266998,2.91063036 8.64005812,2.91063036 C7.67744625,2.91063036 6.89709515,3.65450246 6.89709515,4.5721152 C6.89709515,5.48972793 7.67744625,6.23360003 8.64005812,6.23360003 Z" id="Oval-7" fill="#DF8829"></path>
                    <path d="M8.75745434,2.90892339 C8.75745434,2.90892339 7.94951453,3.33571068 7.94951452,4.56604695 C7.94951451,5.79638322 8.81387269,6.23189306 8.81387269,6.23189306 C8.81387269,6.23189306 6.89709515,6.23189306 6.89709515,4.58417143 C6.89709515,2.93644979 8.75745434,2.90892339 8.75745434,2.90892339 L8.75745434,2.90892339 Z" id="Path-102" fill="#BD5D12"></path>
                </g>
                <g id="ear" transform="translate(5.461392, 4.663321) scale(-1, 1) translate(-5.461392, -4.663321) translate(0.045557, 0.051598)">
                    <path d="M5.40892524,9.16848565 C8.39619217,9.16848565 10.8178505,7.11605023 10.8178505,4.58424282 C10.8178505,2.05243542 8.39619217,0 5.40892524,0 C2.42165832,0 0,2.05243542 0,4.58424282 C0,7.11605023 2.42165832,9.16848565 5.40892524,9.16848565 Z" id="Oval-8" fill="#E9A84D"></path>
                    <ellipse id="Oval-7" fill="#DF8829" cx="8.47982631" cy="4.5721152" rx="1.7109166" ry="1.66148483"></ellipse>
                    <path d="M8.42988844,2.90892339 C8.42988844,2.90892339 7.71475247,3.33571068 7.71475246,4.56604695 C7.71475246,5.79638322 8.47982631,6.23189306 8.47982631,6.23189306 C8.47982631,6.23189306 6.78321903,6.23189306 6.78321903,4.58417143 C6.78321903,2.93644979 8.42988844,2.90892339 8.42988844,2.90892339 L8.42988844,2.90892339 Z" id="Path-102" fill="#BD5D12"></path>
                </g>
            </g>
            <g id="faceCollar" transform="translate(4.935140, 18.446892)" sketch:type="MSShapeGroup">
                <path d="M1.31894522,23.4461341 C1.31894522,23.4461341 4.89180507,26.7361106 11.8443489,26.7361106 C18.7968927,26.7361106 22.056736,23.6379869 22.056736,23.6379869 L23.5930052,2.04801641e-15 L0,0 L1.31894522,23.4461341 Z" id="Path-105" fill="#F4CF8C"></path>
                <path d="M23.5222373,1.08887903 L23.5930052,2.04801641e-15 L0,0 L0.0612540981,1.08887903 L23.5222373,1.08887903 Z" id="Path-109" fill="#C58236"></path>
                <path d="M1.08957629,19.5357709 L1.32426474,23.5790044 C1.32426474,23.5790044 4.89712459,26.767497 11.8496684,26.767497 C18.8022122,26.767497 22.0620555,23.7649393 22.0620555,23.7649393 L22.3349418,19.6956604 C21.5016326,20.3489979 18.1028887,22.6685772 11.8514065,22.6685772 C5.67061844,22.6685772 2.04203592,20.2607518 1.08957629,19.5357709 Z" id="Path-107" fill="#DD2029"></path>
                <path d="M11.8544775,22.802408 C11.5412374,24.0198861 11.4725974,23.8054399 11.4725974,24.9909531 C11.4725974,26.1764663 11.8544775,26.797324 11.8544775,26.797324 C11.8544775,26.797324 12.2267436,26.1308021 12.2267436,24.9909531 C12.2267436,23.8511042 12.1749841,23.9858136 11.8544775,22.802408 Z" id="Path-108" fill="#050505"></path>
                <ellipse id="Oval-11" fill="#FFFFFF" cx="13.7750723" cy="25.020999" rx="0.586682368" ry="0.497232687"></ellipse>
                <path d="M9.48572297,11.6229202 C9.48572297,11.6229202 10.7234797,12.0462502 11.7794632,12.0462502 C12.8354468,12.0462502 14.085277,11.5933591 14.085277,11.5933591 C14.085277,11.5933591 13.4842853,12.6378509 11.9060113,12.6378509 C10.3277374,12.6378509 9.48572297,11.6229202 9.48572297,11.6229202 Z" id="Path-103" fill="#C07216"></path>
                <path d="M8.13977579,16.8287687 C8.13977579,16.8287687 10.1169856,17.5050019 11.8038285,17.5050019 C13.4906713,17.5050019 15.4871675,16.7815474 15.4871675,16.7815474 C15.4871675,16.7815474 14.527135,18.4500333 12.0059782,18.4500333 C9.48482135,18.4500333 8.13977579,16.8287687 8.13977579,16.8287687 Z" id="Path-101" fill="#C07216"></path>
            </g>
            <g id="hat" sketch:type="MSShapeGroup">
                <path d="M4.72923226,16.0402592 L3.08886424,5.3978879 C3.08886424,5.3978879 6.8785736,0.0488466482 16.6015012,0.00033614018 C26.3244288,-0.0481743679 30.1999975,5.3978879 30.1999975,5.3978879 L28.7773962,16.0402592 L4.72923226,16.0402592 Z" id="Path-83" fill="#050505"></path>
                <path d="M0.0207932394,15.8947277 L0.696908895,18.4609336 L32.3531322,18.4609336 L33.4603467,16.0417123 L0.0207932394,15.8947277 Z" id="Path-82" fill="#050505"></path>
                <path d="M4.61837145,15.9917487 L4.08761635,11.4402884 L29.4179316,11.4402884 L28.783432,15.9917487 L4.61837145,15.9917487 Z" id="Path-84" fill="#DD2029"></path>
                <g id="Oval-3-+-Oval-2" transform="translate(12.706682, 8.276343)">
                    <ellipse id="Oval-6" fill="#050505" cx="3.97374881" cy="3.97120588" rx="3.97374881" ry="3.97120588"></ellipse>
                    <ellipse id="Oval-5" fill="#DD2029" cx="3.98804287" cy="3.9854908" rx="3.55922106" ry="3.5569434"></ellipse>
                    <ellipse id="Oval-4" fill="#050505" cx="3.98804287" cy="3.9854908" rx="3.04463488" ry="3.04268652"></ellipse>
                    <ellipse id="Oval-3" fill="#DD2029" cx="3.98804287" cy="3.9854908" rx="2.61581307" ry="2.61413913"></ellipse>
                    <ellipse id="Oval-2" fill="#050505" cx="3.97374881" cy="3.97120588" rx="0.800467386" ry="0.799955142"></ellipse>
                    <path d="M3.89776124,2.77195582 L3.80442929,1.73585208 L4.21949492,1.74471754 L4.11772052,2.77561373 C4.07487544,2.771053 4.03136612,2.76871389 3.98731012,2.76871389 C3.95719249,2.76871389 3.92733034,2.76980705 3.89776124,2.77195582 Z M4.50178359,2.88239357 L4.94722363,1.92069724 L5.30224828,2.13590776 L4.68910241,2.99113531 C4.63029846,2.9495948 4.56764561,2.91313444 4.50178359,2.88239357 Z M5.19667467,3.84645757 L6.23173573,3.71666614 L6.23736125,4.13178831 L5.20185225,4.06594628 C5.2036059,4.03923091 5.20449652,4.01228009 5.20449652,3.98512137 C5.20449652,3.93823318 5.2018419,3.89196461 5.19667467,3.84645757 Z M4.96169955,3.25601077 L5.80296077,2.64148819 L6.00913619,3.00183492 L5.07746117,3.44346558 C5.04449652,3.37733277 5.00568376,3.31462243 4.96169955,3.25601077 Z M5.10119426,4.47628257 L6.06003214,4.88037914 L5.8573429,5.24269825 L4.99438531,4.66852071 C5.03551087,4.60811199 5.0713366,4.54381001 5.10119426,4.47628257 Z M4.68771004,4.98008958 L5.29733333,5.84597554 L4.93344323,6.04583064 L4.50002463,5.08866845 C4.56601027,5.05799848 4.62878596,5.02159177 4.68771004,4.98008958 Z M3.50296418,5.10141379 L3.09898115,6.05998226 L2.73666203,5.85729302 L3.30983355,4.99584743 C3.37055997,5.03657997 3.43515966,5.07199143 3.50296418,5.10141379 Z M4.13361602,5.19283161 L4.24493242,6.22637027 L3.82977529,6.22475006 L3.91296958,5.19929729 C3.93755999,5.20077787 3.9623473,5.20152885 3.98731012,5.20152885 C4.03682493,5.20152885 4.0856492,5.19857417 4.13361602,5.19283161 Z M2.98157586,4.67048625 L2.13256797,5.26822662 L1.93271287,4.90433651 L2.87419499,4.47801811 C2.90422329,4.54564424 2.94024119,4.61002441 2.98157586,4.67048625 Z M2.77472774,4.09165848 L1.72136116,4.18654546 L1.73022661,3.77147984 L2.77507737,3.87463189 C2.77179866,3.91102335 2.77012372,3.94787688 2.77012372,3.98512137 C2.77012372,4.02101814 2.77167964,4.05655173 2.77472774,4.09165848 Z M3.26406003,3.00664509 L2.63520125,2.17656984 L2.99189484,1.96413691 L3.45191828,2.89240197 C3.3856908,2.92487061 3.3228476,2.96317529 3.26406003,3.00664509 Z M2.86837079,3.5055569 L1.91802494,3.08535978 L2.12700665,2.72663326 L2.97363572,3.31151722 C2.93295219,3.37253965 2.89763897,3.43744431 2.86837079,3.5055569 Z M4.18968872,2.78545109 L4.35218619,1.74213003 L4.75277785,1.8511456 L4.39979811,2.84033989 C4.33232699,2.81605593 4.26209058,2.79755985 4.18968872,2.78545109 Z M4.74406776,3.03232895 L5.41628591,2.19783125 L5.70870067,2.49253733 L4.89978359,3.18005007 C4.85233415,3.12638022 4.80021721,3.07692831 4.74406776,3.03232895 Z M5.19629326,4.12710364 L6.22795118,4.25108397 L6.13298246,4.65523619 L5.15096336,4.34300043 C5.17234509,4.27348369 5.18766083,4.20131246 5.19629326,4.12710364 Z M5.10320236,3.49852724 L6.07214254,3.1041494 L6.18501791,3.50367064 L5.17256179,3.70711506 C5.15566731,3.63489849 5.1323349,3.56515675 5.10320236,3.49852724 Z M4.93172168,4.75256455 L5.73286793,5.3979169 L5.43816185,5.69033166 L4.77620505,4.91148331 C4.83274022,4.86335256 4.88481453,4.81014436 4.93172168,4.75256455 Z M4.42976226,5.11866804 L4.80595863,6.09121266 L4.4045283,6.19709823 L4.21848698,5.17961767 C4.29143863,5.16560049 4.36207331,5.14507449 4.42976226,5.11866804 Z M3.23823024,4.94396233 L2.62113378,5.76727222 L2.31861206,5.48295079 L3.07638231,4.7919376 C3.12557744,4.84736887 3.17976115,4.89827803 3.23823024,4.94396233 Z M3.83261823,5.19179816 L3.69276333,6.20582587 L3.29033011,6.10381819 L3.61427988,5.14334023 C3.68449257,5.16590728 3.75748717,5.18227493 3.83261823,5.19179816 Z M2.83992301,4.39211146 L1.87506548,4.76533435 L1.76917991,4.36390401 L2.78535631,4.17810115 C2.79712097,4.25185895 2.81552006,4.32340578 2.83992301,4.39211146 Z M2.78739025,3.77979958 L1.73787507,3.61633737 L1.84689064,3.21574572 L2.84247862,3.57100695 C2.81818835,3.63805891 2.79962849,3.7078534 2.78739025,3.77979958 Z M3.52652314,2.8589004 L3.11103464,1.88702509 L3.50852508,1.7671943 L3.73381321,2.7951316 C3.66218815,2.81029511 3.59288912,2.83175358 3.52652314,2.8589004 Z M3.02495502,3.24024266 L2.19521374,2.595406 L2.4847716,2.29789245 L3.1736997,3.08037932 C3.11949389,3.12909475 3.06968944,3.18260527 3.02495502,3.24024266 Z" id="Path-85" fill="#050505"></path>
                </g>
            </g>
            <g id="mouth" transform="translate(13.908121, 25.684735)" sketch:type="MSShapeGroup">
                <path d="M0,2.93307912 C0,2.93307912 1.37391888,3.77538069 2.86231238,3.77538069 C4.35070587,3.77538069 5.67767227,2.65073282 5.67767227,2.65073282 L5.67767227,2.11370636 L0.25585672,2.11370636 L0,2.93307912 Z" id="lip" fill="#DD2029"></path>
                <rect id="back" fill="#0A0605" x="0.320463614" y="0.768620494" width="5.03688277" height="1.74637822"></rect>
                <rect id="teeth" fill="#FFFFFF" x="0.320463614" y="0" width="5.03688277" height="1.74637822"></rect>
            </g>
            <path d="M19.8417207,25.5490656 L13.8358282,25.6032093 L13.6556063,21.0027035 C12.1190811,22.618169 9.90299929,22.2326589 9.90299929,22.2326589 C9.90299929,22.2326589 13.2944215,21.6802241 13.5456172,19.8541436 C13.5456173,19.4017477 13.4188455,19.3099572 11.9117828,19.3099572 C10.4047201,19.3099572 9.32771976,19.8469526 7.62703401,20.7589354 C8.49800244,19.6977402 10.3625747,18.8316527 11.9435316,18.8316527 C13.0114645,18.8316527 14.3147435,18.7874495 14.3457583,19.574647 L14.3619195,19.5532866 L14.5810784,23.6049688 L19.0046251,23.6049688 L19.1206041,19.9000224 C19.1762252,18.7908334 20.2940353,18.8316527 21.526342,18.8316527 C23.1072989,18.8316527 24.9718712,19.6977402 25.8428396,20.7589354 C24.1421538,19.8469526 23.0651535,19.3099572 21.5580908,19.3099572 C20.0510281,19.3099572 19.9242563,19.4017477 19.9242564,19.8541436 C20.1754522,21.6802241 23.5668743,22.2326589 23.5668743,22.2326589 C23.5668743,22.2326589 21.3770424,22.6136025 19.8417207,21.031281 L19.8417207,25.5490656 Z" id="Path-108" fill="#AA651A" sketch:type="MSShapeGroup"></path>
            <g id="mustache" transform="translate(0.000000, 23.442925)" fill="#4F1906" sketch:type="MSShapeGroup">
                <path d="M16.8805331,1.73917744 C15.0610128,0.500643582 13.43601,0.0181914398 11.0253357,0.0181914398 C7.47751719,0.0469945528 2.0278998,2.17804593 0.00715466302,7.42362338 C1.81952024,8.23465841 2.71921911,8.93123896 6.53176017,8.97899148 C12.6230614,8.97899148 15.7939186,5.43810353 16.8805331,1.73917744 Z" id="Path-97"></path>
                <path d="M33.4963436,1.73917744 C31.6768234,0.500643582 30.0518205,0.0181914398 27.6411463,0.0181914398 C24.0933277,0.0469945528 18.7581849,2.17804593 16.7374398,7.42362338 C18.5498054,8.23465841 19.3350297,8.93123896 23.1475707,8.97899148 C29.2388719,8.97899148 32.4097292,5.43810353 33.4963436,1.73917744 Z" id="Path-98" transform="translate(25.116892, 4.498591) scale(-1, 1) translate(-25.116892, -4.498591) "></path>
            </g>
        </g>
        <g id="SLICES" sketch:type="MSLayerGroup" transform="translate(0.000000, -174.000000)"></g>
    </g>
</svg>