<?xml version="1.0" encoding="utf-8"?>
<!-- Generator: Adobe Illustrator 16.0.4, SVG Export Plug-In . SVG Version: 6.00 Build 0)  -->
<!DOCTYPE svg PUBLIC "-//W3C//DTD SVG 1.1//EN" "http://www.w3.org/Graphics/SVG/1.1/DTD/svg11.dtd">
<svg version="1.1" id="Layer_1" xmlns="http://www.w3.org/2000/svg" xmlns:xlink="http://www.w3.org/1999/xlink" x="0px" y="0px"
	 width="612px" height="792px" viewBox="0 0 612 792" enable-background="new 0 0 612 792" xml:space="preserve">
<linearGradient id="SVGID_1_" gradientUnits="userSpaceOnUse" x1="381.7505" y1="512.2549" x2="339.9505" y2="438.4548">
	<stop  offset="0" style="stop-color:#F68F71"/>
	<stop  offset="0" style="stop-color:#F68F71"/>
	<stop  offset="0.41" style="stop-color:#DC5242"/>
	<stop  offset="0.99" style="stop-color:#A72C32"/>
	<stop  offset="1" style="stop-color:#A72C32"/>
</linearGradient>
<polygon fill-rule="evenodd" clip-rule="evenodd" fill="url(#SVGID_1_)" points="248.06,494.29 394.53,484.35 405.81,336.66 
	361.18,427.12 "/>
<linearGradient id="SVGID_2_" gradientUnits="userSpaceOnUse" x1="402.5747" y1="450.2666" x2="348.7058" y2="414.1173">
	<stop  offset="0" style="stop-color:#9B3F34"/>
	<stop  offset="0" style="stop-color:#9B3F34"/>
	<stop  offset="0.99" style="stop-color:#A23E36"/>
	<stop  offset="1" style="stop-color:#A23E36"/>
</linearGradient>
<polygon fill-rule="evenodd" clip-rule="evenodd" fill="url(#SVGID_2_)" points="347.89,442.64 394.77,484.25 382.18,397.36 "/>
<linearGradient id="SVGID_3_" gradientUnits="userSpaceOnUse" x1="359.4741" y1="514.4941" x2="305.6053" y2="478.3449">
	<stop  offset="0" style="stop-color:#9B3F34"/>
	<stop  offset="0" style="stop-color:#9B3F34"/>
	<stop  offset="0.99" style="stop-color:#A23E36"/>
	<stop  offset="1" style="stop-color:#A23E36"/>
</linearGradient>
<polygon fill-rule="evenodd" clip-rule="evenodd" fill="url(#SVGID_3_)" points="248.55,494.1 394.94,484.25 302.71,477.01 "/>
<linearGradient id="SVGID_4_" gradientUnits="userSpaceOnUse" x1="246.376" y1="424.1016" x2="254.727" y2="478.3745">
	<stop  offset="0" style="stop-color:#FFFFFF"/>
	<stop  offset="0" style="stop-color:#FFFFFF"/>
	<stop  offset="0.23" style="stop-color:#E28B6F"/>
	<stop  offset="0.46" style="stop-color:#DA6144"/>
	<stop  offset="0.99" style="stop-color:#A60003"/>
	<stop  offset="1" style="stop-color:#A60003"/>
</linearGradient>
<polygon fill-rule="evenodd" clip-rule="evenodd" fill="url(#SVGID_4_)" points="221.02,429.48 248.68,494.12 271.72,418.64 "/>
<linearGradient id="SVGID_5_" gradientUnits="userSpaceOnUse" x1="303.8125" y1="373.4209" x2="306.8895" y2="428.8109">
	<stop  offset="0" style="stop-color:#FFFFFF"/>
	<stop  offset="0" style="stop-color:#FFFFFF"/>
	<stop  offset="0.23" style="stop-color:#E08A6D"/>
	<stop  offset="0.56" style="stop-color:#C14435"/>
	<stop  offset="0.99" style="stop-color:#B13430"/>
	<stop  offset="1" style="stop-color:#B13430"/>
</linearGradient>
<polygon fill-rule="evenodd" clip-rule="evenodd" fill="url(#SVGID_5_)" points="266.01,416.72 347.88,442.89 326.68,359.85 "/>
<linearGradient id="SVGID_6_" gradientUnits="userSpaceOnUse" x1="354.7842" y1="322.2334" x2="363.9952" y2="361.9284">
	<stop  offset="0" style="stop-color:#FFFFFF"/>
	<stop  offset="0" style="stop-color:#FFFFFF"/>
	<stop  offset="0.18" style="stop-color:#DF8063"/>
	<stop  offset="0.4" style="stop-color:#C94D37"/>
	<stop  offset="0.99" style="stop-color:#B13430"/>
	<stop  offset="1" style="stop-color:#B13430"/>
</linearGradient>
<polygon fill-rule="evenodd" clip-rule="evenodd" fill="url(#SVGID_6_)" points="327.68,365.81 401,361.02 343.65,314.18 "/>
<linearGradient id="SVGID_7_" gradientUnits="userSpaceOnUse" x1="326.6562" y1="308.252" x2="366.3502" y2="288.4049">
	<stop  offset="0" style="stop-color:#FFFFFF"/>
	<stop  offset="0" style="stop-color:#FFFFFF"/>
	<stop  offset="0.54" style="stop-color:#C94838"/>
	<stop  offset="0.99" style="stop-color:#C12D2F"/>
	<stop  offset="1" style="stop-color:#C12D2F"/>
</linearGradient>
<polygon fill-rule="evenodd" clip-rule="evenodd" fill="url(#SVGID_7_)" points="319.17,297.23 374.18,297.48 340.45,316.12 "/>
<linearGradient id="SVGID_8_" gradientUnits="userSpaceOnUse" x1="211.584" y1="410.2651" x2="214.851" y2="442.9751">
	<stop  offset="0" style="stop-color:#FFFFFF"/>
	<stop  offset="0" style="stop-color:#FFFFFF"/>
	<stop  offset="0.31" style="stop-color:#DA6548"/>
	<stop  offset="0.99" style="stop-color:#C14433"/>
	<stop  offset="1" style="stop-color:#C14433"/>
</linearGradient>
<polygon fill-rule="evenodd" clip-rule="evenodd" fill="url(#SVGID_8_)" points="210.38,398.33 207.68,454.8 221.81,429.03 "/>
<path fill-rule="evenodd" clip-rule="evenodd" fill="#FFFFFF" d="M209.62,397.36l11.5,32.62l49.97-11.21l57.05-53.02l16.1-51.14
	l-25.35-17.9l-43.1,16.13c-13.58,12.63-39.93,37.62-40.88,38.09C233.97,351.41,217.51,382.52,209.62,397.36z"/>
<linearGradient id="SVGID_9_" gradientUnits="userSpaceOnUse" x1="189.1191" y1="451.8188" x2="342.6933" y2="293.9017">
	<stop  offset="0" style="stop-color:#BD0012"/>
	<stop  offset="0" style="stop-color:#BD0012"/>
	<stop  offset="0.07" style="stop-color:#FFFFFF"/>
	<stop  offset="0.17" style="stop-color:#FFFFFF"/>
	<stop  offset="0.27" style="stop-color:#C95841"/>
	<stop  offset="0.33" style="stop-color:#983734"/>
	<stop  offset="0.46" style="stop-color:#AE4231"/>
	<stop  offset="0.72" style="stop-color:#B93E2F"/>
	<stop  offset="0.99" style="stop-color:#DE4E2B"/>
	<stop  offset="1" style="stop-color:#DE4E2B"/>
</linearGradient>
<path fill-rule="evenodd" clip-rule="evenodd" fill="url(#SVGID_9_)" d="M250,338.76c29.43-29.18,67.37-46.42,81.93-31.73
	c14.55,14.69-0.88,50.39-30.31,79.56c-29.43,29.17-66.9,47.36-81.45,32.67C205.61,404.58,220.57,367.93,250,338.76z"/>
<linearGradient id="SVGID_10_" gradientUnits="userSpaceOnUse" x1="306.7568" y1="467.7432" x2="260.5028" y2="456.3273">
	<stop  offset="0" style="stop-color:#9F3633"/>
	<stop  offset="0" style="stop-color:#9F3633"/>
	<stop  offset="0.54" style="stop-color:#A73532"/>
	<stop  offset="0.99" style="stop-color:#B13439"/>
	<stop  offset="1" style="stop-color:#B13439"/>
</linearGradient>
<path fill-rule="evenodd" clip-rule="evenodd" fill="url(#SVGID_10_)" d="M248.68,494.09l22.86-75.72l75.92,24.39
	C320.01,468.5,289.48,490.26,248.68,494.09z"/>
<linearGradient id="SVGID_11_" gradientUnits="userSpaceOnUse" x1="386.2056" y1="412.2236" x2="345.1118" y2="375.3924">
	<stop  offset="0" style="stop-color:#923C36"/>
	<stop  offset="0" style="stop-color:#923C36"/>
	<stop  offset="0.99" style="stop-color:#AA3531"/>
	<stop  offset="1" style="stop-color:#AA3531"/>
</linearGradient>
<path fill-rule="evenodd" clip-rule="evenodd" fill="url(#SVGID_11_)" d="M328.24,365.6l19.49,77.2
	c22.93-24.11,43.51-50.03,53.59-82.09L328.24,365.6z"/>
<linearGradient id="SVGID_12_" gradientUnits="userSpaceOnUse" x1="401.3027" y1="344.647" x2="380.8327" y2="322.763">
	<stop  offset="0" style="stop-color:#8D3E36"/>
	<stop  offset="0" style="stop-color:#8D3E36"/>
	<stop  offset="0.99" style="stop-color:#AA3E37"/>
	<stop  offset="1" style="stop-color:#AA3E37"/>
</linearGradient>
<path fill-rule="evenodd" clip-rule="evenodd" fill="url(#SVGID_12_)" d="M401.12,361.1c7.8-23.54,9.6-57.31-27.18-63.58
	l-30.18,16.67L401.12,361.1z"/>
<path fill-rule="evenodd" clip-rule="evenodd" fill="#AA3E35" d="M207.68,454.46c1.08,38.85,29.11,39.43,41.05,39.77l-27.58-64.41
	L207.68,454.46z"/>
<radialGradient id="SVGID_13_" cx="351.5098" cy="376.1001" r="50.36" gradientUnits="userSpaceOnUse">
	<stop  offset="0" style="stop-color:#B13430"/>
	<stop  offset="0" style="stop-color:#B13430"/>
	<stop  offset="0.99" style="stop-color:#923934"/>
	<stop  offset="1" style="stop-color:#923934"/>
</radialGradient>
<path fill-rule="evenodd" clip-rule="evenodd" fill="url(#SVGID_13_)" d="M328.35,365.72c17.62,10.83,53.13,32.58,53.85,32.98
	c1.12,0.63,15.31-23.93,18.53-37.81L328.35,365.72z"/>
<radialGradient id="SVGID_14_" cx="281.77" cy="442.46" r="66.9469" gradientUnits="userSpaceOnUse">
	<stop  offset="0" style="stop-color:#AE3531"/>
	<stop  offset="0" style="stop-color:#AE3531"/>
	<stop  offset="0.99" style="stop-color:#953A36"/>
	<stop  offset="1" style="stop-color:#953A36"/>
</radialGradient>
<path fill-rule="evenodd" clip-rule="evenodd" fill="url(#SVGID_14_)" d="M271.51,418.37l30.56,58.96
	c18.07-9.8,32.22-21.74,45.18-34.53L271.51,418.37z"/>
<linearGradient id="SVGID_15_" gradientUnits="userSpaceOnUse" x1="234.3516" y1="494.0493" x2="217.6695" y2="437.4524">
	<stop  offset="0" style="stop-color:#994939"/>
	<stop  offset="0" style="stop-color:#994939"/>
	<stop  offset="0.43" style="stop-color:#AA3A36"/>
	<stop  offset="0.99" style="stop-color:#B83936"/>
	<stop  offset="1" style="stop-color:#B83936"/>
</linearGradient>
<path fill-rule="evenodd" clip-rule="evenodd" fill="url(#SVGID_15_)" d="M221.03,429.9l-4.33,51.56
	c8.17,11.16,19.41,12.13,31.2,11.26C239.37,471.49,222.33,429.04,221.03,429.9z"/>
<linearGradient id="SVGID_16_" gradientUnits="userSpaceOnUse" x1="362.3223" y1="306.5083" x2="399.7222" y2="323.0173">
	<stop  offset="0" style="stop-color:#B9392F"/>
	<stop  offset="0" style="stop-color:#B9392F"/>
	<stop  offset="0.44" style="stop-color:#A23A36"/>
	<stop  offset="0.99" style="stop-color:#8D463A"/>
	<stop  offset="1" style="stop-color:#8D463A"/>
</linearGradient>
<path fill-rule="evenodd" clip-rule="evenodd" fill="url(#SVGID_16_)" d="M343.58,314.32l60.71,8.52
	c-3.24-13.73-13.19-22.59-30.15-25.36L343.58,314.32z"/>
</svg>
