<?xml version="1.0" encoding="utf-8"?>
<!-- Generator: Adobe Illustrator 16.0.4, SVG Export Plug-In . SVG Version: 6.00 Build 0)  -->
<!DOCTYPE svg PUBLIC "-//W3C//DTD SVG 1.1//EN" "http://www.w3.org/Graphics/SVG/1.1/DTD/svg11.dtd">
<svg version="1.1" id="Layer_1" xmlns="http://www.w3.org/2000/svg" xmlns:xlink="http://www.w3.org/1999/xlink" x="0px" y="0px"
	 width="612px" height="792px" viewBox="0 0 612 792" enable-background="new 0 0 612 792" xml:space="preserve">
<g>
	<g>
		<path fill-rule="evenodd" clip-rule="evenodd" fill="#F15A29" d="M356.023,446.402
			C352.73,452.256,356.252,446.517,356.023,446.402L356.023,446.402z M405.065,429.941
			C405.065,430.284,406.151,429.747,405.065,429.941L405.065,429.941z M283.395,399.867c-0.357-0.036-0.662-0.067-0.836-0.085
			C282.708,399.798,282.98,399.825,283.395,399.867z M503.021,439.252c-3.45-16.568-16.871-26.04-32.095-32.156
			c-14.836-5.961-35.417-3.05-49.796,3.173c-2.409,1.043-4.338,1.53-4.338,1.53s-2.909-4.476-3.788-6.253
			c-1.864-3.771-3.447-7.699-4.399-11.805c-1.689-7.286-1.243-16.695,1.412-23.635c0.7-1.83,3.956-6.926,1.718-8.625
			c-2.089-1.586-5.459-1.775-7.957-1.964c-2.933-0.222-6.136-0.32-9.001,0.463c-5.592,1.528-5.508,4.041-7.104,9.179
			c-5.495,17.679-15.812,32.929-24.447,49.123c-5.265-1.581-6.554-16.821-6.531-21.012c0.024-4.61,0.772-9.209,2.073-13.626
			c0.851-2.891,2.386-6.262,2.027-9.338c-0.525-4.504-9.744-3.557-12.61-3.289c-5.961,0.558-9.12,1.464-11.243,7.761
			C326.75,409,301.04,461.915,298.409,462.864c-3.409-7.439,5.035-33.293,6.798-38.319c1.19-3.393,4.226-9.46,3.147-13.123
			c-1.904-6.487-8.636-3.435-13.031-2.743c0.756-5.472,1.837-12.479-0.649-17.664c-7.226-15.068-32.247,0.789-38.606,9.513
			c-1.948,2.672-4.278,5.521-7.852,8.341c-6.867,5.418-36.601,18.986-36.601,18.986s-12.051-11.709-16.433-15.403
			c-0.358-0.302-0.72-0.601-1.084-0.896c-6.27-5.084-13.36-9.254-19.645-14.722c-6.443-5.603-12.604-11.759-16.855-19.237
			c-9.795-17.231-2.426-31.811,6.424-47.145c3.324-5.759,6.917-7.651,10.035-11.683c2.249-2.908,7.696-7.469,11.522-10.23
			c15.426-11.136,31.504-20.192,47.81-28.098c9.727-4.716,19.945-8.361,30.257-11.563c9.429-2.927,18.655-3.596,28.289-4.888
			c14.758-1.979,36.645-0.139,46.81,12.317c11.307,13.856-0.703,34.271-10.014,45.725c-10.515,12.937-25.009,21.794-40.315,27.985
			c-16.636,6.729-35.918,11.679-53.803,7.217c-4.609-1.15-8.829-3.007-12.926-5.386c-1.875-1.089-6.878-6.529-8.224-6.069
			c-4.107,1.405,2.627,13.172,5.382,13.172c0,2.068,5.368,4.499,7.693,6.204c3.608,2.646,7.794,3.64,12.106,4.56
			c9.035,1.928,18.333,2.146,27.582,1.199c38.061-3.895,73.577-29.091,83.466-43.977c2.488-3.746,5.037-7.492,7.018-11.54
			c3.656-7.474,5.758-15.764,6.262-24.062c1.07-17.618-5.935-32.538-21.886-40.703c-3.962-2.028-8.104-3.685-12.268-5.247
			c-17.015-6.382-44.781-5.961-63.357-1.162c-9.486,2.451-18.37,5.368-27.633,8.91c-29.619,11.323-60.544,27.298-82.394,48.586
			c-9.437,9.194-18.566,20.585-24.639,32.251c-8.126,15.609-8.044,31.043,1.677,45.885c9.275,14.16,23.656,25.765,37.674,34.654
			c3.486,2.212,7.376,5.195,10.773,7.819c2.856,2.207,6.81,4.275,9.117,6.584c1.771,1.772,8.23,6.173,8.23,6.173
			s-11.579,7.295-14.643,8.84c-3.358,1.692-21.961,15.618-28.244,20.321c-11.434,8.559-20.647,23.233-18.087,38.703
			c2.623,15.854,16.182,26.896,39.453,20.814c17.156-4.483,27.925-14.203,38.062-26.956c6.846-8.612,11.579-26.203,9.182-37.716
			c0-5.598-0.434-9.904-2.435-15.155c-0.81-2.124-2.582-5.296-0.391-6.989c2.811-2.172,6.625-3.591,9.635-5.614
			c2.192-1.474,7.068-5.164,9.651-5.164c-0.086,4.48-1.852,9.543-2.721,13.979c-1.108,5.651-1.394,10.759-1.394,16.544
			c0.003,9.695,3.038,22.995,10.118,30.157c7.368,7.453,17.656,3.119,22.011-3.374c2.817-4.199,4.554-9.552,6.98-14.029
			c2.083-3.845,3.184-9.418,5.816-12.754c1.125,3.448,0.025,8.051,0.085,11.673c0.154,9.386,4.412,16.886,8.146,17.134
			c9.763,0.092,14.439-8.769,18.452-16.261c6.23-11.636,12.687-23.081,18.479-34.955c2.9-5.946,4.838-11.767,7.634-17.682
			c1.869-3.958,3.17-9.669,5.849-13.066c3.779,9.934,5.207,20.374,10.45,29.773c2.602,4.664-3.321,8.028-5.992,11.724
			c-3.413,4.721-7.447,8.934-11.247,13.335c-4.791,5.551-12.862,13.117-6.729,19.95c4.782,5.329,19.853,0.112,25.286-2.353
			c16.635-7.548,24.657-23.199,18.854-41.031c-0.452-1.39-1.049-2.948-2.157-3.963c4.225-7.562,9.193-14.833,11.692-19.362
			c2.327-4.216,9.516-19.391,11.285-19.391c1.158,5.765,4.647,16.339,9.603,27.436c-9.015,7.348-20.577,28.465-20.577,33.609
			c-1.785,6.426,0.129,15.167,8.585,14.691c7.375-0.416,19.488-6.414,24.504-11.914c2.911-3.192,8.048-7.328,9.713-13.52
			c1.217-4.523,0.559-9.426-0.565-13.896c-0.99-3.936-3.525-6.147,0.774-7.952c6.838-2.87,14.46-3.824,21.822-3.978
			c16.133-0.334,33.673,2.697,44.225,15.99c3.996,5.042,7.458,11.462,6.503,18.419c-0.514,3.741-3.023,7.767-5.525,10.503
			c-2.188,2.395-6.64,3.196-7.837,6.401c-1.03,0,2.265,1.347,3.769,0.988c1.524-0.363,2.837-1.189,4.129-2.038
			c2.718-1.786,4.647-2.418,6.692-4.788C502.34,456.17,504.621,446.933,503.021,439.252z M207.788,471.062
			c-2.431,7.097-6.155,13.704-11.374,19.128c-4.646,4.828-10.421,9.069-16.614,11.68c-17.447,7.354-26.044-1.661-18.57-16.372
			c3.724-7.316,8.335-14.207,14.373-19.846c5.453-5.093,11.085-7.602,16.255-11.635c4.409-3.439,16.7-9.673,16.7-9.673
			S210.907,461.957,207.788,471.062z M277.5,435.5c-3.535,8.845-9.446,24.918-14.553,29.98c-1.781,1.765-2.662,3.578-4.769,1.051
			c-1.096-1.314-1.674-3.033-2.082-4.667c-2.866-11.488-0.321-24.936,4.354-35.404c14.716-32.96,25.269-26.355,25.269-26.355
			C286.28,408.283,280.487,428.025,277.5,435.5z M338.19,468.008c0.849-3.139,5.861-6.858,7.98-9.284
			c3.454-3.955,7.258-7.708,9.853-12.321C361.294,449.038,345.35,470.5,338.19,468.008z M402.65,449.971
			c-2.318,2.695-11.709,9.397-10.629,2.284c0.796-5.241,4.128-9.707,6.871-14.083c1.708-2.726,6.173-6.682,6.173-8.23
			c0.633-0.082,1.204-0.312,1.715-0.687C409.343,436.288,407.477,444.359,402.65,449.971z"/>
	</g>
</g>
</svg>
