<svg width="89" height="60" viewBox="0 0 89 60" xmlns="http://www.w3.org/2000/svg"><title>angular</title><defs><filter x="-50%" y="-50%" width="200%" height="200%" filterUnits="objectBoundingBox" id="a"><feGaussianBlur stdDeviation="5.09" in="SourceGraphic" result="blur"/></filter></defs><g fill="none" fill-rule="evenodd"><path d="M38.743 22.825c21.397 0 38.743-5.11 38.743-11.412C77.486 5.11 60.14 0 38.743 0 17.346 0 0 5.11 0 11.413s17.346 11.412 38.743 11.412z" transform="translate(7 30)" fill-opacity=".1" filter="url(#a)" fill="#000"/><path d="M44.42 6L23 13.606l3.385 28.315 18.057 10.014 18.15-10.15 3.384-28.313L44.42 6z" id="Shape" fill="#D8D8D8"/><path d="M44.37 8.408v41.134l16.316-9.112 3.154-25.323-19.47-6.7z" id="Shape" fill="#B52E31"/><path d="M25.404 15.228l2.9 25.323 16.065 8.992V8.407l-18.966 6.82z" id="Shape" fill="#E23237"/><path d="M48.882 28.867l-4.477-9.434-3.942 9.434h8.42zm1.707 3.968H38.72l-2.655 6.7-4.94.093L44.37 9.902l13.705 29.726h-4.578l-2.908-6.793z" id="Shape" fill="#F2F2F2"/><path d="M44.37 9.902l.035 9.53 4.473 9.443h-4.5l-.01 3.953 6.22.006 2.908 6.795 4.726.087L44.37 9.902z" fill="#D3D3D3"/></g></svg>