<svg width="89" height="61" viewBox="0 0 89 61" xmlns="http://www.w3.org/2000/svg"><title>axure</title><defs><filter x="-50%" y="-50%" width="200%" height="200%" filterUnits="objectBoundingBox" id="a"><feGaussianBlur stdDeviation="5.09" in="SourceGraphic" result="blur"/></filter></defs><g fill="none" fill-rule="evenodd"><path d="M38.743 22.825c21.397 0 38.743-5.11 38.743-11.412C77.486 5.11 60.14 0 38.743 0 17.346 0 0 5.11 0 11.413s17.346 11.412 38.743 11.412z" transform="translate(6.719 30.753)" fill-opacity=".1" filter="url(#a)" fill="#000"/><path id="Rectangle-11" fill="#94CA44" d="M25.414 7.777h40.17v8.275h-40.17z"/><g id="Rectangle-11-+-Rectangle-11"><path id="Rectangle-11" fill="#049ADC" d="M25.44 19.406h11.843V46.97H25.44z"/><path id="Rectangle-11" fill="#F2208A" d="M41.082 19.406h24.303V46.97H41.082z"/></g><path d="M25.44 19.35h11.843v10.257L25.44 32.39V19.35z" id="Rectangle-11" fill="#32B1E2"/><path d="M41.082 19.35h24.19v3.742l-24.19 6.273V19.35z" fill="#FC339C"/></g></svg>