<?xml version="1.0" encoding="UTF-8" standalone="no"?>
<svg width="1166px" height="786px" viewBox="0 0 1166 786" version="1.1" xmlns="http://www.w3.org/2000/svg" xmlns:xlink="http://www.w3.org/1999/xlink" xmlns:sketch="http://www.bohemiancoding.com/sketch/ns">
    <!-- Generator: Sketch 3.2.2 (9983) - http://www.bohemiancoding.com/sketch -->
    <title>compass</title>
    <desc>Created with Sketch.</desc>
    <defs>
        <filter x="-50%" y="-50%" width="200%" height="200%" filterUnits="objectBoundingBox" id="filter-1">
            <feGaussianBlur stdDeviation="41.947955" in="SourceGraphic" result="blur"></feGaussianBlur>
        </filter>
        <linearGradient x1="83.3298322%" y1="6.25558739%" x2="25.8655098%" y2="79.225788%" id="linearGradient-2">
            <stop stop-color="#ED2126" offset="0%"></stop>
            <stop stop-color="#BD2127" offset="100%"></stop>
        </linearGradient>
    </defs>
    <g id="Page-1" stroke="none" stroke-width="1" fill="none" fill-rule="evenodd" sketch:type="MSPage">
        <g id="shadow" sketch:type="MSLayerGroup" transform="translate(79.000000, 400.000000)" filter="url(#filter-1)" fill="#000000" fill-opacity="0.170000002">
            <ellipse id="Oval-15" sketch:type="MSShapeGroup" cx="516" cy="152" rx="516" ry="152"></ellipse>
        </g>
        <g id="compass" sketch:type="MSLayerGroup" transform="translate(321.000000, 93.000000)">
            <path d="M230.946444,547.319837 C79.7603152,547.319837 0.23141349,406.299316 0.23141349,313.85253 C0.23141349,221.405744 51.8346129,124.634329 145.232655,85.0859076 C245.003006,42.7797514 357.205604,17.7094366 547.437738,0.473595175 C542.752217,103.888644 512.827359,270.85694 489.712125,337.35595 C444.543707,467.408208 379.071367,547.319837 230.946444,547.319837 Z M224.574136,269.039342 C224.574136,269.039342 136.923666,195.395293 133.36267,198.967813 C129.864148,202.603008 202.396006,291.602626 202.396006,291.602626 C202.396006,291.602626 89.0688827,302.501945 89.0688827,307.584951 C89.0688827,312.667958 202.396006,323.567277 202.396006,323.567277 C202.396006,323.567277 129.864148,412.566895 133.36267,416.20209 C136.923666,419.77461 224.574136,346.13056 224.574136,346.13056 C224.574136,346.13056 235.319597,461.14063 240.317485,461.14063 C245.315374,461.14063 255.998361,346.13056 255.998361,346.13056 C255.998361,346.13056 343.711305,419.77461 347.209827,416.20209 C350.770823,412.566895 278.238965,323.567277 278.238965,323.567277 C278.238965,323.567277 391.503614,312.667958 391.503614,307.584951 C391.503614,302.501945 278.238965,291.602626 278.238965,291.602626 C278.238965,291.602626 350.770823,202.603008 347.209827,198.967813 C343.711305,195.395293 255.998361,269.039342 255.998361,269.039342 C255.998361,269.039342 245.315374,154.029273 240.317485,154.029273 C235.319597,154.029273 224.574136,269.039342 224.574136,269.039342 L224.574136,269.039342 Z" id="Shape" fill="url(#linearGradient-2)" sketch:type="MSShapeGroup"></path>
            <path d="M537.535671,4.65407017 C356.424684,21.8272358 241.285826,46.7596639 145.282634,90.3506737 C55.5517925,131.089935 13.5695286,216.247527 10.1334802,305.685875 C30.3749289,225.774247 80.8536034,158.147073 153.510408,119.225409 C270.473495,56.562157 345.366856,43.5067905 537.535671,4.65407017 L537.535671,4.65407017 Z" id="Shape" fill="#EF403B" sketch:type="MSShapeGroup"></path>
            <path d="M8.04061437,309.151846 C7.75948314,360.85937 100.001764,504.023403 232.508284,503.446786 C352.251447,502.926577 453.9085,426.668947 486.650918,321.687004 C455.414114,443.904788 379.071367,534.784679 230.946444,534.784679 C98.4399238,534.784679 7.42837302,421.968263 8.04061437,309.151846 L8.04061437,309.151846 Z" id="Shape" fill="#AD0B03" sketch:type="MSShapeGroup"></path>
        </g>
        <g id="SLICES" sketch:type="MSLayerGroup" transform="translate(-3826.000000, -1226.000000)"></g>
    </g>
</svg>