<svg width="88" height="60" viewBox="0 0 88 60" xmlns="http://www.w3.org/2000/svg"><title>compass</title><defs><filter x="-50%" y="-50%" width="200%" height="200%" filterUnits="objectBoundingBox" id="a"><feGaussianBlur stdDeviation="5.09" in="SourceGraphic" result="blur"/></filter><linearGradient x1="83.33%" y1="6.256%" x2="25.866%" y2="79.226%" id="b"><stop stop-color="#ED2126" offset="0%"/><stop stop-color="#BD2127" offset="100%"/></linearGradient></defs><g fill="none" fill-rule="evenodd"><path d="M38.743 22.825c21.397 0 38.743-5.11 38.743-11.412C77.486 5.11 60.14 0 38.743 0 17.346 0 0 5.11 0 11.413s17.346 11.412 38.743 11.412z" transform="translate(5 30)" fill-opacity=".1" filter="url(#a)" fill="#000"/><path d="M17.34 41.095C5.99 41.095.017 30.505.017 23.565c0-6.94 3.875-14.207 10.888-17.176 7.49-3.178 15.915-5.06 30.2-6.354-.353 7.764-2.6 20.3-4.336 25.294-3.392 9.765-8.308 15.765-19.43 15.765zM16.862 20.2s-6.58-5.53-6.85-5.26c-.26.272 5.185 6.955 5.185 6.955s-8.51.818-8.51 1.2c0 .38 8.51 1.2 8.51 1.2s-5.446 6.682-5.184 6.955c.268.268 6.85-5.26 6.85-5.26s.806 8.634 1.18 8.634c.376 0 1.178-8.635 1.178-8.635s6.587 5.528 6.85 5.26c.267-.273-5.18-6.955-5.18-6.955s8.505-.82 8.505-1.2c0-.382-8.504-1.2-8.504-1.2s5.447-6.683 5.18-6.956c-.263-.27-6.85 5.26-6.85 5.26s-.8-8.635-1.176-8.635c-.375 0-1.182 8.635-1.182 8.635z" id="Shape" fill="url(#b)" transform="translate(24 7)"/><path d="M64.36 7.35c-13.598 1.29-22.243 3.16-29.452 6.434-6.737 3.06-9.89 9.453-10.147 16.168 1.52-6 5.31-11.078 10.766-14 8.782-4.705 14.405-5.685 28.834-8.603z" id="Shape" fill="#EF403B"/><path d="M24.604 30.212c-.02 3.883 6.904 14.632 16.854 14.59 8.99-.04 16.623-5.766 19.08-13.65-2.344 9.178-8.076 16-19.198 16-9.95 0-16.782-8.47-16.736-16.94z" fill="#AD0B03"/></g></svg>