<svg width="1166" height="786" viewBox="0 0 1166 786" xmlns="http://www.w3.org/2000/svg"><title>cs_icons</title><defs><filter x="-50%" y="-50%" width="200%" height="200%" filterUnits="objectBoundingBox" id="a"><feGaussianBlur stdDeviation="41.948" in="SourceGraphic" result="blur"/></filter><linearGradient x1=".737%" y1="-.759%" x2="99.264%" y2="100.76%" id="b"><stop stop-color="#59233B" offset="0%"/><stop stop-color="#412835" offset="100%"/></linearGradient><linearGradient x1="-.001%" y1="0%" x2="100.001%" y2="100.001%" id="d"><stop stop-color="#E159A0" offset="0%"/><stop stop-color="#E23A95" offset="100%"/></linearGradient><filter x="-50%" y="-50%" width="200%" height="200%" filterUnits="objectBoundingBox" id="c"><feOffset dy="2" in="SourceAlpha" result="shadowOffsetOuter1"/><feGaussianBlur stdDeviation="2" in="shadowOffsetOuter1" result="shadowBlurOuter1"/><feColorMatrix values="0 0 0 0 0 0 0 0 0 0 0 0 0 0 0 0 0 0 0.35 0" in="shadowBlurOuter1" result="shadowMatrixOuter1"/><feMerge><feMergeNode in="shadowMatrixOuter1"/><feMergeNode in="SourceGraphic"/></feMerge></filter><linearGradient x1="-.932%" y1="50%" x2="539.933%" y2="50%" id="e"><stop stop-color="#E159A0" offset="0%"/><stop stop-color="#E23A95" offset="100%"/></linearGradient><linearGradient x1="-49.743%" y1="50%" x2="100.413%" y2="50%" id="f"><stop stop-color="#E159A0" offset="0%"/><stop stop-color="#E23A95" offset="100%"/></linearGradient><linearGradient x1=".738%" y1="-.757%" x2="99.264%" y2="100.761%" id="g"><stop stop-color="#395528" offset="0%"/><stop stop-color="#2E352D" offset="100%"/></linearGradient><linearGradient x1=".001%" y1="0%" x2="100.002%" y2="100%" id="i"><stop stop-color="#9BCB3C" offset="0%"/><stop stop-color="#8FC73F" offset="100%"/></linearGradient><filter x="-50%" y="-50%" width="200%" height="200%" filterUnits="objectBoundingBox" id="h"><feOffset dy="2" in="SourceAlpha" result="shadowOffsetOuter1"/><feGaussianBlur stdDeviation="2" in="shadowOffsetOuter1" result="shadowBlurOuter1"/><feColorMatrix values="0 0 0 0 0 0 0 0 0 0 0 0 0 0 0 0 0 0 0.35 0" in="shadowBlurOuter1" result="shadowMatrixOuter1"/><feMerge><feMergeNode in="shadowMatrixOuter1"/><feMergeNode in="SourceGraphic"/></feMerge></filter><linearGradient x1=".204%" y1="50.002%" x2="220.887%" y2="50.002%" id="j"><stop stop-color="#9BCB3C" offset="0%"/><stop stop-color="#8FC73F" offset="100%"/></linearGradient><linearGradient x1="-84.111%" y1="49.999%" x2="97.593%" y2="49.999%" id="k"><stop stop-color="#9BCB3C" offset="0%"/><stop stop-color="#8FC73F" offset="100%"/></linearGradient><linearGradient x1=".737%" y1="-.758%" x2="99.264%" y2="100.76%" id="l"><stop stop-color="#5F4522" offset="0%"/><stop stop-color="#373316" offset="100%"/></linearGradient><linearGradient x1="-.001%" y1="0%" x2="99.999%" y2="100.001%" id="n"><stop stop-color="#FDC560" offset="0%"/><stop stop-color="#F99C1C" offset="100%"/></linearGradient><filter x="-50%" y="-50%" width="200%" height="200%" filterUnits="objectBoundingBox" id="m"><feOffset dy="2" in="SourceAlpha" result="shadowOffsetOuter1"/><feGaussianBlur stdDeviation="2" in="shadowOffsetOuter1" result="shadowBlurOuter1"/><feColorMatrix values="0 0 0 0 0 0 0 0 0 0 0 0 0 0 0 0 0 0 0.35 0" in="shadowBlurOuter1" result="shadowMatrixOuter1"/><feMerge><feMergeNode in="shadowMatrixOuter1"/><feMergeNode in="SourceGraphic"/></feMerge></filter><linearGradient x1="-1.981%" y1="50.002%" x2="128.529%" y2="50.002%" id="o"><stop stop-color="#FDC560" offset="0%"/><stop stop-color="#F99C1C" offset="100%"/></linearGradient><linearGradient x1="-467.177%" y1="50.001%" x2="92.735%" y2="50.001%" id="p"><stop stop-color="#FDC560" offset="0%"/><stop stop-color="#F99C1C" offset="100%"/></linearGradient><linearGradient x1=".738%" y1="-.759%" x2="99.263%" y2="100.761%" id="q"><stop stop-color="#322E7C" offset="0%"/><stop stop-color="#272861" offset="100%"/></linearGradient><linearGradient x1="-.001%" y1="-.001%" y2="99.999%" id="r"><stop stop-color="#9BC5E9" offset="0%"/><stop stop-color="#7CB2E0" offset="100%"/></linearGradient><linearGradient x1="-.956%" y1="50%" x2="178.258%" y2="50%" id="s"><stop stop-color="#9BC5E9" offset="0%"/><stop stop-color="#7CB2E0" offset="100%"/></linearGradient><linearGradient x1="-136.208%" y1="49.996%" x2="98.445%" y2="49.996%" id="t"><stop stop-color="#9BC5E9" offset="0%"/><stop stop-color="#7CB2E0" offset="100%"/></linearGradient><linearGradient x1=".737%" y1="-.759%" x2="99.264%" y2="100.761%" id="u"><stop stop-color="#52481C" offset="0%"/><stop stop-color="#313424" offset="100%"/></linearGradient><linearGradient x1=".001%" y1="0%" x2="100.001%" y2="99.999%" id="w"><stop stop-color="#E1E323" offset="0%"/><stop stop-color="#E5D11D" offset="100%"/></linearGradient><filter x="-50%" y="-50%" width="200%" height="200%" filterUnits="objectBoundingBox" id="v"><feOffset dy="2" in="SourceAlpha" result="shadowOffsetOuter1"/><feGaussianBlur stdDeviation="2" in="shadowOffsetOuter1" result="shadowBlurOuter1"/><feColorMatrix values="0 0 0 0 0 0 0 0 0 0 0 0 0 0 0 0 0 0 0.35 0" in="shadowBlurOuter1" result="shadowMatrixOuter1"/><feMerge><feMergeNode in="shadowMatrixOuter1"/><feMergeNode in="SourceGraphic"/></feMerge></filter><linearGradient x1="-.446%" y1="49.998%" x2="273.367%" y2="49.998%" id="x"><stop stop-color="#E1E323" offset="0%"/><stop stop-color="#E5D11D" offset="100%"/></linearGradient><linearGradient x1="-60.732%" y1="49.996%" x2="98.579%" y2="49.996%" id="y"><stop stop-color="#E1E323" offset="0%"/><stop stop-color="#E5D11D" offset="100%"/></linearGradient></defs><g fill="none" fill-rule="evenodd"><ellipse cx="516" cy="152" rx="516" ry="152" transform="translate(76 406)" filter="url(#a)" fill="#000" fill-opacity=".17"/><g id="Group"><path id="Rectangle-path" fill="url(#b)" d="M12.703 15.068h250.59v242.878H12.703z" transform="translate(590.786 376.577)"/><path d="M1.91 3.15v265.007h271.615V3.15H1.91zm250.02 244.017H24.067V24.715H251.93v222.452z" id="Shape" filter="url(#c)" fill="url(#d)" transform="translate(590.786 376.577)"/><g id="Shape"><path d="M693.544 458.55v112.123h-20.49V458.55h20.49z" fill="#010101"/><path d="M20.494 2.13v112.125H.004V2.13h20.49z" fill="url(#e)" transform="translate(673.05 451.885)"/><g><path d="M782.777 452.563v95.322c0 8.318.302 17.3.61 22.788H766.61l-.762-12.81h-.31c-4.424 8.986-13.415 14.64-24.243 14.64-17.687 0-31.716-16.47-31.716-41.425-.155-27.114 15.396-43.25 33.24-43.25 10.218 0 17.537 4.658 20.892 10.645h.302V452.56h18.763v.003zm-18.763 70.868c0-1.663-.15-3.662-.453-5.326-1.678-7.986-7.625-14.472-16.167-14.472-12.048 0-18.76 11.642-18.76 26.785 0 14.802 6.712 25.615 18.61 25.615 7.626 0 14.33-5.655 16.16-14.473.46-1.832.61-3.828.61-5.99v-12.14z" fill="#010101"/><path d="M75.45 2.988V98.31c0 8.32.302 17.3.61 22.792H59.282l-.76-12.81h-.31c-4.425 8.983-13.416 14.64-24.244 14.64-17.687 0-31.716-16.47-31.716-41.425C2.098 54.39 17.65 38.253 35.494 38.253c10.217 0 17.536 4.66 20.89 10.646h.303V2.984H75.45v.003zM56.687 73.853c0-1.664-.15-3.66-.453-5.323-1.68-7.986-7.626-14.473-16.168-14.473-12.048 0-18.76 11.642-18.76 26.782 0 14.808 6.712 25.618 18.61 25.618 7.626 0 14.33-5.655 16.16-14.477.46-1.826.61-3.822.61-5.985V73.853z" fill="url(#f)" transform="translate(707.327 445.039)"/></g></g></g><g id="Group"><path id="Rectangle-path" fill="url(#g)" d="M11.873 15.065h250.59v242.878H11.873z" transform="translate(320 376.577)"/><path d="M1.076 3.15v265.01h271.616V3.15H1.076zm250.028 244.013H23.24V24.715h227.864v222.448z" id="Shape" filter="url(#h)" fill="url(#i)" transform="translate(320 376.577)"/><g id="Shape"><path d="M361.626 459.5c8.144-1.498 18.55-2.33 29.56-2.33 18.996 0 32.12 4.327 41.464 12.977 9.804 8.818 15.836 22.123 15.836 41.258 0 19.96-6.183 34.933-15.836 44.58-10.1 10.15-26.235 15.304-45.99 15.304-10.854 0-18.998-.662-25.03-1.497V459.5h-.004zm18.55 94.992c2.56.5 6.482.5 10.252.5 24.128.167 38.452-14.477 38.452-42.92.15-24.786-12.816-38.93-36.04-38.93-5.88 0-10.103.5-12.664 1.168v80.182z" fill="#010101"/><path d="M.494 3.077c8.144-1.5 18.55-2.33 29.56-2.33 18.996 0 32.12 4.326 41.464 12.976 9.804 8.818 15.836 22.123 15.836 41.258 0 19.96-6.183 34.934-15.836 44.58-10.1 10.15-26.235 15.305-45.99 15.305-10.854 0-18.998-.66-25.03-1.496V3.076H.493zm18.55 94.99c2.56.5 6.482.5 10.252.5 24.128.168 38.452-14.476 38.452-42.918.15-24.788-12.816-38.932-36.04-38.932-5.88 0-10.103.5-12.664 1.168v80.182z" fill="url(#j)" transform="translate(361.132 451.885)"/><g><path d="M468.942 489.11l7.452 36.765c1.607 8.647 3.215 17.468 4.524 26.286h.295c1.464-8.817 3.798-17.8 5.844-26.117l9.207-36.932h14.616l8.912 35.933c2.197 9.482 4.09 18.3 5.696 27.118h.295c1.17-8.817 2.78-17.635 4.672-27.117l7.894-35.932h17.68l-22.356 81.015H517.02l-8.478-32.937c-2.19-8.485-3.798-16.136-5.405-25.953h-.295c-1.46 9.985-3.36 17.967-5.402 25.953l-9.063 32.937h-16.8l-21.042-81.014h18.407z" fill="#010101"/><path d="M18.69 1.883l7.453 36.764c1.607 8.646 3.215 17.468 4.524 26.285h.295c1.464-8.818 3.798-17.8 5.844-26.118l9.207-36.93H60.63l8.91 35.93c2.198 9.483 4.09 18.3 5.697 27.118h.295c1.17-8.818 2.78-17.635 4.672-27.117l7.894-35.932h17.68L83.423 82.897H66.768L58.29 49.96c-2.19-8.486-3.797-16.137-5.404-25.954h-.295c-1.46 9.985-3.358 17.968-5.4 25.954l-9.064 32.937h-16.8L.285 1.883H18.69z" fill="url(#k)" transform="translate(450.251 482.693)"/></g></g></g><g id="Group"><path id="Rectangle-path" fill="url(#l)" d="M12.706 13.634h250.587v242.878H12.706z" transform="translate(590.786 113)"/><path d="M1.91 1.718v265.008h271.615V1.718H1.91zm250.02 244.018H24.067V23.284H251.93v222.452z" id="Shape" filter="url(#m)" fill="url(#n)" transform="translate(590.786 113)"/><g id="Shape"><path d="M691.662 270.82l-9.66 31.774h-21.155l35.977-112.123h26.157l36.48 112.124h-21.984l-10.163-31.773h-35.65zm32.152-15.468l-8.834-27.614c-2.162-6.818-3.996-14.472-5.66-20.96h-.33c-1.667 6.488-3.336 14.306-5.335 20.96l-8.658 27.614h28.817z" fill="#010101"/><path d="M32.323 81.4l-9.66 31.774H1.51L37.485 1.05h26.157l36.48 112.124H78.137L67.974 81.4h-35.65zm32.152-15.468L55.64 38.318c-2.16-6.82-3.995-14.473-5.658-20.96h-.332c-1.666 6.487-3.335 14.305-5.334 20.96l-8.658 27.614h28.817z" fill="url(#o)" transform="translate(659.339 188.308)"/><g><path d="M789.27 202.38c0 6.155-4.5 10.978-11.66 10.978-6.83 0-11.327-4.823-11.327-10.978 0-6.322 4.66-11.15 11.493-11.15 6.995 0 11.325 4.828 11.493 11.15zm-21.822 103.64v-81.017h20.655v81.014h-20.655v.004z" fill="#010101"/><path d="M23.672 12.96c0 6.154-4.498 10.978-11.658 10.978-6.83 0-11.328-4.824-11.328-10.978 0-6.323 4.66-11.15 11.493-11.15 6.994 0 11.324 4.827 11.492 11.15zM1.852 116.597V35.583h20.654v81.014H1.85z" fill="url(#p)" transform="translate(765.597 184.885)"/></g></g></g><g id="Group"><path id="Rectangle-path" fill="url(#q)" d="M11.877 13.634H262.47v242.878H11.878z" transform="translate(320 113)"/><path d="M1.08 1.718V266.73h271.615V1.718H1.08zm250.024 244.014H23.24V23.28h227.864v222.452z" id="Shape" fill="url(#r)" transform="translate(320 113)"/><g id="Shape"><path d="M392.478 195.1c7.332-1.332 17.49-2.332 31.32-2.332 14.99 0 25.984 3.16 33.148 9.15 6.663 5.49 10.996 14.31 10.996 24.787 0 10.645-3.332 19.463-9.66 25.454-8.16 8.15-20.99 11.976-35.483 11.976-3.833 0-7.33-.168-9.996-.664v42.254H392.48V195.1h-.002zm20.323 52.235c2.5.668 5.83.832 9.996.832 15.325 0 24.655-7.486 24.655-20.627 0-12.477-8.664-19.132-22.824-19.132-5.662 0-9.66.5-11.825 1v37.927z" fill="#010101"/><path d="M.497 5.68c7.332-1.333 17.49-2.332 31.32-2.332 14.99 0 25.984 3.16 33.148 9.15 6.663 5.49 10.996 14.308 10.996 24.786 0 10.646-3.33 19.464-9.66 25.454-8.16 8.15-20.99 11.978-35.482 11.978-3.832 0-7.328-.168-9.995-.665v42.256H.5V5.68H.497zM20.82 57.91c2.498.667 5.83.83 9.995.83 15.325 0 24.655-7.485 24.655-20.626 0-12.477-8.665-19.132-22.825-19.132-5.662 0-9.66.5-11.825 1v37.928z" fill="url(#s)" transform="translate(391.981 184.885)"/><g><path d="M474.26 286.927c4.664 2.83 13.497 5.823 20.826 5.823 8.99 0 12.987-3.66 12.987-8.982 0-5.49-3.328-8.32-13.323-11.813-15.826-5.49-22.49-14.14-22.328-23.62 0-14.305 11.83-25.454 30.654-25.454 8.994 0 16.823 2.33 21.488 4.824l-3.994 14.473c-3.5-1.995-9.998-4.66-17.16-4.66-7.33 0-11.33 3.496-11.33 8.487 0 5.16 3.832 7.65 14.163 11.313 14.656 5.323 21.488 12.81 21.652 24.787 0 14.637-11.493 25.457-32.98 25.457-9.83 0-18.658-2.494-24.656-5.825l4-14.808z" fill="#010101"/><path d="M6.87 66.7c4.664 2.83 13.497 5.82 20.826 5.82 8.99 0 12.987-3.658 12.987-8.98 0-5.49-3.328-8.32-13.323-11.814-15.826-5.49-22.49-14.14-22.328-23.62 0-14.304 11.83-25.453 30.654-25.453 8.994 0 16.823 2.328 21.488 4.823L53.18 21.95c-3.5-1.997-9.998-4.66-17.16-4.66-7.33 0-11.33 3.495-11.33 8.486 0 5.158 3.832 7.65 14.163 11.313C53.51 42.41 60.34 49.897 60.505 61.875c0 14.637-11.493 25.457-32.98 25.457-9.83 0-18.658-2.495-24.656-5.826l4-14.808z" fill="url(#t)" transform="translate(467.39 215.693)"/></g></g></g><path fill="url(#u)" d="M13.488 12.638h250.59v242.878H13.488z" transform="translate(450.252 243.077)"/><path d="M2.69.722v265.01h271.616V.723H2.69zm250.025 244.014H24.85V22.288h227.865v222.448z" id="Shape" filter="url(#v)" fill="url(#w)" transform="translate(450.252 243.077)"/><path d="M500.398 321.42H566.6v17.168h-45.265V370.2h42.2v17.167h-42.2v48.608h-20.937V321.42z" fill="#010101"/><path d="M2.16 1.924H68.36V19.09H23.096v31.613h42.2V67.87h-42.2v48.607H2.16V1.924z" fill="url(#x)" transform="translate(498.239 314.962)"/><g><path d="M589.058 353.205l8.04 37.56c1.736 8.84 3.47 17.846 4.886 26.855h.315c1.576-9.01 4.095-18.183 6.306-26.683l9.927-37.73h15.76l9.615 36.714c2.365 9.688 4.41 18.694 6.146 27.704h.318c1.262-9.01 2.99-18.016 5.042-27.703l8.508-36.712h19.068l-24.114 82.77h-17.964l-9.138-33.652c-2.365-8.667-4.096-16.482-5.834-26.512h-.315c-1.577 10.198-3.623 18.355-5.827 26.512l-9.776 33.652H591.9l-22.69-82.77h19.848v-.003z" fill="#010101"/><path d="M22.266 2.9l8.04 37.56c1.736 8.84 3.47 17.845 4.886 26.855h.315c1.577-9.01 4.096-18.184 6.307-26.683l9.927-37.73H67.5l9.616 36.713c2.365 9.688 4.41 18.694 6.146 27.703h.318c1.262-9.01 2.99-18.015 5.042-27.703L97.13 2.903h19.068l-24.114 82.77H74.12L64.982 52.02c-2.365-8.667-4.096-16.482-5.834-26.51h-.315c-1.577 10.196-3.623 18.353-5.827 26.51L43.23 85.673H25.108L2.418 2.903h19.848V2.9z" fill="url(#y)" transform="translate(566.792 345.77)"/></g></g></svg>