<svg width="89" height="61" viewBox="0 0 89 61" xmlns="http://www.w3.org/2000/svg" xmlns:xlink="http://www.w3.org/1999/xlink"><title>cs_icons</title><defs><filter x="-50%" y="-50%" width="200%" height="200%" filterUnits="objectBoundingBox" id="a"><feGaussianBlur stdDeviation="5.09" in="SourceGraphic" result="blur"/></filter><linearGradient x1=".737%" y1="-.759%" x2="99.264%" y2="100.76%" id="b"><stop stop-color="#59233B" offset="0%"/><stop stop-color="#412835" offset="100%"/></linearGradient><linearGradient x1="-.001%" y1="0%" x2="100.001%" y2="100.001%" id="c"><stop stop-color="#E159A0" offset="0%"/><stop stop-color="#E23A95" offset="100%"/></linearGradient><linearGradient x1="-.932%" y1="50%" x2="539.933%" y2="50%" id="d"><stop stop-color="#E159A0" offset="0%"/><stop stop-color="#E23A95" offset="100%"/></linearGradient><linearGradient x1="-49.743%" y1="50%" x2="100.413%" y2="50%" id="e"><stop stop-color="#E159A0" offset="0%"/><stop stop-color="#E23A95" offset="100%"/></linearGradient><linearGradient x1=".737%" y1="-.758%" x2="99.264%" y2="100.76%" id="f"><stop stop-color="#5F4522" offset="0%"/><stop stop-color="#373316" offset="100%"/></linearGradient><linearGradient x1="-.001%" y1="0%" x2="99.999%" y2="100.001%" id="g"><stop stop-color="#FDC560" offset="0%"/><stop stop-color="#F99C1C" offset="100%"/></linearGradient><linearGradient x1="-1.981%" y1="50.002%" x2="128.529%" y2="50.002%" id="h"><stop stop-color="#FDC560" offset="0%"/><stop stop-color="#F99C1C" offset="100%"/></linearGradient><linearGradient x1="-467.177%" y1="50.001%" x2="92.735%" y2="50.001%" id="i"><stop stop-color="#FDC560" offset="0%"/><stop stop-color="#F99C1C" offset="100%"/></linearGradient><linearGradient x1=".738%" y1="-.759%" x2="99.263%" y2="100.761%" id="j"><stop stop-color="#322E7C" offset="0%"/><stop stop-color="#272861" offset="100%"/></linearGradient><linearGradient x1="-.001%" y1="-.001%" y2="99.999%" id="k"><stop stop-color="#9BC5E9" offset="0%"/><stop stop-color="#7CB2E0" offset="100%"/></linearGradient><linearGradient x1="-.956%" y1="50%" x2="178.258%" y2="50%" id="l"><stop stop-color="#9BC5E9" offset="0%"/><stop stop-color="#7CB2E0" offset="100%"/></linearGradient><linearGradient x1="-136.208%" y1="49.996%" x2="98.445%" y2="49.996%" id="m"><stop stop-color="#9BC5E9" offset="0%"/><stop stop-color="#7CB2E0" offset="100%"/></linearGradient><linearGradient x1=".737%" y1="-.759%" x2="99.264%" y2="100.761%" id="n"><stop stop-color="#52481C" offset="0%"/><stop stop-color="#313424" offset="100%"/></linearGradient><linearGradient x1=".001%" y1="0%" x2="100.001%" y2="99.999%" id="o"><stop stop-color="#E1E323" offset="0%"/><stop stop-color="#E5D11D" offset="100%"/></linearGradient><linearGradient x1="-.446%" y1="49.998%" x2="273.367%" y2="49.998%" id="p"><stop stop-color="#E1E323" offset="0%"/><stop stop-color="#E5D11D" offset="100%"/></linearGradient><linearGradient x1="-60.732%" y1="49.996%" x2="98.579%" y2="49.996%" id="q"><stop stop-color="#E1E323" offset="0%"/><stop stop-color="#E5D11D" offset="100%"/></linearGradient><linearGradient x1="100%" y1="0%" x2="0%" y2="100%" id="s"><stop stop-color="#E4B428" offset="0%"/><stop stop-color="#C14318" offset="100%"/></linearGradient><radialGradient cx="74.148%" cy="41.979%" fx="74.148%" fy="41.979%" r="86.517%" id="t"><stop stop-color="#FFF" stop-opacity=".5" offset="0%"/><stop stop-opacity=".5" offset="100%"/></radialGradient><path id="r" d="M12.13 6.24L19.438.106.003 25.764z"/><linearGradient x1="101.569%" y1="7.171%" x2="21.68%" y2="67.673%" id="u"><stop stop-color="#D5861C" offset="0%"/><stop stop-color="#B92C0A" offset="100%"/></linearGradient><filter x="-50%" y="-50%" width="200%" height="200%" filterUnits="objectBoundingBox" id="x"><feOffset dx="-3" in="SourceAlpha" result="shadowOffsetInner1"/><feGaussianBlur stdDeviation=".5" in="shadowOffsetInner1" result="shadowBlurInner1"/><feComposite in="shadowBlurInner1" in2="SourceAlpha" operator="arithmetic" k2="-1" k3="1" result="shadowInnerInner1"/><feColorMatrix values="0 0 0 0 1 0 0 0 0 1 0 0 0 0 1 0 0 0 0.059205163 0" in="shadowInnerInner1" result="shadowMatrixInner1"/><feMerge><feMergeNode in="SourceGraphic"/><feMergeNode in="shadowMatrixInner1"/></feMerge></filter><path id="w" d="M12.427 6.125l7.04-6.17L0 25.667z"/><path id="y" d="M12.23 6.24L19.534.106-.01 25.782z"/><filter x="-50%" y="-50%" width="200%" height="200%" filterUnits="objectBoundingBox" id="B"><feOffset dx="-3" in="SourceAlpha" result="shadowOffsetInner1"/><feGaussianBlur stdDeviation=".5" in="shadowOffsetInner1" result="shadowBlurInner1"/><feComposite in="shadowBlurInner1" in2="SourceAlpha" operator="arithmetic" k2="-1" k3="1" result="shadowInnerInner1"/><feColorMatrix values="0 0 0 0 1 0 0 0 0 1 0 0 0 0 1 0 0 0 0.059205163 0" in="shadowInnerInner1" result="shadowMatrixInner1"/><feMerge><feMergeNode in="SourceGraphic"/><feMergeNode in="shadowMatrixInner1"/></feMerge></filter><path id="A" d="M12.525 6.125l7.04-6.17L.1 25.667z"/><filter x="-50%" y="-50%" width="200%" height="200%" filterUnits="objectBoundingBox" id="C"><feOffset dy="1" in="SourceAlpha" result="shadowOffsetInner1"/><feGaussianBlur stdDeviation="1" in="shadowOffsetInner1" result="shadowBlurInner1"/><feComposite in="shadowBlurInner1" in2="SourceAlpha" operator="arithmetic" k2="-1" k3="1" result="shadowInnerInner1"/><feColorMatrix values="0 0 0 0 1 0 0 0 0 1 0 0 0 0 1 0 0 0 0.7 0" in="shadowInnerInner1" result="shadowMatrixInner1"/><feMerge><feMergeNode in="SourceGraphic"/><feMergeNode in="shadowMatrixInner1"/></feMerge></filter><linearGradient x1="50%" y1="100%" x2="50%" y2="5.761%" id="E"><stop stop-color="#E7C358" offset="0%"/><stop stop-color="#DC8328" offset="71.295%"/><stop stop-color="#D3611F" offset="100%"/></linearGradient><path id="D" d="M.1.194L12.18 19.542 24.384.194H.1z"/><filter x="-50%" y="-50%" width="200%" height="200%" filterUnits="objectBoundingBox" id="F"><feOffset dy="-7" in="SourceAlpha" result="shadowOffsetOuter1"/><feGaussianBlur stdDeviation="4" in="shadowOffsetOuter1" result="shadowBlurOuter1"/><feColorMatrix values="0 0 0 0 0.803921569 0 0 0 0 0.337254902 0 0 0 0 0.101960784 0 0 0 0.141870471 0" in="shadowBlurOuter1" result="shadowMatrixOuter1"/><feMerge><feMergeNode in="shadowMatrixOuter1"/><feMergeNode in="SourceGraphic"/></feMerge></filter><linearGradient x1="50%" y1="0%" x2="50%" y2="100%" id="G"><stop stop-color="#F7EDCE" offset="0%"/><stop stop-color="#E2B62A" offset="62.201%"/><stop stop-color="#D14418" offset="100%"/></linearGradient><linearGradient x1="50%" y1="8.257%" x2="50%" y2="100%" id="H"><stop stop-color="#F1DB8F" offset="0%"/><stop stop-color="#E7AC2D" offset="100%"/></linearGradient><linearGradient x1="50%" y1="0%" x2="50%" y2="64.075%" id="I"><stop stop-color="#FFF" offset="0%"/><stop stop-color="#FFF" stop-opacity="0" offset="100%"/></linearGradient><linearGradient x1="0%" y1="100%" y2="0%" id="K"><stop stop-color="#EED66A" offset="0%"/><stop stop-color="#DD8D1B" offset="100%"/></linearGradient><path id="J" d="M5.48-.023L0 6.125l7.28 6.155 4.954-8.872L5.48-.022z"/><linearGradient x1="13.341%" y1="15.883%" x2="93.177%" y2="6.628%" id="L"><stop stop-color="#FEFCFA" offset="0%"/><stop stop-color="#EDA710" offset="100%"/></linearGradient><linearGradient x1="6.704%" y1="6.032%" x2="94.203%" y2="89.168%" id="N"><stop stop-color="#FFF" offset="0%"/><stop stop-color="#F6B823" offset="100%"/></linearGradient><linearGradient x1="0%" y1="100%" y2="76.09%" id="O"><stop stop-color="#FDFCF8" offset="0%"/><stop stop-color="#E8C456" offset="100%"/></linearGradient><linearGradient x1="50%" y1="0%" x2="50%" y2="95.819%" id="P"><stop stop-color="#F2DEA0" offset="0%"/><stop stop-color="#F2DEA0" offset="100%"/></linearGradient><filter x="-50%" y="-50%" width="200%" height="200%" filterUnits="objectBoundingBox" id="Q"><feOffset dy="-2" in="SourceAlpha" result="shadowOffsetInner1"/><feGaussianBlur stdDeviation="2.5" in="shadowOffsetInner1" result="shadowBlurInner1"/><feComposite in="shadowBlurInner1" in2="SourceAlpha" operator="arithmetic" k2="-1" k3="1" result="shadowInnerInner1"/><feColorMatrix values="0 0 0 0 0.782844388 0 0 0 0 0.423692742 0 0 0 0 0.0985659896 0 0 0 0.325291553 0" in="shadowInnerInner1" result="shadowMatrixInner1"/><feMerge><feMergeNode in="SourceGraphic"/><feMergeNode in="shadowMatrixInner1"/></feMerge></filter><path id="R" d="M5.48-.023L0 6.125l7.28 6.155 4.954-8.872L5.48-.022z"/><filter x="-50%" y="-50%" width="200%" height="200%" filterUnits="objectBoundingBox" id="T"><feOffset dy="-2" in="SourceAlpha" result="shadowOffsetInner1"/><feGaussianBlur stdDeviation="2.5" in="shadowOffsetInner1" result="shadowBlurInner1"/><feComposite in="shadowBlurInner1" in2="SourceAlpha" operator="arithmetic" k2="-1" k3="1" result="shadowInnerInner1"/><feColorMatrix values="0 0 0 0 0.782844388 0 0 0 0 0.423692742 0 0 0 0 0.0985659896 0 0 0 0.325291553 0" in="shadowInnerInner1" result="shadowMatrixInner1"/><feMerge><feMergeNode in="SourceGraphic"/><feMergeNode in="shadowMatrixInner1"/></feMerge></filter><linearGradient x1="0%" y1="100%" y2="37.623%" id="U"><stop stop-color="#FFF" offset="0%"/><stop stop-color="#ECD077" offset="100%"/></linearGradient><linearGradient x1="87.523%" y1="50%" x2="9.897%" y2="50%" id="W"><stop stop-color="#E8C358" offset="0%"/><stop stop-color="#E29E31" offset="50.883%"/><stop stop-color="#D96221" offset="100%"/></linearGradient><path id="V" d="M12.282 3.283l12.18 5.564H-.005z"/><linearGradient x1="96.671%" y1="50%" x2="2.433%" y2="50%" id="X"><stop stop-color="#F1DB8B" offset="0%"/><stop stop-color="#E57B2B" offset="100%"/></linearGradient></defs><g fill="none" fill-rule="evenodd"><path d="M38.743 22.825c21.397 0 38.743-5.11 38.743-11.412C77.486 5.11 60.14 0 38.743 0 17.346 0 0 5.11 0 11.413s17.346 11.412 38.743 11.412z" transform="translate(5.387 30.753)" fill-opacity=".1" filter="url(#a)" fill="#000"/><path id="Rectangle-path" fill="url(#b)" d="M.954 1.13H19.77v18.237H.953z" transform="translate(44.131 6.997)"/><g id="Group" fill="url(#c)" transform="translate(44.131 6.997)"><path d="M.143.236v19.898h20.394V.236H.143zm18.773 18.322H1.806V1.856h17.11v16.702z" id="Shape"/></g><g id="Group"><g id="Shape"><path d="M51.848 13.15v8.42h-1.54v-8.42h1.54z" fill="#010101"/><path d="M1.54.16v8.42H0V.16h1.54z" fill="url(#d)" transform="translate(50.308 12.651)"/></g><g id="Shape"><path d="M58.548 12.702v7.157c0 .624.023 1.298.046 1.71h-1.26l-.057-.962h-.023c-.332.675-1.008 1.1-1.82 1.1-1.33 0-2.382-1.237-2.382-3.11-.01-2.037 1.156-3.248 2.496-3.248.767 0 1.317.35 1.57.8h.02V12.7h1.41zm-1.41 5.32c0-.124-.01-.274-.033-.4-.126-.6-.572-1.086-1.214-1.086-.903 0-1.407.874-1.407 2.01 0 1.113.504 1.925 1.397 1.925.573 0 1.076-.424 1.213-1.086.035-.137.046-.287.046-.45v-.91z" fill="#010101"/><path d="M5.665.224v7.158c0 .624.023 1.298.046 1.71H4.45l-.056-.96H4.37c-.33.673-1.007 1.098-1.82 1.098C1.222 9.23.17 7.993.17 6.12.157 4.084 1.324 2.872 2.664 2.872c.767 0 1.317.35 1.57.8h.02V.223h1.41zm-1.41 5.32c0-.124-.01-.274-.033-.4-.126-.598-.572-1.085-1.214-1.085-.904 0-1.408.873-1.408 2.01 0 1.112.504 1.923 1.397 1.923.573 0 1.076-.424 1.213-1.087.035-.137.046-.287.046-.45v-.91z" fill="url(#e)" transform="translate(52.882 12.137)"/></g></g><path id="Rectangle-path" fill="url(#f)" d="M.954 1.024H19.77V19.26H.953z" transform="translate(44.106 26.984)"/><g id="Group" fill="url(#g)" transform="translate(44.106 26.984)"><path d="M.143.13v19.897h20.394V.13H.143zm18.773 18.32H1.806V1.75h17.11V18.45z" id="Shape"/></g><g id="Group"><g id="Shape"><path d="M51.68 38.833l-.724 2.386h-1.59l2.703-8.42h1.962l2.74 8.42h-1.65l-.764-2.387H51.68zm2.415-1.16l-.663-2.074c-.163-.513-.3-1.088-.425-1.575h-.025c-.125.487-.25 1.074-.4 1.574l-.65 2.072h2.163z" fill="#010101"/><path d="M2.427 6.112l-.725 2.385H.112L2.816.08h1.963l2.74 8.417h-1.65l-.764-2.385H2.427zM4.84 4.95L4.18 2.877c-.163-.512-.3-1.087-.425-1.574h-.025c-.125.487-.25 1.074-.4 1.574l-.65 2.073H4.84z" fill="url(#h)" transform="translate(49.253 32.638)"/></g><g id="Shape"><path d="M59.01 33.695c0 .462-.338.824-.876.824-.513 0-.85-.363-.85-.825 0-.475.35-.838.862-.838.526 0 .85.363.863.838zm-1.64 7.78v-6.082h1.552v6.083h-1.55z" fill="#010101"/><path d="M1.777.973c0 .462-.337.824-.875.824-.513 0-.85-.362-.85-.824C.05.498.4.136.913.136c.526 0 .85.362.863.837zM.14 8.753v-6.08h1.55v6.08H.14z" fill="url(#i)" transform="translate(57.231 32.381)"/></g></g><g><path id="Rectangle-path" fill="url(#j)" d="M.892 1.024h18.815V19.26H.892z" transform="translate(23.74 27.037)"/><g id="Group" fill="url(#k)" transform="translate(23.74 27.037)"><path d="M.08.13v19.897h20.395V.13H.08zm18.774 18.32H1.744V1.748h17.11V18.45z" id="Shape"/></g><g id="Group"><g id="Shape"><path d="M29.183 33.2c.55-.1 1.314-.174 2.352-.174 1.126 0 1.95.237 2.49.687.5.412.824 1.074.824 1.86 0 .8-.25 1.462-.726 1.912-.613.612-1.576.9-2.664.9-.288 0-.55-.013-.75-.05v3.172h-1.526V33.2zm1.526 3.923c.187.05.437.062.75.062 1.15 0 1.85-.562 1.85-1.548 0-.937-.65-1.437-1.713-1.437-.425 0-.725.038-.888.075v2.848z" fill="#010101"/><path d="M.037.426C.587.326 1.35.25 2.39.25c1.125 0 1.95.24 2.488.688.5.413.825 1.075.825 1.86 0 .8-.25 1.463-.725 1.913-.613.613-1.576.9-2.664.9-.288 0-.55-.013-.75-.05v3.173H.037V.426zm1.526 3.922c.188.05.438.063.75.063 1.15 0 1.852-.56 1.852-1.548 0-.937-.65-1.437-1.714-1.437-.424 0-.724.038-.887.075v2.848z" fill="url(#l)" transform="translate(29.145 32.434)"/></g><g id="Shape"><path d="M35.324 40.095c.35.213 1.013.438 1.563.438.676 0 .976-.275.976-.675 0-.412-.25-.624-1-.887-1.19-.41-1.69-1.06-1.677-1.772 0-1.074.888-1.91 2.3-1.91.677 0 1.265.173 1.615.36l-.3 1.088c-.262-.15-.75-.35-1.287-.35-.55 0-.85.262-.85.637 0 .387.287.574 1.062.85 1.1.4 1.614.96 1.626 1.86 0 1.1-.862 1.912-2.475 1.912-.74 0-1.4-.188-1.852-.438l.3-1.112z" fill="#010101"/><path d="M.516 5.008c.35.213 1.013.437 1.563.437.675 0 .975-.275.975-.674 0-.412-.25-.624-1-.886C.864 3.472.364 2.822.377 2.11c0-1.074.888-1.91 2.3-1.91.677 0 1.265.174 1.615.36l-.3 1.088c-.263-.15-.75-.35-1.288-.35-.55 0-.85.263-.85.637 0 .388.287.575 1.062.85 1.1.4 1.614.962 1.626 1.86 0 1.1-.863 1.912-2.476 1.912-.74 0-1.4-.187-1.852-.437l.3-1.112z" fill="url(#m)" transform="translate(34.807 34.747)"/></g></g></g><g><path fill="url(#n)" d="M1.013.95h18.815v18.235H1.013z" transform="translate(23.653 7.2)"/><g id="Group" fill="url(#o)" transform="translate(23.653 7.2)"><path d="M.202.054v19.898h20.394V.054H.202zm18.773 18.322H1.865V1.673h17.11v16.703z" id="Shape"/></g><g id="Shape"><path d="M27.42 13.082h4.97v1.29h-3.4v2.372h3.17v1.29h-3.17v3.65h-1.57V13.08z" fill="#010101"/><path d="M.162.144h4.97v1.29H1.735v2.373h3.17v1.29h-3.17v3.648H.162v-8.6z" fill="url(#p)" transform="translate(27.256 12.597)"/></g><path d="M34.076 15.468l.604 2.82c.13.664.26 1.34.366 2.017h.024c.118-.677.308-1.366.474-2.004l.745-2.832h1.182l.722 2.757c.178.727.33 1.404.462 2.08h.024c.094-.676.224-1.353.378-2.08l.64-2.757h1.43l-1.81 6.215h-1.35l-.685-2.527c-.178-.65-.307-1.237-.438-1.99h-.024c-.117.765-.27 1.378-.436 1.99l-.734 2.527h-1.36l-1.705-6.215h1.49z" fill="#010101"/><path d="M1.672.218l.604 2.82c.13.664.26 1.34.366 2.016h.024c.118-.676.308-1.365.474-2.003L3.885.22h1.183l.722 2.756c.178.728.33 1.404.462 2.08h.024c.094-.676.224-1.352.378-2.08l.64-2.756h1.43l-1.81 6.215h-1.35L4.88 3.906c-.18-.65-.308-1.238-.44-1.99h-.023c-.118.765-.272 1.377-.437 1.99l-.734 2.527h-1.36L.18.218h1.492z" fill="url(#q)" transform="translate(32.403 14.91)"/></g><g><g transform="matrix(-1 0 0 1 44.161 19.236)"><mask id="v" fill="#fff"><use xlink:href="#r"/></mask><use fill="url(#s)" xlink:href="#r"/><use fill="url(#t)" xlink:href="#r"/><path id="Triangle-16" fill-opacity=".7" fill="url(#u)" mask="url(#v)" d="M11.38 7.478l7.99-7.24-2.886 3.945-6.52 5.632z"/><g id="Triangle-20" filter="url(#x)"><use fill="#fff" xlink:href="#w"/><use xlink:href="#w"/></g></g><g transform="translate(44.161 19.236)"><mask id="z" fill="#fff"><use xlink:href="#y"/></mask><use fill="url(#s)" xlink:href="#y"/><use fill="url(#t)" xlink:href="#y"/><path fill-opacity=".7" fill="url(#u)" mask="url(#z)" d="M11.477 7.478l7.99-7.24-2.885 3.945-6.588 5.625"/><g filter="url(#B)"><use fill="#fff" xlink:href="#A"/><use xlink:href="#A"/></g></g><g transform="translate(31.98 25.458)"><path fill="#E99A1B" filter="url(#C)" d="M24.413 0H-.03L12.18 19.542"/><use fill="url(#E)" xlink:href="#D"/><path d="M12.18 19.542L16.475 0H7.996l4.185 19.542z" fill-opacity=".2" fill="#FFF" filter="url(#F)"/><path fill-opacity=".245" fill="#F6B823" d="M23.76 1.046L24.412 0H-.03l.654 1.046"/></g><path d="M30.158 13.318l-5.332 5.997s13.027 1.944 19.54 1.944c6.457 0 19.37-1.945 19.37-1.945l-5.51-6.127-.017-.174h-27.9l-.152.304z" id="Rectangle-5" fill="#FFF"/><path d="M12.354 5.93h14.194L33.4 3.015H5.5l6.854 2.917zm0-5.833h14.194L33.4 3.014H5.5L12.355.097z" fill="url(#G)" transform="translate(24.808 10)"/><path fill-opacity=".71" fill="url(#H)" d="M19.45 2.917l7.074 3.014H12.378" transform="translate(24.808 10)"/><path fill="url(#I)" transform="matrix(1 0 0 -1 24.808 13.014)" d="M19.45 0l7.074 3.014H12.378"/><g transform="translate(24.71 13.208)"><mask id="M" fill="#fff"><use xlink:href="#J"/></mask><use id="Rectangle-5" fill="url(#K)" xlink:href="#J"/><path id="Triangle-6" fill="url(#L)" mask="url(#M)" d="M6.142 4.763l1.096 7.56-7.45-6.16z"/><path d="M-.358 6.16l7.79 6.478.77-1.05-7.086-5.813-1.474.386z" id="Rectangle-7" opacity=".61" fill="url(#N)" mask="url(#M)"/><path id="Triangle-5" fill="url(#O)" mask="url(#M)" d="M5.45-.3l.72 5.053-6.392 1.415z"/><path id="Triangle-7" fill="url(#P)" mask="url(#M)" d="M5.45-.268l6.983 3.632L6.15 4.768z"/><path id="Triangle-8" fill="#fff" filter="url(#Q)" mask="url(#M)" d="M5.4-.657l1.856 13.045L-.287 6.3z"/></g><g transform="matrix(-1 0 0 1 63.71 13.208)"><mask id="S" fill="#fff"><use xlink:href="#R"/></mask><use fill="url(#K)" xlink:href="#R"/><path fill="url(#L)" mask="url(#S)" d="M6.142 4.763l1.096 7.56-7.45-6.16"/><path d="M-.358 6.16l7.79 6.478.77-1.05-7.086-5.813-1.474.386z" opacity=".61" fill="url(#N)" mask="url(#S)"/><path fill="url(#O)" mask="url(#S)" d="M5.45-.3l.72 5.053-6.392 1.415"/><path fill="url(#P)" mask="url(#S)" d="M5.45-.268l6.983 3.632L6.15 4.768"/><path fill="#fff" filter="url(#T)" mask="url(#S)" d="M5.4-.657l1.856 13.045L-.287 6.3"/></g><g transform="translate(31.98 16.611)"><path fill="url(#U)" d="M4.942.002L12.31 3.32-.034 8.878"/><path d="M19.52.002L12.15 3.32l12.342 5.558L19.52.002z" fill="url(#U)"/><mask id="Y" fill="#fff"><use xlink:href="#V"/></mask><use fill="url(#W)" xlink:href="#V"/><path fill="url(#X)" mask="url(#Y)" d="M-.196 7.972h24.854v.875H-.196z"/></g></g></g></svg>