<svg width="89" height="60" viewBox="0 0 89 60" xmlns="http://www.w3.org/2000/svg"><title>css</title><defs><filter x="-50%" y="-50%" width="200%" height="200%" filterUnits="objectBoundingBox" id="a"><feGaussianBlur stdDeviation="5.09" in="SourceGraphic" result="blur"/></filter></defs><g fill="none" fill-rule="evenodd"><path d="M38.743 22.825c21.397 0 38.743-5.11 38.743-11.412C77.486 5.11 60.14 0 38.743 0 17.346 0 0 5.11 0 11.413s17.346 11.412 38.743 11.412z" transform="translate(6.719 30.559)" fill-opacity=".1" filter="url(#a)" fill="#000"/><path d="M31.266 44.436L28.1 8.846h34.8L59.73 44.43l-14.252 3.96-14.212-3.954" fill="#0070BA"/><path d="M45.5 45.363l11.515-3.2 2.71-30.406H45.498v33.606" fill="#1B86C1"/><path d="M45.5 36.292l-.02.005-4.852-1.312-.31-3.48h-4.373l.61 6.852 8.924 2.482.02-.007v-4.54" fill="#ECECE9"/><path d="M45.404 29.32h5.445l-.507 5.662-4.86 1.314v4.54l8.932-2.48 1.09-12.228.106-1.172H45.405v4.365zM45.46 20.45l10.55.017.09-.98.197-2.214.104-1.17H45.46v4.348z" fill="#FFF"/><path d="M45.46 20.69L56.4 16.1l-.363 4.333-10.572 4.482v4.364h-.006v-8.59z" fill="#FFFFFE"/><path d="M35.034 20.434l-.4-4.332h10.865v4.35l-10.466-.018z" fill="#EBEBE9"/><path d="M35.405 24.906l.345 4.415h9.71v-8.628l-10.055 4.214z" fill="#ECECE9"/></g></svg>