<?xml version="1.0" encoding="UTF-8" standalone="no"?>
<svg width="35px" height="41px" viewBox="0 0 35 41" version="1.1" xmlns="http://www.w3.org/2000/svg" xmlns:xlink="http://www.w3.org/1999/xlink" xmlns:sketch="http://www.bohemiancoding.com/sketch/ns">
    <!-- Generator: Sketch 3.2.2 (9983) - http://www.bohemiancoding.com/sketch -->
    <title>css</title>
    <desc>Created with Sketch.</desc>
    <defs></defs>
    <g id="Page-1" stroke="none" stroke-width="1" fill="none" fill-rule="evenodd" sketch:type="MSPage">
        <g id="css" sketch:type="MSLayerGroup" transform="translate(0.042267, 0.784761)">
            <path d="M3.22394764,35.6510967 L0.0569857306,0.0620795242 L34.856807,0.0620795242 L31.6863938,35.6454677 L17.4355468,39.6038415 L3.22394764,35.6510967" id="Fill-1" fill="#0070BA" sketch:type="MSShapeGroup"></path>
            <path d="M17.4568964,36.5782689 L28.9722678,33.3797259 L31.6815781,2.97201701 L17.4568964,2.97201701 L17.4568964,36.5782689" id="Fill-2" fill="#1B86C1" sketch:type="MSShapeGroup"></path>
            <path d="M17.4568964,27.5074211 L17.4377941,27.5125676 L12.5859006,26.1998912 L12.2756093,22.7187739 L7.9023156,22.7187739 L8.51270501,29.5722086 L17.436831,32.0542638 L17.4568964,32.0487152 L17.4568964,27.5074211" id="Fill-4" fill="#ECECE9" sketch:type="MSShapeGroup"></path>
            <path d="M17.3615456,20.5362604 L22.8064117,20.5362604 L22.3007637,26.1971571 L17.4418072,27.5111201 L17.4418072,32.052173 L26.3729961,29.5722086 L27.4623065,17.3435877 L27.5685728,16.1715552 L17.3615456,16.1715552 L17.3615456,20.5362604 Z" id="Fill-9" fill="#FFFFFF" sketch:type="MSShapeGroup"></path>
            <path d="M17.4167656,11.6658678 L27.9689904,11.6825302 L28.0563952,10.7014003 L28.2548822,8.48865121 L28.3590617,7.31766412 L17.4167656,7.31766412 L17.4167656,11.6658678 Z" id="Fill-11" fill="#FFFFFF" sketch:type="MSShapeGroup"></path>
            <path d="M17.4167656,11.9037535 L28.3590617,7.31766412 L27.9943656,11.649884 L17.4224792,16.1319765 L17.4224792,20.4966817 L17.4167656,20.4966817 L17.4167656,11.9037535 L17.4167656,11.9037535 Z" id="Fill-13" fill="#FFFFFE" sketch:type="MSShapeGroup"></path>
            <path d="M6.9921642,11.6490956 L6.59085623,7.31766412 L17.4568964,7.31766412 L17.4568964,11.6658741 L6.9921642,11.6490956 Z" id="Fill-12" fill="#EBEBE9" sketch:type="MSShapeGroup"></path>
            <path d="M7.36274701,16.1208652 L7.70768124,20.5362604 L17.4167656,20.5362604 L17.4167655,11.9070671 L7.36274701,16.1208652 Z" id="Fill-3" fill="#ECECE9" sketch:type="MSShapeGroup"></path>
        </g>
    </g>
</svg>