<?xml version="1.0" encoding="UTF-8" standalone="no"?>
<svg width="1166px" height="786px" viewBox="0 0 1166 786" version="1.1" xmlns="http://www.w3.org/2000/svg" xmlns:xlink="http://www.w3.org/1999/xlink" xmlns:sketch="http://www.bohemiancoding.com/sketch/ns">
    <!-- Generator: Sketch 3.2.2 (9983) - http://www.bohemiancoding.com/sketch -->
    <title>html</title>
    <desc>Created with Sketch.</desc>
    <defs>
        <filter x="-50%" y="-50%" width="200%" height="200%" filterUnits="objectBoundingBox" id="filter-1">
            <feGaussianBlur stdDeviation="41.947955" in="SourceGraphic" result="blur"></feGaussianBlur>
        </filter>
    </defs>
    <g id="Page-1" stroke="none" stroke-width="1" fill="none" fill-rule="evenodd" sketch:type="MSPage">
        <g id="shadow" sketch:type="MSLayerGroup" transform="translate(60.000000, 406.000000)" filter="url(#filter-1)" fill="#000000" fill-opacity="0.170000002">
            <ellipse id="Oval-15" sketch:type="MSShapeGroup" cx="516" cy="152" rx="516" ry="152"></ellipse>
        </g>
        <g id="html" sketch:type="MSLayerGroup" transform="translate(344.000000, 116.000000)">
            <path d="M42.9382069,474.819797 L0.758965517,0.826807302 L464.241034,0.826807302 L422.015828,474.744828 L232.215655,527.464503 L42.9382069,474.819797" id="Fill-1" fill="#D3492B" sketch:type="MSShapeGroup"></path>
            <path d="M232.5,487.168357 L385.86769,444.568503 L421.95169,39.5828641 L232.5,39.5828641 L232.5,487.168357" id="Fill-2" fill="#E15E30" sketch:type="MSShapeGroup"></path>
            <path d="M155.720483,215.38116 L150.417345,155.851034 L232.5,155.851034 L232.5,97.7174848 L87.0052414,97.7174848 L102.654897,273.512568 L232.5,273.512568 L232.5,215.38116 L155.720483,215.38116 Z" id="Fill-3" fill="#ECECE9" sketch:type="MSShapeGroup"></path>
            <path d="M232.5,366.358101 L232.245586,366.426645 L167.625552,348.94374 L163.492931,302.580414 L105.247138,302.580414 L113.376621,393.858012 L232.232759,426.91531 L232.5,426.841412 L232.5,366.358101" id="Fill-4" fill="#ECECE9" sketch:type="MSShapeGroup"></path>
            <path d="M232.299034,215.38116 L232.299034,273.512568 L303.747621,273.512568 L297.013138,348.907327 L232.299034,366.407367 L232.299034,426.887465 L351.249241,393.858012 L365.757241,230.990897 L367.172552,215.38116 L232.299034,215.38116" id="Fill-9" fill="#FFFFFF" sketch:type="MSShapeGroup"></path>
            <path d="M232.299034,97.7174848 L232.299034,155.851034 L372.452172,155.851034 L373.616276,142.783838 L376.259828,113.313298 L377.647345,97.7174848 L232.299034,97.7174848" id="Fill-10" fill="#FFFFFF" sketch:type="MSShapeGroup"></path>
        </g>
        <g id="SLICES" sketch:type="MSLayerGroup" transform="translate(-1277.000000, -1.000000)"></g>
    </g>
</svg>