<svg width="89" height="61" viewBox="0 0 89 61" xmlns="http://www.w3.org/2000/svg"><title>html</title><defs><filter x="-50%" y="-50%" width="200%" height="200%" filterUnits="objectBoundingBox" id="a"><feGaussianBlur stdDeviation="5.09" in="SourceGraphic" result="blur"/></filter></defs><g fill="none" fill-rule="evenodd"><path d="M38.743 22.825c21.397 0 38.743-5.11 38.743-11.412C77.486 5.11 60.14 0 38.743 0 17.346 0 0 5.11 0 11.413s17.346 11.412 38.743 11.412z" transform="translate(5.387 30.559)" fill-opacity=".1" filter="url(#a)" fill="#000"/><path d="M29.934 44.436l-3.167-35.59h34.8l-3.17 35.584-14.25 3.96-14.213-3.954" fill="#D3492B"/><path d="M44.167 45.363l11.515-3.2 2.71-30.406H44.167v33.606" fill="#E15E30"/><path d="M38.402 24.956l-.398-4.47h6.163v-4.364H33.243l1.175 13.2h9.75v-4.366H38.4zM44.167 36.292l-.02.005-4.85-1.312-.31-3.48h-4.374l.61 6.852 8.924 2.482.02-.007v-4.54" fill="#ECECE9"/><path d="M44.152 24.956v4.365h5.365l-.506 5.662-4.858 1.314v4.54l8.93-2.48 1.09-12.228.107-1.172H44.15M44.152 16.122v4.365h10.523l.088-.982.198-2.212.105-1.17H44.152" fill="#FFF"/></g></svg>