<svg width="88" height="60" viewBox="0 0 88 60" xmlns="http://www.w3.org/2000/svg"><title>javascript</title><defs><filter x="-50%" y="-50%" width="200%" height="200%" filterUnits="objectBoundingBox" id="a"><feGaussianBlur stdDeviation="5.09" in="SourceGraphic" result="blur"/></filter></defs><g fill="none" fill-rule="evenodd"><path d="M38.743 22.825c21.397 0 38.743-5.11 38.743-11.412C77.486 5.11 60.14 0 38.743 0 17.346 0 0 5.11 0 11.413s17.346 11.412 38.743 11.412z" transform="translate(5 31)" fill-opacity=".1" filter="url(#a)" fill="#000"/><path d="M29.224 44.584L26.057 9.062h34.8l-3.17 35.516-14.25 3.95-14.213-3.944" fill="#D5BA31"/><path d="M54.972 42.317l2.71-30.35H43.457v33.542l11.515-3.193z" fill="#FFDA3E"/><path d="M43.457 36.455l-.02.005-4.85-1.31-.31-3.474H33.9l.61 6.84 8.925 2.478.02-.006v-4.533" fill="#ECECE9"/><path d="M49.67 19.29L48.3 35.15l-4.858 1.31v4.533l8.93-2.474 2-22.16-4.703 2.935z" fill="#FFF"/><path d="M43.417 20.644l10.552.016.086-.98.2-2.207.103-1.17H43.416v4.34z" fill="#FFF"/><path d="M32.992 20.627l-.4-4.323h10.865v4.34l-10.465-.017z" fill="#EBEBE9"/></g></svg>