<?xml version="1.0" encoding="UTF-8" standalone="no"?>
<svg width="1166px" height="786px" viewBox="0 0 1166 786" version="1.1" xmlns="http://www.w3.org/2000/svg" xmlns:xlink="http://www.w3.org/1999/xlink" xmlns:sketch="http://www.bohemiancoding.com/sketch/ns">
    <!-- Generator: Sketch 3.2.2 (9983) - http://www.bohemiancoding.com/sketch -->
    <title>javascript</title>
    <desc>Created with Sketch.</desc>
    <defs>
        <filter x="-50%" y="-50%" width="200%" height="200%" filterUnits="objectBoundingBox" id="filter-1">
            <feGaussianBlur stdDeviation="41.947955" in="SourceGraphic" result="blur"></feGaussianBlur>
        </filter>
    </defs>
    <g id="Page-1" stroke="none" stroke-width="1" fill="none" fill-rule="evenodd" sketch:type="MSPage">
        <g id="shadow" sketch:type="MSLayerGroup" transform="translate(59.000000, 406.000000)" filter="url(#filter-1)" fill="#000000" fill-opacity="0.170000002">
            <ellipse id="Oval-15" sketch:type="MSShapeGroup" cx="516" cy="152" rx="516" ry="152"></ellipse>
        </g>
        <g id="javascript" sketch:type="MSLayerGroup" transform="translate(343.000000, 97.000000)">
            <path d="M42.9382069,473.920517 L0.758965517,0.825241379 L464.241034,0.825241379 L422.015828,473.84569 L232.215655,526.465517 L42.9382069,473.920517" id="Fill-1" fill="#D5BA31" sketch:type="MSShapeGroup"></path>
            <path d="M385.86769,443.726517 L421.95169,39.5078966 L232.5,39.5078966 L232.5,486.24569 L385.86769,443.726517 Z" id="Fill-2" fill="#FFDA3E" sketch:type="MSShapeGroup"></path>
            <path d="M232.5,365.664241 L232.245586,365.732655 L167.625552,348.282862 L163.492931,302.007345 L105.247138,302.007345 L113.376621,393.112069 L232.232759,426.106759 L232.5,426.033 L232.5,365.664241" id="Fill-4" fill="#ECECE9" sketch:type="MSShapeGroup"></path>
            <path d="M315.236265,137.061422 L297.013138,348.246517 L232.299034,365.713414 L232.299034,426.078966 L351.249241,393.112069 L377.88349,97.9899016 L315.236265,137.061422 Z" id="Fill-9" fill="#FFFFFF" sketch:type="MSShapeGroup"></path>
            <path d="M231.965517,155.077812 L372.50552,155.29931 L373.669624,142.256862 L376.313176,112.842138 L377.700693,97.2758621 L231.965517,97.2758621 L231.965517,155.077812 Z" id="Fill-11" fill="#FFFFFF" sketch:type="MSShapeGroup"></path>
            <path d="M93.1252694,154.854855 L87.7804418,97.2758621 L232.5,97.2758621 L232.5,155.077897 L93.1252694,154.854855 Z" id="Fill-12" fill="#EBEBE9" sketch:type="MSShapeGroup"></path>
        </g>
        <g id="SLICES" sketch:type="MSLayerGroup" transform="translate(-1278.000000, -2321.000000)"></g>
    </g>
</svg>