<svg width="88" height="60" viewBox="0 0 88 60" xmlns="http://www.w3.org/2000/svg"><title>meteor</title><defs><filter x="-50%" y="-50%" width="200%" height="200%" filterUnits="objectBoundingBox" id="a"><feGaussianBlur stdDeviation="5.09" in="SourceGraphic" result="blur"/></filter></defs><g fill="none" fill-rule="evenodd"><path d="M38.743 22.825c21.397 0 38.743-5.11 38.743-11.412C77.486 5.11 60.14 0 38.743 0 17.346 0 0 5.11 0 11.413s17.346 11.412 38.743 11.412z" transform="translate(5 30)" fill-opacity=".1" filter="url(#a)" fill="#000"/><g fill="#FF4545"><path d="M16.084 2.084l41.775 44.29s1.422 1.006 2.51-.167c1.09-1.172.25-2.344.25-2.344L16.085 2.083zM29.31 6.27l31.814 34.328s1.423 1.005 2.51-.168c1.09-1.172.252-2.344.252-2.344L29.31 6.27zM20.018 15.23L51.83 49.556s1.424 1.004 2.513-.168c1.088-1.173.25-2.345.25-2.345L20.02 15.23zM40.493 9.87L62.72 33.853s.993.702 1.753-.117c.76-.82.176-1.638.176-1.638L40.492 9.87zM23.08 25.61l22.225 23.984s.995.702 1.755-.117c.76-.82.176-1.638.176-1.638L23.08 25.61zM51.915 15.06l10.073 10.904s.492.33.868-.055c.376-.384.087-.768.087-.768l-11.028-10.08z" id="Shape"/><path d="M28.64 36.663l10.075 10.902s.492.33.868-.054c.376-.383.087-.767.087-.767l-11.03-10.08z"/></g></g></svg>