<svg width="88" height="60" viewBox="0 0 88 60" xmlns="http://www.w3.org/2000/svg"><title>react</title><defs><filter x="-50%" y="-50%" width="200%" height="200%" filterUnits="objectBoundingBox" id="a"><feGaussianBlur stdDeviation="5.09" in="SourceGraphic" result="blur"/></filter></defs><g fill="none" fill-rule="evenodd"><path d="M38.743 22.825c21.397 0 38.743-5.11 38.743-11.412C77.486 5.11 60.14 0 38.743 0 17.346 0 0 5.11 0 11.413s17.346 11.412 38.743 11.412z" transform="translate(4 30)" fill-opacity=".1" filter="url(#a)" fill="#000"/><g transform="translate(19.958 5.45)" fill="#00D8FF"><ellipse cx="24.185" cy="21.562" rx="4.319" ry="4.319"/><path d="M24.185 13.813c5.58 0 10.882.787 14.913 2.174 4.476 1.54 7.206 3.82 7.206 5.575 0 1.87-2.948 4.297-7.736 5.884-3.812 1.262-8.912 1.95-14.383 1.95-5.747 0-10.904-.674-14.672-1.962-2.358-.806-4.306-1.854-5.64-2.997-1.2-1.028-1.807-2.048-1.807-2.875 0-1.762 2.626-4.008 7.006-5.535 4.032-1.406 9.463-2.214 15.113-2.214zm0-2.066c-5.87 0-11.528.842-15.793 2.33C3.27 15.86 0 18.658 0 21.56c0 2.998 3.51 6.004 8.845 7.827 4.01 1.37 9.384 2.073 15.34 2.073 5.677 0 10.992-.717 15.033-2.056 5.545-1.837 9.153-4.807 9.153-7.845 0-2.913-3.375-5.73-8.6-7.53-4.26-1.465-9.786-2.285-15.585-2.285z" id="Shape"/><path d="M17.435 17.712c2.788-4.834 6.118-9.033 9.334-11.832 3.57-3.107 6.907-4.335 8.428-3.458 1.62.934 2.25 4.702 1.232 9.642-.81 3.933-2.762 8.694-5.495 13.434-2.87 4.978-6.032 9.11-9.03 11.73-1.876 1.64-3.757 2.803-5.414 3.39-1.49.525-2.675.54-3.392.126-1.526-.88-2.16-4.277-1.295-8.833.797-4.194 2.81-9.303 5.632-14.198zm-1.79-1.032c-2.932 5.085-5.03 10.408-5.872 14.845-1.012 5.328-.222 9.56 2.293 11.01 2.597 1.497 6.955-.042 11.2-3.752 3.19-2.79 6.483-7.093 9.46-12.253 2.835-4.918 4.87-9.88 5.728-14.05 1.18-5.72.408-10.33-2.224-11.848-2.523-1.455-6.65.062-10.818 3.69-3.4 2.957-6.87 7.335-9.767 12.358z" id="Shape"/><path d="M17.442 25.51c-2.796-4.83-4.77-9.813-5.59-13.996-.91-4.646-.305-8.15 1.214-9.03 1.618-.937 5.197.4 8.968 3.748 3.003 2.666 6.154 6.734 8.895 11.47 2.878 4.973 4.878 9.774 5.65 13.68.485 2.445.554 4.656.234 6.384-.288 1.553-.868 2.588-1.584 3.003-1.524.88-4.784-.265-8.3-3.29-3.237-2.786-6.657-7.08-9.488-11.97zm-1.79 1.034c2.943 5.08 6.506 9.555 9.93 12.502 4.11 3.537 8.17 4.966 10.683 3.51 2.595-1.5 3.438-6.045 2.343-11.575-.823-4.156-2.906-9.16-5.89-14.314-2.845-4.914-6.13-9.153-9.312-11.98C19.038.808 14.66-.827 12.03.696 9.51 2.156 8.764 6.488 9.825 11.91c.865 4.422 2.924 9.616 5.83 14.634z"/></g></g></svg>