<svg width="88" height="60" viewBox="0 0 88 60" xmlns="http://www.w3.org/2000/svg"><title>ruby</title><defs><filter x="-50%" y="-50%" width="200%" height="200%" filterUnits="objectBoundingBox" id="a"><feGaussianBlur stdDeviation="5.09" in="SourceGraphic" result="blur"/></filter><linearGradient x1="84.748%" y1="111.397%" x2="58.251%" y2="64.578%" id="b"><stop stop-color="#F68F71" offset="0%"/><stop stop-color="#F68F71" offset="0%"/><stop stop-color="#DC5242" offset="41%"/><stop stop-color="#A72C32" offset="99%"/><stop stop-color="#A72C32" offset="100%"/></linearGradient><linearGradient x1="116.648%" y1="60.889%" x2="1.74%" y2="19.286%" id="c"><stop stop-color="#9B3F34" offset="0%"/><stop stop-color="#9B3F34" offset="0%"/><stop stop-color="#A23E36" offset="99%"/><stop stop-color="#A23E36" offset="100%"/></linearGradient><linearGradient x1="75.773%" y1="219.334%" x2="38.975%" y2="7.811%" id="d"><stop stop-color="#9B3F34" offset="0%"/><stop stop-color="#9B3F34" offset="0%"/><stop stop-color="#A23E36" offset="99%"/><stop stop-color="#A23E36" offset="100%"/></linearGradient><linearGradient x1="50.012%" y1="7.236%" x2="66.483%" y2="79.14%" id="e"><stop stop-color="#FFF" offset="0%"/><stop stop-color="#FFF" offset="0%"/><stop stop-color="#E28B6F" offset="23%"/><stop stop-color="#DA6144" offset="46%"/><stop stop-color="#A60003" offset="99%"/><stop stop-color="#A60003" offset="100%"/></linearGradient><linearGradient x1="46.174%" y1="16.343%" x2="49.932%" y2="83.045%" id="f"><stop stop-color="#FFF" offset="0%"/><stop stop-color="#FFF" offset="0%"/><stop stop-color="#E08A6D" offset="23%"/><stop stop-color="#C14435" offset="56%"/><stop stop-color="#B13430" offset="99%"/><stop stop-color="#B13430" offset="100%"/></linearGradient><linearGradient x1="36.967%" y1="15.598%" x2="49.53%" y2="92.482%" id="g"><stop stop-color="#FFF" offset="0%"/><stop stop-color="#FFF" offset="0%"/><stop stop-color="#DF8063" offset="18%"/><stop stop-color="#C94D37" offset="40%"/><stop stop-color="#B13430" offset="99%"/><stop stop-color="#B13430" offset="100%"/></linearGradient><linearGradient x1="13.609%" y1="58.348%" x2="85.767%" y2="-46.718%" id="h"><stop stop-color="#FFF" offset="0%"/><stop stop-color="#FFF" offset="0%"/><stop stop-color="#C94838" offset="54%"/><stop stop-color="#C12D2F" offset="99%"/><stop stop-color="#C12D2F" offset="100%"/></linearGradient><linearGradient x1="27.629%" y1="21.135%" x2="50.75%" y2="79.06%" id="i"><stop stop-color="#FFF" offset="0%"/><stop stop-color="#FFF" offset="0%"/><stop stop-color="#DA6548" offset="31%"/><stop stop-color="#C14433" offset="99%"/><stop stop-color="#C14433" offset="100%"/></linearGradient><linearGradient x1="-20.671%" y1="122.285%" x2="104.24%" y2="-6.341%" id="j"><stop stop-color="#BD0012" offset="0%"/><stop stop-color="#BD0012" offset="0%"/><stop stop-color="#FFF" offset="7%"/><stop stop-color="#FFF" offset="17%"/><stop stop-color="#C95841" offset="27%"/><stop stop-color="#983734" offset="33%"/><stop stop-color="#AE4231" offset="46%"/><stop stop-color="#B93E2F" offset="72%"/><stop stop-color="#DE4E2B" offset="99%"/><stop stop-color="#DE4E2B" offset="100%"/></linearGradient><linearGradient x1="58.794%" y1="65.205%" x2="11.969%" y2="50.128%" id="k"><stop stop-color="#9F3633" offset="0%"/><stop stop-color="#9F3633" offset="0%"/><stop stop-color="#A73532" offset="54%"/><stop stop-color="#B13439" offset="99%"/><stop stop-color="#B13439" offset="100%"/></linearGradient><linearGradient x1="79.318%" y1="62.753%" x2="23.087%" y2="17.886%" id="l"><stop stop-color="#923C36" offset="0%"/><stop stop-color="#923C36" offset="0%"/><stop stop-color="#AA3531" offset="99%"/><stop stop-color="#AA3531" offset="100%"/></linearGradient><linearGradient x1="92.879%" y1="74.122%" x2="59.838%" y2="39.703%" id="m"><stop stop-color="#8D3E36" offset="0%"/><stop stop-color="#8D3E36" offset="0%"/><stop stop-color="#AA3E37" offset="99%"/><stop stop-color="#AA3E37" offset="100%"/></linearGradient><radialGradient cx="31.998%" cy="40.215%" fx="31.998%" fy="40.215%" r="69.577%" id="n"><stop stop-color="#B13430" offset="0%"/><stop stop-color="#B13430" offset="0%"/><stop stop-color="#923934" offset="99%"/><stop stop-color="#923934" offset="100%"/></radialGradient><radialGradient cx="13.546%" cy="40.858%" fx="13.546%" fy="40.858%" r="88.39%" id="o"><stop stop-color="#AE3531" offset="0%"/><stop stop-color="#AE3531" offset="0%"/><stop stop-color="#953A36" offset="99%"/><stop stop-color="#953A36" offset="100%"/></radialGradient><linearGradient x1="56.576%" y1="101.722%" x2="3.107%" y2="11.994%" id="p"><stop stop-color="#994939" offset="0%"/><stop stop-color="#994939" offset="0%"/><stop stop-color="#AA3A36" offset="43%"/><stop stop-color="#B83936" offset="99%"/><stop stop-color="#B83936" offset="100%"/></linearGradient><linearGradient x1="30.872%" y1="35.601%" x2="92.476%" y2="100.699%" id="q"><stop stop-color="#B9392F" offset="0%"/><stop stop-color="#B9392F" offset="0%"/><stop stop-color="#A23A36" offset="44%"/><stop stop-color="#8D463A" offset="99%"/><stop stop-color="#8D463A" offset="100%"/></linearGradient></defs><g fill="none" fill-rule="evenodd"><path d="M38.743 22.825c21.397 0 38.743-5.11 38.743-11.412C77.486 5.11 60.14 0 38.743 0 17.346 0 0 5.11 0 11.413s17.346 11.412 38.743 11.412z" transform="translate(5 31)" fill-opacity=".1" filter="url(#a)" fill="#000"/><path d="M8.273 39.95l29.51-2L40.057 8.19l-8.992 18.226L8.274 39.95z" id="Shape" fill="url(#b)" transform="translate(24 7)"/><path d="M28.387 29.545l9.445 8.384-2.537-17.508-6.908 9.123z" id="Shape" fill="url(#c)" transform="translate(24 7)"/><path d="M8.372 39.913l29.494-1.984-18.582-1.46-10.912 3.443z" id="Shape" fill="url(#d)" transform="translate(24 7)"/><path d="M2.825 26.894l5.573 13.023L13.04 24.71 2.825 26.894z" id="Shape" fill="url(#e)" transform="translate(24 7)"/><path d="M11.89 24.323l16.495 5.272-4.272-16.73L11.89 24.323z" id="Shape" fill="url(#f)" transform="translate(24 7)"/><path d="M24.315 14.065l14.772-.965-11.555-9.437-3.217 10.402z" id="Shape" fill="url(#g)" transform="translate(24 7)"/><path d="M22.6.248l11.083.05-6.795 3.756L22.6.248z" id="Shape" fill="url(#h)" transform="translate(24 7)"/><path d="M.68 20.617L.138 31.995l2.847-5.192L.68 20.617z" id="Shape" fill="url(#i)" transform="translate(24 7)"/><path d="M24.528 27.422l2.317 6.572 10.068-2.258 11.494-10.683L51.65 10.75l-5.106-3.607-8.684 3.25c-2.736 2.545-8.045 7.58-8.237 7.674-.19.097-3.505 6.365-5.095 9.355z" id="Shape" fill="#FFF"/><path d="M8.664 8.615c5.93-5.88 13.573-9.352 16.507-6.393 2.932 2.96-.176 10.153-6.106 16.03-5.93 5.877-13.48 9.542-16.41 6.582-2.934-2.957.08-10.342 6.01-16.22z" id="Shape" fill="url(#j)" transform="translate(24 7)"/><path d="M8.398 39.91l4.606-15.255L28.3 29.57c-5.53 5.185-11.682 9.57-19.902 10.34z" id="Shape" fill="url(#k)" transform="translate(24 7)"/><path d="M24.427 14.023l3.927 15.554c4.62-4.857 8.767-10.08 10.798-16.54l-14.725.986z" id="Shape" fill="url(#l)" transform="translate(24 7)"/><path d="M39.11 13.116C40.684 8.374 41.047 1.57 33.636.306l-6.08 3.36 11.556 9.45z" id="Shape" fill="url(#m)" transform="translate(24 7)"/><path d="M24.137 38.927c.218 7.827 5.865 7.944 8.27 8.012L26.852 33.96l-2.713 4.965z" id="Shape" fill="#AA3E35"/><path d="M24.45 14.047C28 16.23 35.154 20.61 35.3 20.692c.225.127 3.084-4.82 3.733-7.618l-14.583.973z" id="Shape" fill="url(#n)" transform="translate(24 7)"/><path d="M12.997 24.655l6.158 11.88c3.64-1.975 6.49-4.38 9.103-6.958l-15.26-4.922z" id="Shape" fill="url(#o)" transform="translate(24 7)"/><path d="M2.827 26.978l-.873 10.39c1.646 2.247 3.91 2.442 6.287 2.267-1.718-4.277-5.15-12.83-5.413-12.657z" id="Shape" fill="url(#p)" transform="translate(24 7)"/><path d="M27.518 3.69L39.75 5.41C39.097 2.64 37.092.856 33.675.298L27.518 3.69z" fill="url(#q)" transform="translate(24 7)"/></g></svg>