<svg width="89" height="61" viewBox="0 0 89 61" xmlns="http://www.w3.org/2000/svg"><title>sass</title><defs><filter x="-50%" y="-50%" width="200%" height="200%" filterUnits="objectBoundingBox" id="a"><feGaussianBlur stdDeviation="5.09" in="SourceGraphic" result="blur"/></filter><radialGradient fx="50%" fy="50%" id="b"><stop stop-color="#FFF" offset="0%"/><stop stop-color="#FFF" offset="65.428%"/><stop stop-color="#E0E0E0" offset="100%"/></radialGradient></defs><g fill="none" fill-rule="evenodd"><path d="M38.743 22.825c21.397 0 38.743-5.11 38.743-11.412C77.486 5.11 60.14 0 38.743 0 17.346 0 0 5.11 0 11.413s17.346 11.412 38.743 11.412z" transform="translate(6.719 30.086)" fill-opacity=".1" filter="url(#a)" fill="#000"/><g transform="translate(22.862 5.608)"><ellipse fill="url(#b)" cx="21.948" cy="21.962" rx="21.948" ry="21.962"/><path d="M29.814 28.074c-.365.636.025.013 0 0zm5.438-1.788c0 .037.12-.02 0 0zM21.76 23.02l-.092-.01.092.01zm20.796.785c-1.646-.648-3.928-.33-5.522.344-.267.113-.48.166-.48.166s-.324-.487-.42-.68c-.208-.41-.384-.836-.49-1.282-.187-.79-.137-1.813.157-2.567.08-.2.44-.752.192-.937-.232-.172-.605-.192-.882-.213-.326-.024-.68-.035-1 .05-.62.166-.61.44-.786.997-.61 1.92-1.754 3.577-2.71 5.336-.585-.172-.728-1.827-.725-2.282 0-.5.084-1 .228-1.48.095-.314.265-.68.225-1.015-.058-.49-1.08-.386-1.398-.357-.66.06-1.01.16-1.247.843-1.13 3.282-3.98 9.03-4.273 9.132-.378-.808.56-3.616.754-4.162.13-.368.468-1.027.348-1.425-.21-.705-.958-.373-1.445-.298.084-.595.204-1.356-.072-1.92-.8-1.635-3.575.087-4.28 1.034-.216.292-.474.6-.87.907-.762.59-4.06 2.063-4.06 2.063s-1.336-1.272-1.822-1.673l-.12-.098c-.695-.553-1.48-1.006-2.178-1.6-.715-.608-1.398-1.277-1.87-2.09-1.085-1.87-.268-3.454.713-5.12.37-.625.767-.83 1.113-1.27.25-.315.853-.81 1.278-1.11 1.71-1.21 3.493-2.193 5.3-3.052 1.08-.512 2.213-.908 3.356-1.256 1.046-.318 2.07-.39 3.137-.53 1.637-.216 4.064-.016 5.19 1.337 1.255 1.504-.077 3.722-1.11 4.966-1.165 1.405-2.773 2.367-4.47 3.04-1.845.73-3.983 1.268-5.966.783-.51-.126-.978-.328-1.432-.586-.208-.118-.763-.71-.912-.66-.456.154.29 1.432.596 1.432 0 .224.596.488.853.673.4.287.865.395 1.343.495 1.002.21 2.033.233 3.058.13 4.22-.423 8.16-3.16 9.256-4.777.276-.406.56-.813.778-1.253.406-.812.64-1.712.695-2.613.118-1.914-.66-3.535-2.427-4.42-.44-.222-.9-.402-1.36-.57-1.888-.695-4.966-.65-7.026-.128-1.052.267-2.037.584-3.065.968-3.284 1.23-6.713 2.965-9.136 5.277-1.046.998-2.058 2.235-2.73 3.502-.903 1.696-.893 3.372.185 4.984 1.028 1.538 2.623 2.8 4.177 3.764.387.24.818.564 1.195.85.317.24.755.464 1.01.714.197.193.913.67.913.67s-1.284.793-1.623.96c-.373.185-2.436 1.697-3.132 2.208-1.268.93-2.29 2.524-2.006 4.204.29 1.722 1.793 2.92 4.374 2.26 1.902-.486 3.097-1.542 4.22-2.927.76-.937 1.285-2.847 1.02-4.098 0-.608-.05-1.075-.27-1.646-.09-.23-.288-.575-.045-.76.31-.235.734-.39 1.068-.61.243-.16.784-.56 1.07-.56-.01.487-.205 1.037-.302 1.52-.123.613-.154 1.167-.154 1.796 0 1.053.337 2.497 1.122 3.275.817.81 1.958.34 2.44-.366.313-.455.506-1.037.775-1.523.23-.418.352-1.023.643-1.385.125.374.003.874.01 1.268.017 1.02.49 1.834.903 1.86 1.083.01 1.6-.952 2.046-1.766.69-1.263 1.407-2.507 2.05-3.796.32-.646.536-1.278.846-1.92.207-.43.35-1.05.65-1.42.418 1.08.576 2.213 1.157 3.234.29.506-.368.872-.664 1.273-.378.513-.825.97-1.246 1.45-.532.602-1.427 1.423-.746 2.165.53.58 2.2.013 2.804-.255 1.844-.82 2.734-2.52 2.09-4.457-.05-.15-.116-.32-.24-.43.47-.82 1.02-1.61 1.298-2.103.258-.458 1.055-2.106 1.25-2.106.13.625.516 1.773 1.066 2.98-1 .797-2.282 3.09-2.282 3.65-.198.697.014 1.646.952 1.595.818-.045 2.16-.697 2.717-1.294.323-.346.893-.795 1.077-1.468.135-.49.062-1.024-.062-1.51-.11-.427-.39-.667.086-.863.758-.312 1.603-.416 2.42-.433 1.788-.036 3.733.293 4.903 1.737.444.548.827 1.245.722 2-.058.407-.337.844-.614 1.14-.243.26-.736.348-.87.697-.113 0 .252.147.42.108.168-.04.313-.13.457-.22.3-.195.515-.264.742-.522.574-.65.827-1.654.65-2.49-.383-1.798-1.87-2.827-3.56-3.49zm-29.18 6.947c-.27.77-.682 1.49-1.26 2.078-.516.524-1.157.985-1.843 1.27-1.935.797-2.888-.182-2.06-1.78.413-.794.925-1.543 1.594-2.155.605-.553 1.23-.826 1.803-1.264.49-.372 1.852-1.05 1.852-1.05s.26 1.914-.086 2.902zm7.73-3.862c-.39.96-1.047 2.706-1.613 3.256-.198.192-.295.39-.53.114-.12-.142-.185-.33-.23-.507-.318-1.247-.035-2.708.483-3.845 1.632-3.58 2.802-2.862 2.802-2.862.062.888-.58 3.032-.91 3.844zm6.73 3.53c.095-.34.65-.744.885-1.008.384-.43.806-.837 1.094-1.338.584.286-1.184 2.617-1.977 2.347zm7.148-1.958c-.257.292-1.298 1.02-1.178.248.088-.57.458-1.055.762-1.53.19-.296.684-.726.684-.894.07-.01.134-.034.19-.074.285.764.078 1.64-.458 2.25z" fill="#C69"/></g></g></svg>