<?xml version="1.0" encoding="UTF-8" standalone="no"?>
<svg width="1166px" height="786px" viewBox="0 0 1166 786" version="1.1" xmlns="http://www.w3.org/2000/svg" xmlns:xlink="http://www.w3.org/1999/xlink" xmlns:sketch="http://www.bohemiancoding.com/sketch/ns">
    <!-- Generator: Sketch 3.2.2 (9983) - http://www.bohemiancoding.com/sketch -->
    <title>sass</title>
    <desc>Created with Sketch.</desc>
    <defs>
        <filter x="-50%" y="-50%" width="200%" height="200%" filterUnits="objectBoundingBox" id="filter-1">
            <feGaussianBlur stdDeviation="41.947955" in="SourceGraphic" result="blur"></feGaussianBlur>
        </filter>
        <radialGradient cx="50%" cy="50%" fx="50%" fy="50%" r="50%" id="radialGradient-2">
            <stop stop-color="#FFFFFF" offset="0%"></stop>
            <stop stop-color="#FFFFFF" offset="65.4283062%"></stop>
            <stop stop-color="#E0E0E0" offset="100%"></stop>
        </radialGradient>
    </defs>
    <g id="Page-1" stroke="none" stroke-width="1" fill="none" fill-rule="evenodd" sketch:type="MSPage">
        <g id="shadow" sketch:type="MSLayerGroup" transform="translate(77.000000, 398.000000)" filter="url(#filter-1)" fill="#000000" fill-opacity="0.170000002">
            <ellipse id="Oval-15" sketch:type="MSShapeGroup" cx="516" cy="152" rx="516" ry="152"></ellipse>
        </g>
        <g id="sass" sketch:type="MSLayerGroup" transform="translate(292.000000, 72.000000)">
            <ellipse id="Oval-1" fill="url(#radialGradient-2)" sketch:type="MSShapeGroup" cx="292.317308" cy="292.5" rx="292.317308" ry="292.5"></ellipse>
            <path d="M383.759792,360.586113 C378.896413,369.054422 384.097999,360.75247 383.759792,360.586113 L383.759792,360.586113 L383.759792,360.586113 Z M456.189136,336.773876 C456.189136,337.270055 457.793032,336.493239 456.189136,336.773876 L456.189136,336.773876 L456.189136,336.773876 Z M276.496663,293.269277 C275.969416,293.2172 275.518966,293.172356 275.261988,293.146318 C275.482044,293.169463 275.883756,293.208521 276.496663,293.269277 L276.496663,293.269277 Z M553.458191,303.726641 C531.547141,295.103547 501.151392,299.314556 479.915277,308.316655 C476.357463,309.825443 473.508554,310.52993 473.508554,310.52993 C473.508554,310.52993 469.212299,304.055016 467.914118,301.484434 C465.161206,296.029362 462.823299,290.347175 461.417305,284.407497 C458.922848,273.867678 459.581538,260.25676 463.502665,250.217459 C464.536484,247.570209 469.345218,240.198411 466.039952,237.740663 C462.954741,235.446379 457.977642,235.172975 454.288386,234.89957 C449.956686,234.578428 445.226226,234.436663 440.994954,235.569339 C432.736218,237.779721 432.860277,241.414989 430.50317,248.847543 C422.387692,274.421721 407.150681,296.482143 394.397787,319.908141 C386.621993,317.62109 384.71829,295.575134 384.752258,289.512496 C384.787703,282.843739 385.892413,276.190894 387.813839,269.801328 C389.070667,265.61925 391.337684,260.742812 390.807483,256.293117 C390.032118,249.777697 376.416725,251.147613 372.183976,251.535298 C363.38027,252.342493 358.714794,253.653099 355.579369,262.762245 C340.526968,306.480939 302.556281,383.026987 298.670599,384.399796 C293.635902,373.63865 306.10671,336.23864 308.710456,328.968103 C310.467948,324.05984 314.951768,315.283409 313.35821,309.984568 C310.546223,300.60057 300.60384,305.015548 294.112935,306.016585 C295.229459,298.100871 296.825971,287.96465 293.154437,280.464106 C282.482474,258.666963 245.52936,281.605462 236.137855,294.22547 C233.260885,298.090745 229.819745,302.212066 224.541362,306.291436 C214.3996,314.129034 170.485932,333.7563 170.485932,333.7563 C170.485932,333.7563 152.688003,316.818236 146.216297,311.47455 C145.687573,311.037682 145.152941,310.605153 144.615355,310.17841 C135.355293,302.823972 124.884185,296.791712 115.60197,288.881785 C106.086406,280.776569 96.9873239,271.871391 90.7090902,261.053828 C76.2430117,236.127721 87.1261697,215.036511 100.196593,192.854575 C105.105755,184.523692 110.412199,181.786753 115.017123,175.954122 C118.338636,171.747453 126.383223,165.149578 132.033781,161.155557 C154.816193,145.046385 178.561533,131.946111 202.643603,120.50941 C217.009254,113.687314 232.100054,108.414512 247.329682,103.782547 C261.255221,99.5483921 274.880952,98.5806266 289.109252,96.7116387 C310.905106,93.8488469 343.229665,96.5105634 358.242191,114.529227 C374.941318,134.57311 357.203942,164.105144 343.452675,180.674329 C327.92324,199.3888 306.517284,212.201204 283.912098,221.157012 C259.342656,230.891083 230.865379,238.051679 204.451309,231.597016 C197.644351,229.933444 191.411901,227.247135 185.361107,223.805709 C182.59195,222.230378 175.203099,214.360955 173.215213,215.026384 C167.149651,217.058836 177.094987,234.080803 181.163803,234.080803 C181.163803,237.072341 189.091716,240.588989 192.525471,243.055417 C197.854069,246.883081 204.036305,248.320986 210.404629,249.651844 C223.748275,252.44086 237.480342,252.756216 251.140042,251.3863 C307.351723,245.751851 359.804734,209.303694 374.40964,187.769829 C378.084127,182.350921 381.848704,176.932013 384.774411,171.076237 C390.173899,160.26446 393.278309,148.27227 394.022659,136.268507 C395.602925,110.782572 385.257353,89.1995225 361.699576,77.3881555 C355.848162,74.454481 349.730909,72.0574895 343.581164,69.7979237 C318.451983,60.5658178 277.444823,61.1748301 250.010226,68.1169918 C236.000505,71.6625718 222.879867,75.8822604 209.199491,81.0060647 C165.455665,97.3857474 119.783028,120.494944 87.5131133,151.289847 C73.5757592,164.58975 60.0932855,181.0678 51.1241691,197.943661 C39.1230099,220.523408 39.2441144,242.850002 53.6009035,264.320217 C67.2990023,284.803862 88.5380707,301.591481 109.24103,314.450176 C114.389448,317.650022 120.134526,321.965185 125.151501,325.761024 C129.369482,328.953638 135.209081,331.945176 138.616252,335.28534 C141.231814,337.848689 150.771008,344.21511 150.771008,344.21511 C150.771008,344.21511 133.670168,354.767948 129.144996,357.002922 C124.185619,359.450544 96.7111466,379.595687 87.4318846,386.398977 C70.5451933,398.780299 56.9386613,420.007488 60.7194843,442.386159 C64.5933509,465.320318 84.6184207,481.293511 118.986988,472.49538 C144.324409,466.010339 160.228972,451.949533 175.200145,433.501233 C185.310893,421.043243 192.300985,395.596365 188.760894,378.941831 C188.760894,370.843848 188.119926,364.614853 185.164681,357.018834 C183.968405,353.946288 181.351367,349.35772 184.58722,346.908651 C188.738741,343.766669 194.371576,341.713964 198.816997,338.787523 C202.054327,336.655256 209.255613,331.317358 213.070404,331.317358 C212.943392,337.798059 210.335215,345.122119 209.051803,351.53917 C207.415415,359.713822 206.993027,367.102979 206.993027,375.471473 C206.997457,389.496116 211.4798,408.735697 221.936139,419.096139 C232.81782,429.877538 248.012002,423.608038 254.443832,414.215361 C258.604214,408.141151 261.169561,400.397581 264.752482,393.921219 C267.828831,388.3591 269.45488,380.297281 273.342039,375.471473 C275.003533,380.459299 273.378961,387.11793 273.467574,392.357461 C273.695014,405.935108 279.983586,416.784496 285.498271,417.143249 C299.917089,417.276335 306.822999,404.458145 312.749734,393.62033 C321.950721,376.787866 331.486961,360.2317 340.041073,343.054949 C344.324036,334.453554 347.186238,326.032982 351.315605,317.476432 C354.075901,311.750848 355.997327,303.489401 359.953899,298.575351 C365.535044,312.945727 367.644034,328.048075 375.387337,341.644528 C379.230189,348.391401 370.482605,353.257713 366.537848,358.604292 C361.497243,365.43362 355.539493,371.528083 349.927334,377.894503 C342.851583,385.924497 330.931653,396.86936 339.989382,406.753875 C347.051841,414.462727 369.309959,406.915893 377.33387,403.350061 C401.901835,392.431237 413.749398,369.790734 405.17904,343.995229 C404.511489,341.984476 403.629789,339.730696 401.993402,338.262412 C408.233236,327.323336 415.570396,316.805216 419.261129,310.253633 C422.697838,304.15483 433.315157,282.202902 435.927765,282.202902 C437.637996,290.542464 442.790845,305.838655 450.110282,321.891409 C436.796173,332.520916 419.72044,363.068453 419.72044,370.509687 C417.084202,379.805442 419.910958,392.450042 432.399489,391.761468 C443.291508,391.159688 461.181004,382.483071 468.589054,374.526853 C472.888263,369.909354 480.475016,363.926278 482.934028,354.969023 C484.731396,348.426119 483.759606,341.333513 482.099588,334.867277 C480.637473,329.173519 476.893572,325.975119 483.242697,323.364033 C493.341629,319.212334 504.598439,317.832292 515.471259,317.609518 C539.297828,317.126358 565.202373,321.510957 580.786452,340.740413 C586.688081,348.034095 591.801053,357.321171 590.390629,367.385063 C589.63151,372.796738 585.926008,378.620689 582.230845,382.578546 C578.999423,386.043117 572.424335,387.201832 570.656505,391.838137 C569.135315,391.838137 574.001647,393.786687 576.222881,393.267363 C578.473652,392.742253 580.412801,391.547373 582.320935,390.319223 C586.335105,387.735622 589.184014,386.82138 592.204242,383.392973 C599.853024,374.716356 603.221797,361.35425 600.858782,350.24303 C595.763533,326.276009 575.942273,312.573955 553.458191,303.726641 Z M164.833897,396.258901 C161.243592,406.525315 155.743676,416.082903 148.035818,423.92918 C141.174215,430.913293 132.645211,437.04826 123.498868,440.825293 C97.7316735,451.46348 85.034902,438.422516 96.0731328,417.141803 C101.573049,406.558586 108.382961,396.590169 117.300386,388.432876 C125.353834,381.065418 133.671645,377.435936 141.307135,371.601858 C147.818716,366.627052 165.971097,357.609041 165.971097,357.609041 C165.971097,357.609041 169.440298,383.087744 164.833897,396.258901 L164.833897,396.258901 Z M267.790432,344.815443 C262.569647,357.610488 253.839786,380.861449 246.29734,388.184063 C243.667009,390.737286 242.365875,393.359944 239.25408,389.704424 C237.635415,387.803611 236.781776,385.316931 236.179208,382.953211 C231.946458,366.334842 235.705128,346.881166 242.60956,331.738314 C264.343385,284.05887 279.928941,293.613565 279.928941,293.613565 C280.757473,305.443737 272.201885,334.002219 267.790432,344.815443 L267.790432,344.815443 Z M357.42252,391.84103 C358.676395,387.3002 366.078537,381.92035 369.208054,378.410934 C374.309212,372.68969 379.927278,367.260657 383.759792,360.58756 C391.544448,364.399311 367.99701,395.44592 357.42252,391.84103 L357.42252,391.84103 Z M452.622461,365.748975 C449.199044,369.647522 435.329627,379.342535 436.924661,369.052976 C438.100261,361.471423 443.021238,355.010974 447.072331,348.680718 C449.594849,344.737327 456.189136,339.014637 456.189136,336.775323 C457.124003,336.656703 457.967304,336.323989 458.721992,335.781519 C462.507246,345.955352 459.75138,357.63074 452.622461,365.748975 L452.622461,365.748975 Z" id="Shape-2" fill="#CC6699" sketch:type="MSShapeGroup"></path>
        </g>
        <g id="SLICES" sketch:type="MSLayerGroup" transform="translate(-2543.000000, -1228.000000)"></g>
    </g>
</svg>