<?xml version="1.0" encoding="UTF-8" standalone="no"?>
<svg width="46px" height="45px" viewBox="0 0 46 45" version="1.1" xmlns="http://www.w3.org/2000/svg" xmlns:xlink="http://www.w3.org/1999/xlink" xmlns:sketch="http://www.bohemiancoding.com/sketch/ns">
    <!-- Generator: Sketch 3.2.2 (9983) - http://www.bohemiancoding.com/sketch -->
    <title>sass</title>
    <desc>Created with Sketch.</desc>
    <defs>
        <radialGradient cx="50%" cy="50%" fx="50%" fy="50%" r="50%" id="radialGradient-1">
            <stop stop-color="#FFFFFF" offset="0%"></stop>
            <stop stop-color="#FFFFFF" offset="65.4283062%"></stop>
            <stop stop-color="#E0E0E0" offset="100%"></stop>
        </radialGradient>
    </defs>
    <g id="Page-1" stroke="none" stroke-width="1" fill="none" fill-rule="evenodd" sketch:type="MSPage">
        <g id="sass" sketch:type="MSLayerGroup" transform="translate(0.861510, 0.608453)">
            <ellipse id="Oval-1" fill="url(#radialGradient-1)" sketch:type="MSShapeGroup" cx="21.9481847" cy="21.9619019" rx="21.9481847" ry="21.9619019"></ellipse>
            <path d="M28.8139996,27.0740404 C28.4488405,27.7098701 28.8393933,27.0865311 28.8139996,27.0740404 L28.8139996,27.0740404 L28.8139996,27.0740404 Z M34.2522428,25.2861362 C34.2522428,25.3233909 34.3726689,25.2650649 34.2522428,25.2861362 L34.2522428,25.2861362 L34.2522428,25.2861362 Z M20.7603165,22.0196618 C20.720729,22.0157517 20.6869077,22.0123847 20.6676129,22.0104296 C20.6841354,22.0121674 20.7142974,22.0151 20.7603165,22.0196618 L20.7603165,22.0196618 Z M41.5555367,22.8048365 C39.9103799,22.1573851 37.628163,22.4735621 36.0336828,23.1494705 C35.76655,23.2627555 35.5526441,23.3156508 35.5526441,23.3156508 C35.5526441,23.3156508 35.2300665,22.829492 35.1325946,22.6364839 C34.9258966,22.2268984 34.7503585,21.8002604 34.6447917,21.354289 C34.4574993,20.5629233 34.506956,19.5409689 34.8013677,18.7871839 C34.8789903,18.5884192 35.2400466,18.0349194 34.9918759,17.8503833 C34.7602277,17.6781206 34.38653,17.6575924 34.1095281,17.6370643 C33.7842891,17.6129519 33.42911,17.6023076 33.1114116,17.6873528 C32.4913175,17.8533159 32.5006322,18.1262643 32.3236525,18.6843259 C31.7143147,20.6045227 30.5702677,22.2608948 29.6127368,24.019799 C29.0289035,23.8480794 28.8859669,22.1927934 28.8885174,21.7375898 C28.8911787,21.2368767 28.9741241,20.7373583 29.1183913,20.2576078 C29.2127583,19.9436031 29.3829737,19.5774634 29.3431644,19.243365 C29.2849474,18.754165 28.262657,18.857023 27.9448477,18.8861317 C27.2838353,18.9467387 26.9335354,19.0451435 26.698117,19.7290894 C25.5679311,23.0116386 22.7169619,28.7589781 22.4252116,28.8620534 C22.0471892,28.0540696 22.9835402,25.2459488 23.1790384,24.700052 C23.310997,24.3315228 23.6476575,23.6725582 23.5280077,23.2747031 C23.3168741,22.5701204 22.5703659,22.9016121 22.0830066,22.9767733 C22.166839,22.3824345 22.2867106,21.6213722 22.0110393,21.0582057 C21.2097517,19.4216015 18.4351853,21.1439026 17.730039,22.0914561 C17.5140262,22.3816742 17.2556536,22.6911171 16.8593345,22.9974101 C16.0978563,23.5858838 12.8006677,25.0595662 12.8006677,25.0595662 C12.8006677,25.0595662 11.4643382,23.7877983 10.9784204,23.3865761 C10.938722,23.3537745 10.89858,23.3212987 10.8582162,23.2892574 C10.162939,22.737061 9.37673238,22.2841383 8.67979183,21.6902339 C7.96533073,21.0816665 7.28214048,20.4130352 6.81074918,19.6008156 C5.72458646,17.729278 6.54173124,16.1456777 7.52310338,14.4801821 C7.8917001,13.8546708 8.2901261,13.6491721 8.63587958,13.2112381 C8.88527008,12.895387 9.48928523,12.399996 9.91354848,12.1001112 C11.62413,10.8905794 13.4070115,9.90696596 15.2151758,9.04825924 C16.2937981,8.53603297 17.426867,8.14013289 18.5703596,7.79234907 C19.6159368,7.47443424 20.6390034,7.4017711 21.7073129,7.26144109 C23.3438203,7.04649287 25.7708589,7.24634367 26.8980507,8.59924664 C28.1518784,10.10421 26.8200954,12.3215763 25.7876032,13.5656475 C24.6216,14.970794 23.0143675,15.9327932 21.3170927,16.605226 C19.4723349,17.3360933 17.3341634,17.8737354 15.3509046,17.3890972 C14.8398148,17.2641905 14.3718611,17.0624933 13.9175468,16.8040992 C13.709629,16.685818 13.1548488,16.0949547 13.0055915,16.1449174 C12.5501683,16.2975209 13.2968982,17.5755884 13.6023988,17.5755884 C13.6023988,17.8002034 14.1976537,18.0642454 14.4554718,18.2494332 C14.8555611,18.5368273 15.3197446,18.6447902 15.7979002,18.7447156 C16.7997869,18.9541245 17.8308375,18.9778024 18.8564546,18.8749444 C23.0770201,18.4518907 27.0153718,15.7152382 28.1119582,14.0984019 C28.3878513,13.6915317 28.6705086,13.2846616 28.8901807,12.8449898 C29.2955928,12.0332046 29.5286825,11.1327899 29.5845708,10.2315063 C29.7032226,8.31793493 28.9264416,6.69740567 27.1576431,5.81056778 C26.7182988,5.59029745 26.2589945,5.41032312 25.7972506,5.24066718 C23.9104656,4.54748905 20.8315076,4.59321578 18.7716241,5.11445706 C17.7197262,5.38067135 16.7345838,5.69750002 15.7074143,6.0822128 C12.422978,7.31205548 8.99372002,9.04717309 6.57078429,11.3593599 C5.52432001,12.3579621 4.5120097,13.5951906 3.83857772,14.8622881 C2.93748959,16.5576528 2.94658253,18.2340099 4.02453943,19.8460672 C5.05303961,21.3840494 6.64774161,22.6445214 8.20219072,23.6099962 C8.58875154,23.8502517 9.02011172,24.1742489 9.39680338,24.4592535 C9.71350381,24.6989658 10.1519609,24.9235807 10.407783,25.1743718 C10.6041683,25.3668368 11.3204037,25.8448495 11.3204037,25.8448495 C11.3204037,25.8448495 10.0364141,26.6371927 9.69664861,26.8050022 C9.32428164,26.988778 7.26140414,28.5013444 6.56468537,29.0121587 C5.29677474,29.9417907 4.27514971,31.5356008 4.55902685,33.215868 C4.84989003,34.9378433 6.35344086,36.1371653 8.93395058,35.4765715 C10.836371,34.9896524 12.0305401,33.9339189 13.154627,32.5487574 C13.9137766,31.6133688 14.4386166,29.7027301 14.1728145,28.4522506 C14.1728145,27.8442263 14.1246884,27.376532 13.9027985,26.8061969 C13.812978,26.5754996 13.6164818,26.2309742 13.8594407,26.0470898 C14.1711511,25.8111789 14.5940837,25.6570549 14.9278611,25.4373276 C15.1709309,25.2772298 15.7116281,24.876442 15.9980557,24.876442 C15.9885192,25.3630353 15.7926884,25.9129508 15.6963254,26.394765 C15.5734598,27.0085459 15.5417454,27.563349 15.5417454,28.1916843 C15.5420781,29.2447025 15.8786277,30.6892761 16.6637255,31.4671736 C17.4807593,32.2766779 18.6215906,31.8059424 19.1045144,31.1007081 C19.4168901,30.6446355 19.6095052,30.0632218 19.8785232,29.5769544 C20.109506,29.1593314 20.2315953,28.5540225 20.5234565,28.1916843 C20.6482072,28.5661873 20.5262288,29.0661401 20.5328821,29.4595421 C20.5499591,30.4789983 21.0221266,31.2936075 21.4361881,31.3205439 C22.5188023,31.3305365 23.0373217,30.3681029 23.4823212,29.5543626 C24.1731629,28.2905235 24.8891764,27.0474299 25.5314484,25.7577406 C25.853028,25.1119184 26.0679319,24.479673 26.3779789,23.8372179 C26.5852314,23.4073215 26.7294987,22.7870237 27.0265717,22.41806 C27.4456231,23.4970371 27.6039733,24.6309731 28.185367,25.6518414 C28.4739015,26.1584197 27.817103,26.5237991 27.5209171,26.9252385 C27.1424512,27.4380078 26.6951229,27.895601 26.2737428,28.3736137 C25.7424712,28.9765331 24.847482,29.7983109 25.5275673,30.5404742 C26.0578409,31.1192812 27.7290567,30.552639 28.3315194,30.2849041 C30.1761663,29.4650814 31.065722,27.7651549 30.4222302,25.82834 C30.3721081,25.6773658 30.3059071,25.5081443 30.1830415,25.3979005 C30.6515497,24.5765572 31.2024487,23.7868207 31.4795616,23.2949054 C31.7376015,22.8369864 32.5347862,21.1887604 32.7309497,21.1887604 C32.8593597,21.8149234 33.2462532,22.9634138 33.7958216,24.1687095 C32.7961527,24.9668093 31.5140482,27.260423 31.5140482,27.8191363 C31.3161105,28.5170935 31.528353,29.4664934 32.4660347,29.4147929 C33.2838448,29.3696092 34.6270494,28.7181391 35.1832711,28.120759 C35.5060705,27.7740613 36.0757099,27.3248315 36.2603409,26.6522901 C36.3952935,26.1610264 36.3223282,25.6284892 36.1976884,25.1429822 C36.0879077,24.7154752 35.8068028,24.4753285 36.2835168,24.2792792 C37.0417793,23.9675554 37.8869791,23.8639371 38.7033477,23.8472104 C40.4923281,23.8109332 42.43733,24.1401439 43.6074361,25.5839573 C44.0505506,26.1315919 44.4344501,26.8288974 44.3285506,27.5845289 C44.2715534,27.990856 43.9933316,28.4281382 43.7158861,28.7253076 C43.4732598,28.9854395 42.9795797,29.0724398 42.846845,29.4205494 C42.7326288,29.4205494 43.0980097,29.5668532 43.2647875,29.5278606 C43.4337831,29.4884335 43.5793811,29.3987179 43.7226503,29.3065041 C44.024048,29.1125185 44.2379539,29.0438741 44.4647229,28.7864576 C45.0390197,28.1349875 45.2919586,27.1317148 45.1145354,26.2974463 C44.7319666,24.4979203 43.2437185,23.4691232 41.5555367,22.8048365 Z M12.3762935,29.7524755 C12.1067212,30.5233131 11.6937686,31.2409295 11.1150363,31.8300549 C10.5998436,32.354446 9.95945674,32.8150803 9.27271802,33.0986729 C7.33802879,33.8974244 6.3847117,32.9182641 7.21349987,31.3204353 C7.6264524,30.5258112 8.13776392,29.7773483 8.80731476,29.1648707 C9.41199524,28.6116968 10.0365249,28.3391829 10.6098237,27.9011403 C11.0987355,27.5276149 12.4616785,26.8505117 12.4616785,26.8505117 C12.4616785,26.8505117 12.7221579,28.7635399 12.3762935,29.7524755 L12.3762935,29.7524755 Z M20.1066229,25.8899245 C19.7146285,26.8506203 19.0591606,28.5963821 18.4928479,29.146189 C18.2953537,29.3378937 18.19766,29.5348119 17.9640158,29.2603429 C17.8424809,29.1176234 17.7783868,28.930915 17.7331439,28.7534388 C17.4153345,27.5056747 17.6975483,26.0450261 18.2159568,24.9080489 C19.8478068,21.3281129 21.0180237,22.0455121 21.0180237,22.0455121 C21.0802327,22.933762 20.4378498,25.0780307 20.1066229,25.8899245 L20.1066229,25.8899245 Z M26.8365071,29.4207667 C26.9306522,29.0798255 27.4864305,28.675888 27.7214053,28.4123891 C28.1044177,27.9828185 28.5262414,27.575188 28.8139996,27.0741491 C29.3984982,27.3603484 27.6304759,29.6914341 26.8365071,29.4207667 L26.8365071,29.4207667 Z M33.9844447,27.4616858 C33.7274028,27.7544021 32.6860394,28.4823368 32.8058001,27.7097615 C32.8940682,27.1405126 33.263552,26.6554399 33.5677219,26.1801426 C33.7571212,25.8840593 34.2522428,25.4543801 34.2522428,25.2862448 C34.3224359,25.2773384 34.3857538,25.252357 34.4424184,25.2116266 C34.7266282,25.9755128 34.5197083,26.8521409 33.9844447,27.4616858 L33.9844447,27.4616858 Z" id="Shape-2" fill="#CC6699" sketch:type="MSShapeGroup"></path>
        </g>
    </g>
</svg>