<?xml version="1.0" encoding="UTF-8" standalone="no"?>
<svg width="62px" height="62px" viewBox="0 0 62 62" version="1.1" xmlns="http://www.w3.org/2000/svg" xmlns:xlink="http://www.w3.org/1999/xlink" xmlns:sketch="http://www.bohemiancoding.com/sketch/ns">
    <!-- Generator: Sketch 3.2.2 (9983) - http://www.bohemiancoding.com/sketch -->
    <title>sublime</title>
    <desc>Created with Sketch.</desc>
    <defs>
        <filter x="-50%" y="-50%" width="200%" height="200%" filterUnits="objectBoundingBox" id="filter-1">
            <feOffset dx="0" dy="4" in="SourceAlpha" result="shadowOffsetOuter1"></feOffset>
            <feGaussianBlur stdDeviation="5" in="shadowOffsetOuter1" result="shadowBlurOuter1"></feGaussianBlur>
            <feColorMatrix values="0 0 0 0 0   0 0 0 0 0   0 0 0 0 0  0 0 0 0.35 0" in="shadowBlurOuter1" type="matrix" result="shadowMatrixOuter1"></feColorMatrix>
            <feMorphology radius="1" in="SourceAlpha" operator="dilate" result="shadowSpreadInner1"></feMorphology>
            <feOffset dx="0" dy="3" in="shadowSpreadInner1" result="shadowOffsetInner1"></feOffset>
            <feGaussianBlur stdDeviation="3.5" in="shadowOffsetInner1" result="shadowBlurInner1"></feGaussianBlur>
            <feComposite in="shadowBlurInner1" in2="SourceAlpha" operator="arithmetic" k2="-1" k3="1" result="shadowInnerInner1"></feComposite>
            <feColorMatrix values="0 0 0 0 0   0 0 0 0 0   0 0 0 0 0  0 0 0 0.35 0" in="shadowInnerInner1" type="matrix" result="shadowMatrixInner1"></feColorMatrix>
            <feMerge>
                <feMergeNode in="shadowMatrixOuter1"></feMergeNode>
                <feMergeNode in="SourceGraphic"></feMergeNode>
                <feMergeNode in="shadowMatrixInner1"></feMergeNode>
            </feMerge>
        </filter>
        <linearGradient x1="50%" y1="0%" x2="50%" y2="100%" id="linearGradient-2">
            <stop stop-color="#3F3F3F" offset="0%"></stop>
            <stop stop-color="#1A1A1A" offset="100%"></stop>
        </linearGradient>
        <filter x="-50%" y="-50%" width="200%" height="200%" filterUnits="objectBoundingBox" id="filter-3">
            <feOffset dx="0" dy="4" in="SourceAlpha" result="shadowOffsetOuter1"></feOffset>
            <feGaussianBlur stdDeviation="3" in="shadowOffsetOuter1" result="shadowBlurOuter1"></feGaussianBlur>
            <feColorMatrix values="0 0 0 0 0   0 0 0 0 0   0 0 0 0 0  0 0 0 0.7 0" in="shadowBlurOuter1" type="matrix" result="shadowMatrixOuter1"></feColorMatrix>
            <feMorphology radius="1" in="SourceAlpha" operator="dilate" result="shadowSpreadInner1"></feMorphology>
            <feOffset dx="0" dy="10" in="shadowSpreadInner1" result="shadowOffsetInner1"></feOffset>
            <feGaussianBlur stdDeviation="3.5" in="shadowOffsetInner1" result="shadowBlurInner1"></feGaussianBlur>
            <feComposite in="shadowBlurInner1" in2="SourceAlpha" operator="arithmetic" k2="-1" k3="1" result="shadowInnerInner1"></feComposite>
            <feColorMatrix values="0 0 0 0 0   0 0 0 0 0   0 0 0 0 0  0 0 0 0.7 0" in="shadowInnerInner1" type="matrix" result="shadowMatrixInner1"></feColorMatrix>
            <feMerge>
                <feMergeNode in="shadowMatrixOuter1"></feMergeNode>
                <feMergeNode in="SourceGraphic"></feMergeNode>
                <feMergeNode in="shadowMatrixInner1"></feMergeNode>
            </feMerge>
        </filter>
        <linearGradient x1="50%" y1="0%" x2="50%" y2="100%" id="linearGradient-4">
            <stop stop-color="#FF9808" offset="0%"></stop>
            <stop stop-color="#FF7B08" offset="100%"></stop>
        </linearGradient>
        <filter x="-50%" y="-50%" width="200%" height="200%" filterUnits="objectBoundingBox" id="filter-5">
            <feOffset dx="0" dy="2" in="SourceAlpha" result="shadowOffsetOuter1"></feOffset>
            <feGaussianBlur stdDeviation="2" in="shadowOffsetOuter1" result="shadowBlurOuter1"></feGaussianBlur>
            <feColorMatrix values="0 0 0 0 0   0 0 0 0 0   0 0 0 0 0  0 0 0 0.7 0" in="shadowBlurOuter1" type="matrix" result="shadowMatrixOuter1"></feColorMatrix>
            <feOffset dx="0" dy="1" in="SourceAlpha" result="shadowOffsetInner1"></feOffset>
            <feGaussianBlur stdDeviation="1.5" in="shadowOffsetInner1" result="shadowBlurInner1"></feGaussianBlur>
            <feComposite in="shadowBlurInner1" in2="SourceAlpha" operator="arithmetic" k2="-1" k3="1" result="shadowInnerInner1"></feComposite>
            <feColorMatrix values="0 0 0 0 1   0 0 0 0 1   0 0 0 0 1  0 0 0 0.7 0" in="shadowInnerInner1" type="matrix" result="shadowMatrixInner1"></feColorMatrix>
            <feMerge>
                <feMergeNode in="shadowMatrixOuter1"></feMergeNode>
                <feMergeNode in="SourceGraphic"></feMergeNode>
                <feMergeNode in="shadowMatrixInner1"></feMergeNode>
            </feMerge>
        </filter>
    </defs>
    <g id="Page-1" stroke="none" stroke-width="1" fill="none" fill-rule="evenodd" sketch:type="MSPage">
        <g id="sublime" sketch:type="MSLayerGroup" transform="translate(9.953659, 5.355420)">
            <g id="Oval-13-+-Oval-14" sketch:type="MSShapeGroup">
                <ellipse id="Oval-13" fill="#FFFFFF" filter="url(#filter-1)" cx="21.4684825" cy="21.4684825" rx="21.4684825" ry="21.4684825"></ellipse>
                <ellipse id="Oval-14" fill="url(#linearGradient-2)" filter="url(#filter-3)" cx="21.4684825" cy="21.4684825" rx="19.6124177" ry="19.6124177"></ellipse>
            </g>
            <path d="M11.9235047,27.6654213 C12.1855994,28.7108971 12.683668,29.6293623 13.4147871,30.4158641 C14.1375077,31.1933311 14.978702,31.7856207 15.9353571,32.190044 C16.8616741,32.5816419 17.7843754,32.8700873 18.7032749,33.0549822 C19.6209654,33.2396339 20.5317512,33.3320573 21.4352824,33.3320573 C22.2726541,33.3320573 23.107386,33.2629517 23.9392646,33.12478 C24.7807178,32.985018 25.6307511,32.7381049 26.4891141,32.3846303 C27.3557991,32.0277286 28.116817,31.5840463 28.7708565,31.0531231 C29.4416889,30.508568 29.9889636,29.8009672 30.4123922,28.9348062 C30.8388148,28.0625205 31.0513031,27.0882741 31.0513031,26.0169838 C31.0513031,25.006403 30.8818241,24.1280845 30.538522,23.3847408 C29.8688583,21.8986367 28.4443742,20.9022525 26.3104609,20.3923054 C25.4923762,20.1961059 23.9930904,19.9927067 21.7977282,19.7782246 C21.2965104,19.7331882 20.8978231,19.6968619 20.5983862,19.6689385 C20.3036379,19.6414524 19.9369861,19.6000011 19.4989724,19.5446007 C19.0695915,19.4902921 18.7269206,19.4337315 18.4732705,19.3758024 C18.2098721,19.3156469 17.9052328,19.238711 17.5596699,19.1450256 C17.243455,19.0592967 16.9986354,18.9637835 16.82757,18.8627778 C16.6340878,18.748536 16.4291347,18.6095481 16.2130733,18.4457641 C16.0273628,18.3049875 15.8902447,18.1562913 15.7982721,18.0002664 C15.6950108,17.8250909 15.6070064,17.6168874 15.5352927,17.3752173 C15.4662077,17.1424054 15.4311545,16.8844552 15.4311545,16.6004049 C15.4311545,16.0861772 15.557078,15.6274813 15.809688,15.215321 C16.0715658,14.7880394 16.4004894,14.445794 16.798982,14.1846674 C17.2216434,13.9077033 17.701432,13.6739332 18.2390574,13.4837775 C18.7839986,13.2910342 19.2969167,13.1579191 19.7775147,13.083881 C20.2647674,13.0088178 20.7258464,12.971433 21.1607095,12.971433 C21.7928936,12.971433 22.394207,13.0093981 22.9646888,13.085161 C23.5286782,13.1600618 24.1271721,13.2971528 24.7599762,13.496875 C25.3596503,13.6861409 25.8814714,13.9757839 26.3291233,14.3668089 C26.7672348,14.7495004 27.0836893,15.2113269 27.2824194,15.7580263 C27.5025537,16.2919904 27.9181987,16.5996756 28.4810465,16.6616106 L28.6809568,16.664209 C29.1416744,16.664209 29.5544408,16.4900981 29.8982826,16.1553962 C30.1738101,15.8841338 30.3191086,15.5559498 30.3191086,15.1904358 C30.3191086,15.0056781 30.2849641,14.8178175 30.2185846,14.6279055 C29.8844951,13.6435575 29.3760418,12.7938433 28.6955041,12.086925 C28.0166312,11.381736 27.2291347,10.8540099 26.3363566,10.5065756 C25.4759458,10.1717373 24.6242785,9.93166162 23.7815213,9.7867619 C22.9431433,9.64261509 22.0593336,9.57068226 21.1302014,9.57068226 C20.3176158,9.57068226 19.5027891,9.65483144 18.6861198,9.82296625 C17.8644467,9.99213121 17.0618068,10.2603018 16.2787572,10.6270881 C15.4908525,10.9961486 14.7936097,11.4429683 14.1881678,11.96769 C13.5674777,12.5056271 13.0685712,13.1722575 12.6925023,13.963915 C12.3135917,14.7615546 12.1243428,15.6307591 12.1243428,16.5668342 C12.1243428,17.3286969 12.2280485,18.016398 12.4374612,18.6288694 C12.6435019,19.2314788 12.8956725,19.7442229 13.1960125,20.1665157 C13.5093741,20.6071174 13.9534818,20.9892979 14.5237886,21.3153818 C15.0612704,21.6226974 15.549435,21.8591687 15.9897979,22.0246314 C16.4344735,22.1917145 17.0323407,22.3430862 17.7877112,22.4816194 C18.5302324,22.6177961 19.1254939,22.708929 19.5759498,22.7550383 C20.1114767,22.8098556 21.7485211,22.9738633 21.7485211,22.9738633 C23.7681579,23.1498934 25.1726302,23.3800686 25.9419324,23.6551906 C27.186826,24.1184195 27.7749994,24.8960121 27.7749994,26.0505545 C27.7749994,26.6360441 27.6417661,27.1540595 27.3758413,27.6124973 C27.1032243,28.0824722 26.7619901,28.453021 26.3501412,28.7288774 C25.9158527,29.019764 25.4067225,29.2632327 24.8218715,29.4584113 C24.2263854,29.6571391 23.6551242,29.7935603 23.1081159,29.8681345 C22.5529302,29.9438236 21.9953696,29.9816625 21.4352824,29.9816625 C20.7555544,29.9816625 20.1041294,29.9329729 19.4808574,29.8357673 C18.861661,29.7391973 18.2286953,29.5778444 17.5818345,29.3513636 C16.9707276,29.1374012 16.443651,28.8106832 15.9963484,28.3692204 C15.5561164,27.934736 15.2513939,27.4205903 15.0786745,26.8204073 C14.9757913,26.2421516 14.5830676,25.8354243 13.9713873,25.7101993 C13.8455259,25.6824522 13.7126316,25.6678287 13.579446,25.6678287 C13.1557052,25.6825972 12.7741118,25.8273903 12.4295574,26.0941946 C12.0568329,26.4091501 11.8650239,26.7906888 11.8650239,27.2255287 C11.8650239,27.3636035 11.8849752,27.5099645 11.9235047,27.6654213 Z" id="Path-2" fill="url(#linearGradient-4)" filter="url(#filter-5)" sketch:type="MSShapeGroup"></path>
        </g>
    </g>
</svg>