<svg width="89" height="61" viewBox="0 0 89 61" xmlns="http://www.w3.org/2000/svg"><title>sublime</title><defs><filter x="-50%" y="-50%" width="200%" height="200%" filterUnits="objectBoundingBox" id="a"><feGaussianBlur stdDeviation="5.09" in="SourceGraphic" result="blur"/></filter><linearGradient x1="50%" y1="0%" x2="50%" y2="100%" id="b"><stop stop-color="#3F3F3F" offset="0%"/><stop stop-color="#1A1A1A" offset="100%"/></linearGradient><linearGradient x1="50%" y1="0%" x2="50%" y2="100%" id="c"><stop stop-color="#FF9808" offset="0%"/><stop stop-color="#FF7B08" offset="100%"/></linearGradient></defs><g fill="none" fill-rule="evenodd"><path d="M38.743 22.825c21.397 0 38.743-5.11 38.743-11.412C77.486 5.11 60.14 0 38.743 0 17.346 0 0 5.11 0 11.413s17.346 11.412 38.743 11.412z" transform="translate(5.387 30.086)" fill-opacity=".1" filter="url(#a)" fill="#000"/><g transform="translate(21.954 6.355)"><ellipse stroke="#D2D2D2" fill="#F2F2F2" cx="21.468" cy="21.468" rx="21.468" ry="21.468"/><ellipse fill="url(#b)" cx="21.468" cy="21.468" rx="19.021" ry="19.021"/></g><path d="M34.878 35.02c.262 1.046.76 1.964 1.49 2.75.724.778 1.565 1.37 2.52 1.775.928.392 1.85.68 2.77.865.917.185 1.828.277 2.73.277.84 0 1.673-.07 2.505-.207.842-.14 1.692-.387 2.55-.74.867-.357 1.628-.8 2.282-1.332.67-.544 1.218-1.252 1.64-2.118.428-.872.64-1.847.64-2.918 0-1.01-.17-1.89-.512-2.632-.67-1.486-2.095-2.483-4.23-2.993-.817-.196-2.316-.4-4.51-.614-.502-.045-.9-.08-1.2-.11-.295-.027-.662-.068-1.1-.123-.43-.055-.772-.11-1.026-.17-.263-.06-.568-.136-.913-.23-.317-.086-.56-.18-.732-.282-.194-.114-.4-.253-.615-.417-.186-.14-.323-.29-.415-.445-.103-.175-.19-.383-.263-.625-.07-.233-.105-.49-.105-.775 0-.514.126-.973.38-1.385.26-.427.59-.77.988-1.03.423-.277.902-.51 1.44-.7.545-.194 1.058-.327 1.54-.4.486-.076.947-.114 1.382-.114.632 0 1.233.038 1.804.114.563.075 1.16.212 1.794.412.6.19 1.12.48 1.57.87.437.383.754.844.952 1.39.22.535.636.843 1.2.905l.2.002c.46 0 .872-.175 1.216-.51.276-.27.42-.6.42-.965 0-.184-.033-.372-.1-.562-.334-.984-.842-1.834-1.522-2.54s-1.467-1.234-2.36-1.58c-.86-.336-1.712-.576-2.554-.72-.84-.145-1.723-.217-2.652-.217-.812 0-1.627.084-2.444.252-.822.17-1.624.437-2.407.804-.788.37-1.485.816-2.09 1.34-.622.54-1.12 1.205-1.496 1.997-.38.797-.57 1.666-.57 2.602 0 .762.105 1.45.314 2.062.208.602.46 1.115.76 1.538.313.44.757.822 1.328 1.148.537.308 1.025.544 1.466.71.444.167 1.042.318 1.798.457.742.136 1.337.227 1.788.273l2.173.22c2.02.175 3.424.405 4.193.68 1.245.463 1.833 1.24 1.833 2.396 0 .585-.134 1.103-.4 1.56-.273.47-.614.842-1.026 1.118-.434.29-.943.534-1.528.73-.596.198-1.167.335-1.714.41-.555.075-1.113.113-1.673.113-.68 0-1.332-.05-1.955-.146-.62-.096-1.252-.257-1.9-.484-.61-.214-1.137-.54-1.585-.982-.44-.434-.745-.948-.917-1.55-.103-.577-.496-.984-1.108-1.11-.125-.027-.258-.04-.392-.04-.423.014-.805.158-1.15.425-.372.314-.564.696-.564 1.13 0 .14.02.285.058.44z" id="Path-2" fill="#000"/><path d="M11.924 27.665c.262 1.046.76 1.964 1.49 2.75.724.778 1.565 1.37 2.52 1.775.928.392 1.85.68 2.77.865.917.185 1.828.277 2.73.277.84 0 1.673-.07 2.505-.207.84-.14 1.69-.387 2.55-.74.866-.357 1.627-.8 2.28-1.332.672-.544 1.22-1.252 1.642-2.118.427-.872.64-1.847.64-2.918 0-1.01-.17-1.89-.513-2.632-.67-1.486-2.096-2.483-4.23-2.993-.818-.196-2.317-.4-4.512-.614-.5-.045-.9-.08-1.2-.11-.294-.027-.66-.068-1.1-.123-.428-.055-.77-.11-1.025-.17-.263-.06-.568-.136-.913-.23-.317-.086-.56-.18-.732-.282-.194-.114-.4-.253-.615-.417-.186-.14-.323-.29-.415-.446-.103-.175-.19-.383-.263-.625-.07-.233-.104-.49-.104-.775 0-.514.127-.973.38-1.385.262-.427.59-.77.99-1.03.422-.277.9-.51 1.44-.7.544-.194 1.057-.327 1.538-.4.487-.076.948-.114 1.383-.114.633 0 1.234.04 1.805.115.564.075 1.162.212 1.795.412.6.19 1.12.48 1.57.87.437.383.754.844.952 1.39.22.535.636.843 1.2.905l.2.002c.46 0 .872-.174 1.216-.51.276-.27.42-.598.42-.964 0-.184-.033-.372-.1-.562-.334-.984-.842-1.834-1.522-2.54s-1.467-1.234-2.36-1.58c-.86-.336-1.712-.576-2.554-.72-.84-.145-1.723-.217-2.652-.217-.812 0-1.627.085-2.444.253-.822.17-1.624.437-2.407.804-.79.37-1.486.816-2.092 1.34-.62.54-1.12 1.205-1.495 1.997-.38.798-.57 1.667-.57 2.603 0 .762.105 1.45.314 2.062.207.6.46 1.114.76 1.537.312.44.756.822 1.327 1.148.537.308 1.025.544 1.466.71.444.167 1.042.318 1.798.457.742.136 1.337.227 1.788.273l2.173.22c2.018.175 3.423.405 4.192.68 1.245.463 1.833 1.24 1.833 2.396 0 .586-.133 1.104-.4 1.562-.272.47-.613.84-1.025 1.117-.434.29-.943.533-1.528.728-.596.2-1.167.336-1.714.41-.555.076-1.113.114-1.673.114-.68 0-1.33-.05-1.954-.146-.618-.097-1.25-.258-1.898-.485-.61-.213-1.138-.54-1.586-.98-.44-.435-.745-.95-.917-1.55-.104-.578-.497-.985-1.11-1.11-.124-.028-.257-.042-.39-.042-.424.015-.806.16-1.15.426-.373.315-.565.697-.565 1.132 0 .138.02.284.06.44z" fill="url(#c)" transform="translate(21.954 6.355)"/></g></svg>