<svg width="88" height="60" viewBox="0 0 88 60" xmlns="http://www.w3.org/2000/svg"><title>svg</title><defs><filter x="-50%" y="-50%" width="200%" height="200%" filterUnits="objectBoundingBox" id="a"><feGaussianBlur stdDeviation="5.09" in="SourceGraphic" result="blur"/></filter></defs><g id="Page-1" fill="none" fill-rule="evenodd"><path d="M38.743 22.825c21.397 0 38.743-5.11 38.743-11.412C77.486 5.11 60.14 0 38.743 0 17.346 0 0 5.11 0 11.413s17.346 11.412 38.743 11.412z" transform="translate(5.121 28.453)" fill-opacity=".1" filter="url(#a)" fill="#000"/><path d="M45.035 5.4c2.944 0 5.506 1.68 6.763 4.144 2.618-.824 5.586-.192 7.65 1.872 2.06 2.06 2.694 5.026 1.873 7.64 2.462 1.266 4.133 3.843 4.133 6.824v17.073c0 2.165-1.758 3.92-3.923 3.92H28.583c-2.166 0-3.923-1.755-3.923-3.92V25.816c0-2.936 1.67-5.492 4.12-6.754-.823-2.616-.19-5.583 1.873-7.646 2.056-2.057 5.012-2.692 7.624-1.88 1.258-2.46 3.818-4.137 6.758-4.137zM28.79 19.056l-.01.005.005.014.004-.01.005-.01h-.004zm32.524-.002l.005.01v-.008l-.004-.002h-.002z" id="Shape" fill="#F90"/><path d="M26.817 25.812V41.714c0 1.656 1.344 3.002 3 3.002h30.478c1.66 0 3-1.344 3-3.002V25.86c0-2.955-2.285-5.33-5.157-5.47 1.902-2.132 1.83-5.403-.216-7.45-2.05-2.05-5.332-2.117-7.463-.202-.13-2.884-2.51-5.182-5.425-5.182-2.907 0-5.28 2.285-5.422 5.157-2.132-1.89-5.394-1.813-7.435.228-2.046 2.047-2.117 5.32-.215 7.45-2.867.148-5.146 2.52-5.146 5.422z" fill="#000"/><path d="M61.586 37.13v-7.617c0-.975-.79-1.766-1.766-1.766H30.293c-.977 0-1.765.79-1.765 1.766v4.325c3.967.187 10.083.54 16.422 1.146 5.852.56 12.122 1.45 16.636 2.145z" fill="#525252"/><path d="M29.454 25.824v-.026c0-1.59 1.29-2.88 2.88-2.88.77 0 1.467.3 1.983.792h5.787l-4.066-4.066c-.714-.016-1.424-.297-1.97-.843-1.125-1.123-1.125-2.947 0-4.07 1.125-1.126 2.948-1.126 4.073 0 .544.542.825 1.25.843 1.962l4.057 4.057v-5.79c-.494-.518-.797-1.218-.797-1.99 0-1.59 1.29-2.88 2.88-2.88 1.59 0 2.88 1.29 2.88 2.88 0 .77-.302 1.468-.792 1.984v5.826l4.082-4.08c.016-.716.297-1.426.842-1.97 1.125-1.126 2.948-1.126 4.073 0 1.125 1.123 1.125 2.947 0 4.07-.544.545-1.25.826-1.963.844l-4.07 4.07h5.79c.518-.493 1.22-.796 1.99-.796 1.59 0 2.88 1.29 2.88 2.88v.026h-31.38z" fill="#FFF"/><g fill="#FFF"><path d="M35.736 36.62c-2.456 0-4.804-2.13-4.804-4.722 0-2.594 2.102-4.697 4.696-4.697s4.697 2.104 4.697 4.698h-2.618c0-1.15-.93-2.08-2.08-2.08-1.147 0-2.078.93-2.078 2.08 0 1.014.805 2.102 2.078 2.102 2.825 0 4.697 2.103 4.697 4.697 0 2.593-2.103 4.696-4.697 4.696s-4.696-2.103-4.696-4.696h2.617c0 1.148.93 2.08 2.078 2.08 1.148 0 2.08-.932 2.08-2.08 0-1.108-.634-2.077-1.972-2.077zM40.52 27.327l3.242 15.935h2.556l3.388-15.938H47.15l-2.037 9.86-2.05-9.86-2.542.003zM49.86 31.694c.11-2.5 2.17-4.493 4.696-4.493 2.558 0 4.64 2.047 4.695 4.592h-2.618c-.055-1.1-.963-1.973-2.076-1.973-1.08 0-1.967.82-2.07 1.874l.002 7.088c.108 1.046.993 1.862 2.068 1.862 1.058 0 1.93-.79 2.062-1.813l-.016-2.253h-1.996v-2.55h4.645v4.804c-.143 2.47-2.19 4.432-4.694 4.432-2.484 0-4.518-1.93-4.686-4.37l-.01-7.198z"/></g><g fill="#000"><path d="M35.736 36.522c-2.465 0-4.706-2.147-4.706-4.624 0-2.54 2.06-4.6 4.598-4.6 2.54 0 4.6 2.2 4.6 4.502h-2.423c0-1.032-.863-2.08-2.177-2.08-1.202 0-2.177.975-2.177 2.178 0 1.164.938 2.2 2.178 2.2 2.69 0 4.6 1.976 4.6 4.6 0 2.538-2.06 4.597-4.6 4.597-2.54 0-4.598-2.23-4.598-4.497h2.42c0 1.004.976 2.076 2.178 2.076 1.203 0 2.177-.975 2.177-2.177 0-1.274-.77-2.175-2.07-2.175zm0 .197c1.183-.002 1.873.805 1.873 1.977 0 1.094-.888 1.98-1.982 1.98-1.094 0-1.98-.886-1.98-1.98V38.6h-2.814v.097c0 2.648 2.146 4.794 4.794 4.794 2.648 0 4.795-2.145 4.795-4.793 0-2.73-1.995-4.795-4.795-4.795-1.127 0-1.98-.944-1.98-2.004 0-1.094.886-1.98 1.98-1.98 1.094 0 1.98.885 1.98 2.074h2.815c0-2.74-2.147-4.89-4.795-4.89s-4.794 2.148-4.794 4.796c0 2.587 2.33 4.82 4.902 4.82zM40.52 27.327l3.242 15.935h2.556l3.388-15.938H47.15l-2.037 9.86-2.05-9.86-2.542.003zm3.082 16.13l-3.32-16.326 2.94-.002 1.904 9.053 1.866-9.052h2.956l-3.47 16.33H43.6zM49.86 31.694l.01 7.198c.168 2.44 2.202 4.37 4.686 4.37 2.504 0 4.55-1.96 4.695-4.43v-4.804h-4.644v2.55h1.996l.016 2.253c-.13 1.023-1.004 1.814-2.062 1.814-1.075 0-1.96-.816-2.068-1.862v-7.088c.1-1.053.988-1.875 2.068-1.875 1.113 0 2.02.873 2.076 1.972h2.62c-.057-2.545-2.138-4.59-4.696-4.59-2.526 0-4.586 1.992-4.696 4.492zm-.196 0v-.01c.115-2.61 2.27-4.68 4.892-4.68 2.66 0 4.833 2.128 4.89 4.784l.006.2h-3.006l-.01-.186c-.05-1-.876-1.787-1.88-1.787-.97 0-1.78.738-1.873 1.68v7.066c.1.956.906 1.688 1.873 1.688.95 0 1.748-.708 1.867-1.642l-.002-2.033h-2.01v-2.94h5.037v5.01c-.15 2.584-2.293 4.615-4.89 4.615-2.577 0-4.706-1.997-4.883-4.566l-.01-7.198z"/></g></g></svg>