<svg width="89" height="61" viewBox="0 0 89 61" xmlns="http://www.w3.org/2000/svg"><title>terminal</title><defs><filter x="-50%" y="-50%" width="200%" height="200%" filterUnits="objectBoundingBox" id="a"><feGaussianBlur stdDeviation="5.09" in="SourceGraphic" result="blur"/></filter><linearGradient x1="50%" y1="0%" x2="50%" y2="100%" id="b"><stop stop-color="#D1D1D1" offset="0%"/><stop stop-color="#848484" offset="100%"/></linearGradient></defs><g fill="none" fill-rule="evenodd"><path d="M38.743 22.825c21.397 0 38.743-5.11 38.743-11.412C77.486 5.11 60.14 0 38.743 0 17.346 0 0 5.11 0 11.413s17.346 11.412 38.743 11.412z" transform="translate(5.256 30.086)" fill-opacity=".1" filter="url(#a)" fill="#000"/><g transform="translate(20.348 7.711)"><rect fill="url(#b)" width="47.227" height="39.794" rx="1"/><rect id="Rectangle-6" fill="#282828" x="4.262" y="3.669" width="39.17" height="31.62" rx="1"/><path d="M43.432 12.17v22.12c0 .552-.44 1-1.007 1H5.27c-.556 0-1.008-.448-1.008-1v-6.938l39.17-15.18z" id="Rectangle-6" fill="#000"/><path stroke="#717171" d="M4.262 3.67h39.17v31.62H4.262z"/></g><path d="M36.995 21.717l12.71 5.79-12.71 5.956v3.086l16.137-7.527v-3.04l-16.137-7.534v3.267z" fill="#CAD8E9"/></g></svg>