<?xml version="1.0" encoding="UTF-8" standalone="no"?>
<svg width="66px" height="34px" viewBox="0 0 66 34" version="1.1" xmlns="http://www.w3.org/2000/svg" xmlns:xlink="http://www.w3.org/1999/xlink" xmlns:sketch="http://www.bohemiancoding.com/sketch/ns">
    <!-- Generator: Sketch 3.2.2 (9983) - http://www.bohemiancoding.com/sketch -->
    <title>uiux</title>
    <desc>Created with Sketch.</desc>
    <defs></defs>
    <g id="Page-1" stroke="none" stroke-width="1" fill="none" fill-rule="evenodd" sketch:type="MSPage">
        <g id="uiux" sketch:type="MSLayerGroup" transform="translate(0.412681, 0.013348)">
            <g id="Group" sketch:type="MSShapeGroup">
                <path d="M0.0783177881,14.9570165 C0.776524334,6.01167957 8.9020295,-0.645433049 18.1608554,0.0835587512 C27.3488488,0.802425666 34.1791303,8.53783866 33.4753583,17.3571207 C32.7776577,26.1753903 24.808996,32.8325029 15.6210026,32.2295659 C6.3621767,31.6276415 -0.624948226,23.8927347 0.0783177881,14.9570165" id="Fill-1" fill="#D9262A"></path>
                <path d="M1.36848206,17.2098036 C1.36848206,8.39609026 8.79072121,1.2529831 17.9483578,1.2529831 C27.1059944,1.2529831 34.5282335,8.39609026 34.5282335,17.2098036 C34.5282335,26.023517 27.1059944,33.1666241 17.9483578,33.1666241 C8.79072121,33.1666241 1.36848206,26.023517 1.36848206,17.2098036" id="Fill-3" fill="#5767A2"></path>
                <path d="M18.8944783,9.33264222 L20.3819618,9.33264222 C20.8777896,9.33264222 20.9941574,9.24151825 20.9941574,8.67958707 L20.9941574,6.98873109 C20.9941574,6.42679991 20.8777896,6.33061349 20.3819618,6.33061349 L13.9817351,6.33061349 C13.4353126,6.33061349 13.3037664,6.42679991 13.3037664,6.98873109 L13.3037664,8.67958707 C13.3037664,9.24151825 13.4353126,9.33264222 13.9817351,9.33264222 L15.5957053,9.33264222 L15.5957053,21.4571934 C15.5957053,23.9023533 15.4388618,26.2406958 12.1704457,26.2406958 C8.90708897,26.2406958 8.745186,23.9023533 8.745186,21.4571934 L8.745186,9.33264222 L10.3642157,9.33264222 C10.9106382,9.33264222 11.0421844,9.24151825 11.0421844,8.67958707 L11.0421844,6.98873109 C11.0421844,6.42679991 10.9106382,6.33061349 10.3642157,6.33061349 L3.963989,6.33061349 C3.46816116,6.33061349 3.35179341,6.42679991 3.35179341,6.98873109 L3.35179341,8.67958707 C3.35179341,9.24151825 3.46816116,9.33264222 3.963989,9.33264222 L5.44641305,9.33264222 L5.44641305,21.4571934 C5.44641305,26.4644558 6.72139891,29.2487995 12.1704457,29.2487995 C17.6245519,29.2487995 18.8944783,26.4644558 18.8944783,21.4571934 L18.8944783,9.33264222" id="Fill-4" fill="#FFFEF5"></path>
                <path d="M27.2931947,26.8993196 C27.2931947,26.3378947 27.1768269,26.2406958 26.6809991,26.2406958 L25.1935156,26.2406958 L25.1935156,9.33264222 L26.6809991,9.33264222 C27.1768269,9.33264222 27.2931947,9.24151825 27.2931947,8.67958707 L27.2931947,6.98873109 C27.2931947,6.42679991 27.1768269,6.33061349 26.6809991,6.33061349 L20.4123186,6.33061349 C19.9164907,6.33061349 19.800123,6.42679991 19.800123,6.98873109 L19.800123,8.67958707 C19.800123,9.24151825 19.9164907,9.33264222 20.4123186,9.33264222 L21.8947426,9.33264222 L21.8947426,26.2406958 L20.4123186,26.2406958 C19.9164907,26.2406958 19.800123,26.3378947 19.800123,26.8993196 L19.800123,28.5901756 C19.800123,29.1516006 19.9164907,29.2487995 20.4123186,29.2487995 L26.6809991,29.2487995 C27.1768269,29.2487995 27.2931947,29.1516006 27.2931947,28.5901756 L27.2931947,26.8993196" id="Fill-5" fill="#FFFEF5"></path>
            </g>
            <g id="Group" transform="translate(29.808120, 0.901001)" sketch:type="MSShapeGroup">
                <path d="M0.0502250358,14.7546325 C0.75349105,5.92573181 8.69179591,-0.655444173 17.7234518,0.0532978556 C26.6878167,0.756977441 33.3364632,8.38607913 32.6382567,17.0985436 C31.9354966,25.8059457 24.1484698,32.3871217 15.183093,31.8049407 C6.15194311,31.2126349 -0.64798151,23.5784708 0.0502250358,14.7546325" id="Fill-2" fill="#D9262A"></path>
                <path d="M2.16002308,16.3088025 C2.16002308,7.49508915 9.58226223,0.351981996 18.7398988,0.351981996 C27.8975354,0.351981996 35.3197746,7.49508915 35.3197746,16.3088025 C35.3197746,25.1225159 27.8975354,32.265623 18.7398988,32.265623 C9.58226223,32.265623 2.16002308,25.1225159 2.16002308,16.3088025" id="Fill-6" fill="#18A748"></path>
                <path d="M17.4649129,8.43164112 L18.9675749,8.43164112 C19.4684622,8.43164112 19.5848299,8.34051715 19.5848299,7.77858597 L19.5848299,6.08772998 C19.5848299,5.5257988 19.4684622,5.42961239 18.9675749,5.42961239 L12.4914562,5.42961239 C11.9349147,5.42961239 11.8033686,5.5257988 11.8033686,6.08772998 L11.8033686,7.77858597 C11.8033686,8.34051715 11.9349147,8.43164112 12.4914562,8.43164112 L14.1251583,8.43164112 L14.1251583,20.5561922 C14.1251583,23.0013522 13.9637613,25.3396947 10.6599289,25.3396947 C7.35609643,25.3396947 7.19419347,23.0013522 7.19419347,20.5561922 L7.19419347,8.43164112 L8.82840154,8.43164112 C9.38494299,8.43164112 9.51648915,8.34051715 9.51648915,7.77858597 L9.51648915,6.08772998 C9.51648915,5.5257988 9.38494299,5.42961239 8.82840154,5.42961239 L2.35228285,5.42961239 C1.85139555,5.42961239 1.73502779,5.5257988 1.73502779,6.08772998 L1.73502779,7.77858597 C1.73502779,8.34051715 1.85139555,8.43164112 2.35228285,8.43164112 L3.85545071,8.43164112 L3.85545071,20.5561922 C3.85545071,25.5634547 5.13954362,28.3477984 10.6599289,28.3477984 C16.1798081,28.3477984 17.4649129,25.5634547 17.4649129,20.5561922 L17.4649129,8.43164112" id="Fill-7" fill="#FFFEF4"></path>
                <path d="M34.4950813,25.8717575 C34.4950813,25.4368936 34.4090704,25.3396947 34.0043129,25.3396947 L32.4611753,25.3396947 L28.04426,16.1822414 L31.9400501,8.43164112 L33.5388419,8.43164112 C33.9435993,8.43164112 34.0296103,8.34051715 34.0296103,7.9000846 L34.0296103,5.96116891 C34.0296103,5.5257988 33.9435993,5.42961239 33.5388419,5.42961239 L29.52719,5.42961239 C29.1219266,5.42961239 29.0910638,5.46504949 28.8891911,5.87004493 L26.8249282,10.3199324 C26.5314791,11.0033622 26.2127326,12.1373494 26.0103539,12.9929023 L25.9496403,12.9929023 C25.7169048,12.1373494 25.458872,11.0387993 25.1401255,10.3199324 L23.0763686,5.87004493 C22.8734839,5.46504949 22.8431271,5.42961239 22.4333103,5.42961239 L18.4257059,5.42961239 C18.0169009,5.42961239 17.930384,5.5257988 17.930384,5.96116891 L17.930384,7.9000846 C17.930384,8.34051715 18.0169009,8.43164112 18.4257059,8.43164112 L20.0250036,8.43164112 L23.9157343,16.1822414 L19.498819,25.3396947 L17.9602348,25.3396947 C17.5509239,25.3396947 17.4649129,25.4368936 17.4649129,25.8717575 L17.4649129,27.8157356 C17.4649129,28.2505995 17.5509239,28.3477984 17.9602348,28.3477984 L21.8813223,28.3477984 C22.3467934,28.3477984 22.3776561,28.2505995 22.549678,27.9068596 L25.1401255,22.4596708 C25.372861,21.9483641 25.8332726,20.7435026 25.9496403,20.0600728 L26.0103539,20.0600728 C26.1570785,20.7435026 26.5921927,21.9483641 26.8249282,22.4596708 L29.4103163,27.9068596 C29.5873976,28.2505995 29.6132009,28.3477984 30.078166,28.3477984 L34.0043129,28.3477984 C34.4090704,28.3477984 34.4950813,28.2505995 34.4950813,27.8157356 L34.4950813,25.8717575" id="Fill-8" fill="#FFFEF4"></path>
            </g>
        </g>
    </g>
</svg>