<svg width="89" height="61" viewBox="0 0 89 61" xmlns="http://www.w3.org/2000/svg"><title>uiux</title><defs><filter x="-50%" y="-50%" width="200%" height="200%" filterUnits="objectBoundingBox" id="a"><feGaussianBlur stdDeviation="5.09" in="SourceGraphic" result="blur"/></filter></defs><g fill="none" fill-rule="evenodd"><path d="M38.743 22.825c21.397 0 38.743-5.11 38.743-11.412C77.486 5.11 60.14 0 38.743 0 17.346 0 0 5.11 0 11.413s17.346 11.412 38.743 11.412z" transform="translate(5.256 30.559)" fill-opacity=".1" filter="url(#a)" fill="#000"/><path d="M10.614 27.084c0-9.58 8.203-17.345 18.323-17.345 10.12 0 18.323 7.763 18.323 17.344 0 9.58-8.203 17.345-18.323 17.345-10.12 0-18.323-7.766-18.323-17.346" id="Path" fill="#5767A2"/><path d="M39.84 27.084c0-9.58 8.202-17.345 18.323-17.345 10.12 0 18.323 7.763 18.323 17.344 0 9.58-8.203 17.345-18.323 17.345-10.12 0-18.323-7.766-18.323-17.346" id="Path" fill="#18A748"/><path d="M31.27 19.296c-.085.052-.21.066-.396.066h-1.33V29.86c0 4.334-1.135 6.745-6.01 6.745-4.87 0-6.01-2.41-6.01-6.746V19.36h-1.326c-.443 0-.547-.08-.547-.566v-1.464c0-.486.105-.57.548-.57h5.72c.49 0 .607.084.607.57v1.464c0 .487-.117.566-.606.566H20.47V29.86c0 2.116.145 4.14 3.062 4.14 2.92 0 3.06-2.024 3.06-4.14V19.36h-1.44c-.49 0-.607-.08-.607-.566v-1.464c0-.486.117-.57.606-.57h5.72c.186 0 .312.015.396.068.083-.053.21-.067.394-.067h5.603c.443 0 .547.083.547.57v1.463c0 .487-.104.566-.547.566h-1.33V34h1.33c.443 0 .547.085.547.57v1.465c0 .486-.104.57-.547.57h-5.603c-.443 0-.547-.084-.547-.57V34.57c0-.485.104-.57.547-.57h1.325V19.362h-1.326c-.185 0-.31-.014-.395-.066z" fill-opacity=".3" fill="#FFF"/><path d="M33.108 20.215c-.084.05-.21.065-.395.065h-1.33v10.497c0 4.335-1.135 6.746-6.01 6.746-4.87 0-6.01-2.41-6.01-6.746V20.28h-1.325c-.444 0-.548-.08-.548-.565V18.25c0-.486.104-.57.548-.57h5.72c.49 0 .607.084.607.57v1.465c0 .486-.118.565-.607.565H22.31v10.497c0 2.117.146 4.142 3.063 4.142 2.92 0 3.062-2.026 3.062-4.143V20.28h-1.443c-.488 0-.606-.08-.606-.565V18.25c0-.486.118-.57.606-.57h5.72c.186 0 .312.015.396.068.084-.053.21-.067.395-.067h5.603c.444 0 .548.084.548.57v1.465c0 .486-.104.565-.548.565h-1.33v14.64h1.33c.444 0 .548.083.548.57v1.463c0 .486-.104.57-.548.57h-5.603c-.443 0-.547-.084-.547-.57V35.49c0-.487.104-.57.547-.57h1.325V20.28h-1.325c-.185 0-.31-.014-.395-.065z" fill="#FFF"/><path d="M61.114 22.116h-1.026v10.498c0 4.335-1.07 6.745-5.668 6.745-4.597 0-5.667-2.41-5.667-6.746V22.116H47.5c-.416 0-.513-.08-.513-.565v-1.463c0-.486.097-.57.514-.57h5.395c.464 0 .573.084.573.57v1.464c0 .487-.11.566-.573.566h-1.36v10.498c0 2.117.134 4.14 2.885 4.14 2.752 0 2.887-2.023 2.887-4.14V22.116h-1.36c-.465 0-.574-.08-.574-.565v-1.463c0-.486.11-.57.573-.57H64.226c.34 0 .367.03.536.382l1.72 3.85c.264.624.48 1.575.673 2.315h.05c.17-.74.434-1.722.68-2.314l1.718-3.85c.168-.352.194-.383.53-.383h3.343c.337 0 .408.084.408.46v1.68c0 .38-.07.46-.408.46h-1.332l-3.245 6.71 3.678 7.928h1.285c.337 0 .41.084.41.46V38.9c0 .375-.073.46-.41.46h-3.27c-.387 0-.408-.085-.556-.382l-2.153-4.716c-.194-.443-.556-1.486-.68-2.078h-.05c-.096.592-.48 1.635-.673 2.078l-2.157 4.716c-.143.297-.17.38-.557.38H60.5c-.34 0-.412-.083-.412-.46v-1.682c0-.377.072-.46.413-.46h1.282l3.68-7.93-3.242-6.71h-1.106z" fill-opacity=".3" fill="#FFF"/><path d="M60.198 20.28h-1.025v10.497c0 4.335-1.07 6.746-5.668 6.746s-5.667-2.41-5.667-6.746V20.28h-1.252c-.417 0-.514-.08-.514-.565V18.25c0-.486.097-.57.514-.57h5.394c.463 0 .573.084.573.57v1.465c0 .486-.11.565-.573.565h-1.362v10.497c0 2.117.135 4.142 2.887 4.142s2.886-2.026 2.886-4.143V20.28h-1.36c-.463 0-.573-.08-.573-.565V18.25c0-.486.11-.57.573-.57h8.281c.342 0 .367.03.536.382l1.72 3.853c.265.622.48 1.573.673 2.314h.05c.168-.742.434-1.724.678-2.315l1.72-3.853c.168-.35.193-.38.53-.38h3.342c.337 0 .41.082.41.46v1.678c0 .38-.073.46-.41.46h-1.33l-3.246 6.71 3.68 7.93h1.284c.337 0 .41.083.41.46v1.682c0 .377-.073.46-.41.46h-3.27c-.387 0-.41-.083-.556-.38l-2.154-4.717c-.194-.443-.556-1.486-.678-2.077h-.05c-.098.59-.48 1.634-.675 2.077l-2.157 4.716c-.144.3-.17.383-.557.383h-3.265c-.34 0-.412-.084-.412-.46v-1.684c0-.377.07-.46.412-.46h1.282l3.678-7.93-3.24-6.71h-1.107z" fill="#FFF"/></g></svg>