<?xml version="1.0" encoding="UTF-8" standalone="no"?>
<svg width="1166px" height="786px" viewBox="0 0 1166 786" version="1.1" xmlns="http://www.w3.org/2000/svg" xmlns:xlink="http://www.w3.org/1999/xlink" xmlns:sketch="http://www.bohemiancoding.com/sketch/ns">
    <!-- Generator: Sketch 3.2.2 (9983) - http://www.bohemiancoding.com/sketch -->
    <title>yeoman</title>
    <desc>Created with Sketch.</desc>
    <defs>
        <filter x="-50%" y="-50%" width="200%" height="200%" filterUnits="objectBoundingBox" id="filter-1">
            <feGaussianBlur stdDeviation="41.947955" in="SourceGraphic" result="blur"></feGaussianBlur>
        </filter>
    </defs>
    <g id="Page-1" stroke="none" stroke-width="1" fill="none" fill-rule="evenodd" sketch:type="MSPage">
        <g id="shadow" sketch:type="MSLayerGroup" transform="translate(70.000000, 406.000000)" filter="url(#filter-1)" fill="#000000" fill-opacity="0.170000002">
            <ellipse id="Oval-15" sketch:type="MSShapeGroup" cx="516" cy="152" rx="516" ry="152"></ellipse>
        </g>
        <g id="yeoman" sketch:type="MSLayerGroup" transform="translate(349.000000, 41.000000)">
            <g id="ear-+-ear" transform="translate(4.521989, 236.800566)" sketch:type="MSShapeGroup">
                <g id="ear" transform="translate(304.842923, 0.728090)">
                    <path d="M76.3241031,129.374397 C118.476741,129.374397 152.648206,100.412952 152.648206,64.6871987 C152.648206,28.9614454 118.476741,0 76.3241031,0 C34.1714649,0 0,28.9614454 0,64.6871987 C0,100.412952 34.1714649,129.374397 76.3241031,129.374397 Z" id="Oval-8" fill="#E9A84D"></path>
                    <path d="M121.917878,87.9608998 C135.501073,87.9608998 146.512428,77.4642913 146.512428,64.5160686 C146.512428,51.5678458 135.501073,41.0712373 121.917878,41.0712373 C108.334683,41.0712373 97.3233273,51.5678458 97.3233273,64.5160686 C97.3233273,77.4642913 108.334683,87.9608998 121.917878,87.9608998 Z" id="Oval-7" fill="#DF8829"></path>
                    <path d="M123.574429,41.0471506 C123.574429,41.0471506 112.173776,47.0694481 112.173776,64.4304409 C112.173775,81.7914337 124.370535,87.9368131 124.370535,87.9368131 C124.370535,87.9368131 97.3233273,87.9368131 97.3233273,64.6861912 C97.3233273,41.4355693 123.574429,41.0471506 123.574429,41.0471506 L123.574429,41.0471506 Z" id="Path-102" fill="#BD5D12"></path>
                </g>
                <g id="ear" transform="translate(77.064449, 65.803054) scale(-1, 1) translate(-77.064449, -65.803054) translate(0.642843, 0.728090)">
                    <path d="M76.3241031,129.374397 C118.476741,129.374397 152.648206,100.412952 152.648206,64.6871987 C152.648206,28.9614454 118.476741,0 76.3241031,0 C34.1714649,0 0,28.9614454 0,64.6871987 C0,100.412952 34.1714649,129.374397 76.3241031,129.374397 Z" id="Oval-8" fill="#E9A84D"></path>
                    <ellipse id="Oval-7" fill="#DF8829" cx="119.656884" cy="64.5160686" rx="24.1423517" ry="23.4448313"></ellipse>
                    <path d="M118.952222,41.0471506 C118.952222,41.0471506 108.861102,47.0694481 108.861102,64.4304409 C108.861102,81.7914337 119.656884,87.9368131 119.656884,87.9368131 C119.656884,87.9368131 95.7164475,87.9368131 95.7164475,64.6861912 C95.7164475,41.4355693 118.952222,41.0471506 118.952222,41.0471506 L118.952222,41.0471506 Z" id="Path-102" fill="#BD5D12"></path>
                </g>
            </g>
            <g id="faceCollar" transform="translate(69.638623, 260.299859)" sketch:type="MSShapeGroup">
                <path d="M18.6113334,330.843018 C18.6113334,330.843018 69.0271389,377.267123 167.132889,377.267123 C265.23864,377.267123 311.237541,333.55021 311.237541,333.55021 L332.915484,2.88990896e-14 L0,0 L18.6113334,330.843018 Z" id="Path-105" fill="#F4CF8C"></path>
                <path d="M331.916894,15.3649222 L332.915484,2.88990896e-14 L0,0 L0.864342524,15.3649222 L331.916894,15.3649222 Z" id="Path-109" fill="#C58236"></path>
                <path d="M15.374761,275.664781 L18.6863959,332.717921 C18.6863959,332.717921 69.1022015,377.710009 167.207952,377.710009 C265.313702,377.710009 311.312604,335.341605 311.312604,335.341605 L315.163239,277.920946 C303.404605,287.14004 255.445709,319.871091 167.232479,319.871091 C80.0167958,319.871091 28.8147004,285.89482 15.374761,275.664781 Z" id="Path-107" fill="#DD2029"></path>
                <path d="M167.275812,321.759547 C162.855753,338.939102 161.887189,335.913101 161.887189,352.641606 C161.887189,369.37011 167.275812,378.13089 167.275812,378.13089 C167.275812,378.13089 172.528773,368.725753 172.528773,352.641606 C172.528774,336.557459 171.798407,338.458312 167.275812,321.759547 Z" id="Path-108" fill="#050505"></path>
                <ellipse id="Oval-11" fill="#FFFFFF" cx="194.376885" cy="353.065576" rx="8.27854029" ry="7.01633637"></ellipse>
                <path d="M133.85086,164.00836 C133.85086,164.00836 151.316561,169.981872 166.217303,169.981872 C181.118044,169.981872 198.754111,163.591231 198.754111,163.591231 C198.754111,163.591231 190.273656,178.329815 168.002994,178.329815 C145.732332,178.329815 133.85086,164.00836 133.85086,164.00836 Z" id="Path-103" fill="#C07216"></path>
                <path d="M114.858509,237.466895 C114.858509,237.466895 142.758463,247.009066 166.561116,247.009066 C190.363768,247.009066 218.535868,236.800566 218.535868,236.800566 C218.535868,236.800566 204.989069,260.344187 169.413604,260.344187 C133.838138,260.344187 114.858509,237.466895 114.858509,237.466895 Z" id="Path-101" fill="#C07216"></path>
            </g>
            <g id="hat" sketch:type="MSShapeGroup">
                <path d="M66.7331113,226.340418 L43.5862545,76.1683577 C43.5862545,76.1683577 97.0619739,0.689263846 234.259975,0.00474319696 C371.457975,-0.679777452 426.145236,76.1683577 426.145236,76.1683577 L406.071235,226.340418 L66.7331113,226.340418 Z" id="Path-83" fill="#050505"></path>
                <path d="M0.293408631,224.286856 L9.83392152,260.497998 L456.527625,260.497998 L472.151275,226.360922 L0.293408631,224.286856 Z" id="Path-82" fill="#050505"></path>
                <path d="M65.1687799,225.655897 L57.6794165,161.431285 L415.109683,161.431285 L406.156405,225.655897 L65.1687799,225.655897 Z" id="Path-84" fill="#DD2029"></path>
                <g id="Oval-3-+-Oval-2" transform="translate(179.301068, 116.785583)">
                    <ellipse id="Oval-6" fill="#050505" cx="56.0726577" cy="56.0367751" rx="56.0726577" ry="56.0367751"></ellipse>
                    <ellipse id="Oval-5" fill="#DD2029" cx="56.274358" cy="56.2383462" rx="50.2233517" ry="50.1912122"></ellipse>
                    <ellipse id="Oval-4" fill="#050505" cx="56.274358" cy="56.2383462" rx="42.9621442" ry="42.9346514"></ellipse>
                    <ellipse id="Oval-3" fill="#DD2029" cx="56.274358" cy="56.2383462" rx="36.911138" ry="36.8875174"></ellipse>
                    <ellipse id="Oval-2" fill="#050505" cx="56.0726577" cy="56.0367751" rx="11.2952116" ry="11.2879835"></ellipse>
                    <path d="M55.0004146,39.1144327 L53.6834288,24.4942104 L59.5403247,24.6193088 L58.1042095,39.1660486 C57.4996325,39.1016932 56.8856824,39.0686865 56.2640183,39.0686865 C55.8390353,39.0686865 55.4176574,39.0841118 55.0004146,39.1144327 Z M63.5236354,40.6727944 L69.8091376,27.102518 L74.8188089,30.1393043 L66.1668482,42.2072241 C65.3370792,41.6210555 64.4529992,41.1065717 63.5236354,40.6727944 Z M73.329084,54.2764803 L87.9345931,52.4450231 L88.0139736,58.3027169 L73.4021436,57.3736351 C73.4268889,56.9966607 73.4394563,56.6163637 73.4394563,56.2331334 C73.4394563,55.5715048 73.4019976,54.9186196 73.329084,54.2764803 Z M70.0134039,45.944821 L81.884248,37.2734338 L84.793542,42.3582038 L71.6468896,48.5899527 C71.181733,47.6567679 70.6340551,46.7718766 70.0134039,45.944821 Z M71.9817818,63.1637963 L85.5117232,68.8659103 L82.6516218,73.9785122 L70.4746252,65.8764246 C71.0549386,65.024011 71.5604672,64.1166605 71.9817818,63.1637963 Z M66.1472009,70.2729015 L74.7494552,82.4912196 L69.6146855,85.3113291 L63.4988151,71.805033 C64.4299233,71.3722561 65.3157367,70.8585293 66.1472009,70.2729015 Z M49.4295238,71.9848795 L43.7290119,85.5110193 L38.61641,82.6509179 L46.7043019,70.4952569 C47.5611984,71.0700244 48.4727499,71.5697074 49.4295238,71.9848795 Z M58.3285072,73.2748554 L59.8992674,87.8588823 L54.0410804,87.8360199 L55.215016,73.3660911 C55.5620005,73.3869832 55.911771,73.3975802 56.2640183,73.3975802 C56.9627105,73.3975802 57.6516585,73.3558874 58.3285072,73.2748554 Z M42.0723329,65.90416 L30.0921773,74.3387371 L27.2720678,69.2039673 L40.5571061,63.1882861 C40.9808286,64.1425429 41.4890688,65.0509968 42.0723329,65.90416 Z M39.1535466,57.736454 L24.2897324,59.0753825 L24.4148308,53.2184867 L39.1584801,54.6740416 C39.112215,55.1875531 39.0885803,55.7075849 39.0885803,56.2331334 C39.0885803,56.7396644 39.1105355,57.2410708 39.1535466,57.736454 Z M46.0584022,42.4260791 L37.1847202,30.7130777 L42.2179416,27.7154853 L48.7092269,40.8140206 C47.7747061,41.2721782 46.8879401,41.8126866 46.0584022,42.4260791 Z M40.4749221,49.4661091 L27.0648098,43.536804 L30.0137028,38.4748964 L41.9602914,46.7280597 C41.3862154,47.5891333 40.8879187,48.504988 40.4749221,49.4661091 Z M59.1197362,39.3048612 L61.4127008,24.5827971 L67.0653578,26.1210909 L62.0845416,40.0793845 C61.1324721,39.7367192 60.1413823,39.4757252 59.1197362,39.3048612 Z M66.9424516,42.788498 L76.4279677,31.0130924 L80.5541654,35.1716224 L69.139722,44.8729569 C68.470174,44.1156339 67.7347637,43.4178294 66.9424516,42.788498 Z M73.323702,58.2366126 L87.8811903,59.9860706 L86.5411084,65.6889698 L72.6840622,61.2830827 C72.9857749,60.3021479 73.2018917,59.2837562 73.323702,58.2366126 Z M72.0101176,49.3669152 L85.6826102,43.80194 L87.2753686,49.4394926 L72.9888326,52.3102501 C72.7504386,51.2912186 72.4212003,50.3071089 72.0101176,49.3669152 Z M69.5903931,67.062348 L80.8951841,76.1687669 L76.7366541,80.2949646 L67.3959336,69.3048142 C68.1936885,68.6256522 68.9284971,67.8748435 69.5903931,67.062348 Z M62.5073589,72.2283503 L67.8157796,85.9517043 L62.1512882,87.4458313 L59.5261019,73.0883966 C60.5555059,72.8906034 61.5522157,72.6009657 62.5073589,72.2283503 Z M45.693924,69.7631181 L36.9862174,81.3806551 L32.7174028,77.3686606 L43.4101249,67.6179321 C44.1043062,68.40011 44.8688801,69.1184774 45.693924,69.7631181 Z M54.0811965,73.2602726 L52.1077361,87.5689851 L46.4290932,86.129578 L51.0002742,72.576494 C51.9910294,72.8949324 53.0210393,73.1258925 54.0811965,73.2602726 Z M40.073502,61.9760772 L26.4586188,67.2425397 L24.9644918,61.5780483 L39.3035238,58.9562268 C39.4695322,59.9970061 39.7291576,61.006587 40.073502,61.9760772 Z M39.3322243,53.3358847 L24.5227563,51.029307 L26.0610501,45.37665 L40.1095637,50.3896598 C39.7668092,51.3358146 39.5049152,52.3206686 39.3322243,53.3358847 Z M49.761959,40.3412877 L43.899096,26.6273781 L49.5079925,24.9364734 L52.6869815,39.4414607 C51.6762967,39.6554295 50.698434,39.9582251 49.761959,40.3412877 Z M42.6844463,45.7223207 L30.9761574,36.6231786 L35.0620419,32.4250331 L44.7833483,43.4665259 C44.0184625,44.1539381 43.3156835,44.9090128 42.6844463,45.7223207 Z" id="Path-85" fill="#050505"></path>
                </g>
            </g>
            <g id="mouth" transform="translate(196.254302, 362.431400)" sketch:type="MSShapeGroup">
                <path d="M0,41.3880066 C0,41.3880066 19.3870541,53.2735306 40.3894332,53.2735306 C61.3918123,53.2735306 80.1163308,37.4038827 80.1163308,37.4038827 L80.1163308,29.8260255 L3.61033548,29.8260255 L0,41.3880066 Z" id="lip" fill="#DD2029"></path>
                <rect id="back" fill="#0A0605" x="4.52198853" y="10.8458274" width="71.0742971" height="24.6427424"></rect>
                <rect id="teeth" fill="#FFFFFF" x="4.52198853" y="0" width="71.0742971" height="24.6427424"></rect>
            </g>
            <path d="M279.981968,360.517003 L195.234198,361.281012 L192.691127,296.36433 C171.009573,319.159793 139.738951,313.719949 139.738951,313.719949 C139.738951,313.719949 187.594531,305.924668 191.139096,280.157265 C191.139098,273.77361 189.35025,272.478376 168.084434,272.478376 C146.818619,272.478376 131.621314,280.055795 107.623327,292.924574 C119.913363,277.950293 146.223914,265.729131 168.532435,265.729131 C183.60179,265.729131 201.992061,265.105389 202.429704,276.213353 L202.657751,275.911941 L205.750252,333.084298 L268.169904,333.084298 L269.806457,280.80465 C270.591314,265.15314 286.364476,265.729131 303.753273,265.729131 C326.061793,265.729131 352.372345,277.950293 364.66238,292.924574 C340.664394,280.055795 325.467089,272.478376 304.201273,272.478376 C282.935457,272.478376 281.146609,273.77361 281.146611,280.157265 C284.691176,305.924668 332.546756,313.719949 332.546756,313.719949 C332.546756,313.719949 301.646541,319.095357 279.981968,296.76758 L279.981968,360.517003 Z" id="Path-108" fill="#AA651A" sketch:type="MSShapeGroup"></path>
            <g id="mustache" transform="translate(0.000000, 330.797737)" fill="#4F1906" sketch:type="MSShapeGroup">
                <path d="M238.197329,24.5411338 C212.522497,7.06446672 189.592454,0.256695233 155.575983,0.256695233 C105.513529,0.663129352 28.6152288,30.7339063 0.100957808,104.753046 C25.6748326,116.197375 38.370277,126.026664 92.1681692,126.700489 C178.121123,126.700489 222.864362,76.7358312 238.197329,24.5411338 Z" id="Path-97"></path>
                <path d="M472.659219,24.5411338 C446.984387,7.06446672 424.054345,0.256695233 390.037873,0.256695233 C339.97542,0.663129352 264.692444,30.7339063 236.178173,104.753046 C261.752048,116.197375 272.832167,126.026664 326.630059,126.700489 C412.583014,126.700489 457.326252,76.7358312 472.659219,24.5411338 Z" id="Path-98" transform="translate(354.418696, 63.478592) scale(-1, 1) translate(-354.418696, -63.478592) "></path>
            </g>
        </g>
        <g id="SLICES" sketch:type="MSLayerGroup" transform="translate(0.000000, -2321.000000)"></g>
    </g>
</svg>