<?xml version="1.0" encoding="UTF-8" standalone="no"?>
<svg width="36px" height="49px" viewBox="0 0 36 49" version="1.1" xmlns="http://www.w3.org/2000/svg" xmlns:xlink="http://www.w3.org/1999/xlink" xmlns:sketch="http://www.bohemiancoding.com/sketch/ns">
    <!-- Generator: Sketch 3.2.2 (9983) - http://www.bohemiancoding.com/sketch -->
    <title>yeoman</title>
    <desc>Created with Sketch.</desc>
    <defs></defs>
    <g id="Page-1" stroke="none" stroke-width="1" fill="none" fill-rule="evenodd" sketch:type="MSPage">
        <g id="yeoman" sketch:type="MSLayerGroup" transform="translate(0.204115, 0.347050)">
            <g id="ear-+-ear" transform="translate(0.339526, 17.779798)" sketch:type="MSShapeGroup">
                <g id="ear" transform="translate(22.888651, 0.054667)">
                    <path d="M5.73067509,9.71387289 C8.89563954,9.71387289 11.4613502,7.53934837 11.4613502,4.85693644 C11.4613502,2.17452452 8.89563954,0 5.73067509,0 C2.56571063,0 0,2.17452452 0,4.85693644 C0,7.53934837 2.56571063,9.71387289 5.73067509,9.71387289 Z" id="Oval-8" fill="#E9A84D"></path>
                    <path d="M9.15401185,6.60440564 C10.1738847,6.60440564 11.0006549,5.81628432 11.0006549,4.84408741 C11.0006549,3.87189049 10.1738847,3.08376917 9.15401185,3.08376917 C8.13413903,3.08376917 7.30736876,3.87189049 7.30736876,4.84408741 C7.30736876,5.81628432 8.13413903,6.60440564 9.15401185,6.60440564 Z" id="Oval-7" fill="#DF8829"></path>
                    <path d="M9.27839138,3.08196066 C9.27839138,3.08196066 8.42239129,3.53413538 8.42239128,4.83765819 C8.42239127,6.14118099 9.33816579,6.60259713 9.33816579,6.60259713 C9.33816579,6.60259713 7.30736876,6.60259713 7.30736876,4.8568608 C7.30736876,3.11112447 9.27839138,3.08196066 9.27839138,3.08196066 L9.27839138,3.08196066 Z" id="Path-102" fill="#BD5D12"></path>
                </g>
                <g id="ear" transform="translate(5.786263, 4.940719) scale(-1, 1) translate(-5.786263, -4.940719) translate(0.048267, 0.054667)">
                    <path d="M5.73067509,9.71387289 C8.89563954,9.71387289 11.4613502,7.53934837 11.4613502,4.85693644 C11.4613502,2.17452452 8.89563954,0 5.73067509,0 C2.56571063,0 0,2.17452452 0,4.85693644 C0,7.53934837 2.56571063,9.71387289 5.73067509,9.71387289 Z" id="Oval-8" fill="#E9A84D"></path>
                    <ellipse id="Oval-7" fill="#DF8829" cx="8.98424866" cy="4.84408741" rx="1.81269045" ry="1.76031823"></ellipse>
                    <path d="M8.93134023,3.08196066 C8.93134023,3.08196066 8.17366441,3.53413538 8.1736644,4.83765819 C8.1736644,6.14118099 8.98424866,6.60259713 8.98424866,6.60259713 C8.98424866,6.60259713 7.18671872,6.60259713 7.18671872,4.8568608 C7.18671872,3.11112447 8.93134023,3.08196066 8.93134023,3.08196066 L8.93134023,3.08196066 Z" id="Path-102" fill="#BD5D12"></path>
                </g>
            </g>
            <g id="faceCollar" transform="translate(5.228706, 19.544205)" sketch:type="MSShapeGroup">
                <path d="M1.39740266,24.840827 C1.39740266,24.840827 5.18279402,28.3265078 12.5489098,28.3265078 C19.9150255,28.3265078 23.3687806,25.0440922 23.3687806,25.0440922 L24.9964348,2.16984263e-15 L0,0 L1.39740266,24.840827 Z" id="Path-105" fill="#F4CF8C"></path>
                <path d="M24.9214572,1.15365099 L24.9964348,2.16984263e-15 L0,0 L0.0648977972,1.15365099 L24.9214572,1.15365099 Z" id="Path-109" fill="#C58236"></path>
                <path d="M1.15438972,20.6978559 L1.40303861,24.9816011 C1.40303861,24.9816011 5.18842998,28.3597612 12.5545457,28.3597612 C19.9206615,28.3597612 23.3744166,25.1785963 23.3744166,25.1785963 L23.6635355,20.8672565 C22.7806569,21.5594577 19.1797388,24.0170171 12.5563873,24.0170171 C6.0079351,24.0170171 2.1635064,21.4659623 1.15438972,20.6978559 Z" id="Path-107" fill="#DD2029"></path>
                <path d="M12.5596409,24.1588089 C12.2277678,25.4487087 12.1550447,25.2215062 12.1550447,26.4775396 C12.1550447,27.733573 12.5596409,28.3913624 12.5596409,28.3913624 C12.5596409,28.3913624 12.9540512,27.6851925 12.9540513,26.4775396 C12.9540513,25.2698868 12.8992128,25.4126094 12.5596409,24.1588089 Z" id="Path-108" fill="#050505"></path>
                <ellipse id="Oval-11" fill="#FFFFFF" cx="14.5944823" cy="26.5093727" rx="0.62158116" ry="0.526810567"></ellipse>
                <path d="M10.0499811,12.3143094 C10.0499811,12.3143094 11.3613657,12.7628212 12.4801644,12.7628212 C13.5989631,12.7628212 14.9231395,12.2829899 14.9231395,12.2829899 C14.9231395,12.2829899 14.2863978,13.3896133 12.6142402,13.3896133 C10.9420827,13.3896133 10.0499811,12.3143094 10.0499811,12.3143094 Z" id="Path-103" fill="#C07216"></path>
                <path d="M8.62397024,17.8298278 C8.62397024,17.8298278 10.7187944,18.5462867 12.5059791,18.5462867 C14.2931637,18.5462867 16.4084215,17.7797976 16.4084215,17.7797976 C16.4084215,17.7797976 15.3912814,19.5475333 12.7201536,19.5475333 C10.0490258,19.5475333 8.62397024,17.8298278 8.62397024,17.8298278 Z" id="Path-101" fill="#C07216"></path>
            </g>
            <g id="hat" sketch:type="MSShapeGroup">
                <path d="M5.01055057,16.9944138 L3.27260528,5.71898118 C3.27260528,5.71898118 7.28774546,0.0517522904 17.5890413,0.000356135474 C27.8903371,-0.0510400194 31.996444,5.71898118 31.996444,5.71898118 L30.4892192,16.9944138 L5.01055057,16.9944138 Z" id="Path-83" fill="#050505"></path>
                <path d="M0.022030125,16.8402254 L0.738364511,19.5590819 L34.2776578,19.5590819 L35.450735,16.9959533 L0.022030125,16.8402254 Z" id="Path-82" fill="#050505"></path>
                <path d="M4.89309521,16.9430177 L4.33076815,12.1208138 L31.1678568,12.1208138 L30.495614,16.9430177 L4.89309521,16.9430177 Z" id="Path-84" fill="#DD2029"></path>
                <g id="Oval-3-+-Oval-2" transform="translate(13.462538, 8.768662)">
                    <ellipse id="Oval-6" fill="#050505" cx="4.2101272" cy="4.20743301" rx="4.2101272" ry="4.20743301"></ellipse>
                    <ellipse id="Oval-5" fill="#DD2029" cx="4.22527154" cy="4.22256766" rx="3.77094127" ry="3.76852813"></ellipse>
                    <ellipse id="Oval-4" fill="#050505" cx="4.22527154" cy="4.22256766" rx="3.22574494" ry="3.22368069"></ellipse>
                    <ellipse id="Oval-3" fill="#DD2029" cx="4.22527154" cy="4.22256766" rx="2.77141467" ry="2.76964115"></ellipse>
                    <ellipse id="Oval-2" fill="#050505" cx="4.2101272" cy="4.20743301" rx="0.848083177" ry="0.847540462"></ellipse>
                    <path d="M4.12961951,2.93684558 L4.03073571,1.83910922 L4.47049151,1.84850203 L4.36266306,2.94072108 C4.31726935,2.93588905 4.27117188,2.9334108 4.22449521,2.9334108 C4.19258603,2.9334108 4.16094753,2.93456898 4.12961951,2.93684558 Z M4.76957213,3.05385271 L5.24150916,2.03494988 L5.61765244,2.2629622 L4.9680336,3.16906295 C4.9057317,3.1250514 4.83935194,3.0864222 4.76957213,3.05385271 Z M5.50579879,4.07526404 L6.60243044,3.93775197 L6.6083906,4.37756768 L5.51128436,4.30780904 C5.51314232,4.27950451 5.51408592,4.25095051 5.51408592,4.22217626 C5.51408592,4.17249892 5.51127339,4.12347807 5.50579879,4.07526404 Z M5.25684617,3.44969453 L6.1481498,2.79861708 L6.36658957,3.18039903 L5.37949387,3.64830008 C5.34456832,3.57823336 5.30344679,3.5117927 5.25684617,3.44969453 Z M5.40463873,4.74255417 L6.42051307,5.17068842 L6.20576686,5.55456009 L5.29147625,4.94622759 C5.33504817,4.88222546 5.37300499,4.81409848 5.40463873,4.74255417 Z M4.96655841,5.27633014 L5.61244513,6.19372331 L5.22690903,6.40546679 L4.76770853,5.39136782 C4.83761932,5.35887345 4.90412923,5.32030108 4.96655841,5.27633014 Z M3.71133795,5.40487131 L3.283324,6.42046022 L2.89945233,6.20571401 L3.50671895,5.29302535 C3.57105768,5.33618086 3.63950009,5.37369877 3.71133795,5.40487131 Z M4.37950411,5.50172712 L4.49744216,6.59674582 L4.05758942,6.59502923 L4.14573252,5.50857741 C4.17178569,5.51014607 4.19804747,5.51094172 4.22449521,5.51094172 C4.27695541,5.51094172 4.32868399,5.50781128 4.37950411,5.50172712 Z M3.15893486,4.94831006 L2.25942374,5.581607 L2.04768026,5.1960709 L3.04516644,4.74439295 C3.07698097,4.81604182 3.11514139,4.88425165 3.15893486,4.94831006 Z M2.93978238,4.33505073 L1.8237563,4.43558206 L1.83314912,3.99582626 L2.94015281,4.10511431 C2.93667907,4.14367052 2.9349045,4.18271628 2.9349045,4.22217626 C2.9349045,4.26020835 2.93655296,4.29785566 2.93978238,4.33505073 Z M3.4582226,3.18549534 L2.79195615,2.30604307 L3.16986766,2.08097356 L3.65725559,3.06445646 C3.58708857,3.0988565 3.52050715,3.13943973 3.4582226,3.18549534 Z M3.03899579,3.7140849 L2.03211862,3.26889236 L2.25353161,2.888827 L3.1505224,3.50850277 C3.1074188,3.57315513 3.07000498,3.64192063 3.03899579,3.7140849 Z M4.43891229,2.95114361 L4.61107593,1.84576061 L5.03549677,1.96126097 L4.66152004,3.00929747 C4.5900354,2.98356898 4.51562098,2.96397266 4.43891229,2.95114361 Z M5.02626856,3.21270699 L5.7384736,2.32856921 L6.04828265,2.64080588 L5.19124714,3.3692153 C5.14097518,3.3123529 5.08575806,3.25995935 5.02626856,3.21270699 Z M5.50539469,4.37260434 L6.59842077,4.50395964 L6.49780284,4.93215284 L5.45736834,4.60134375 C5.48002197,4.52769181 5.49624876,4.45122747 5.50539469,4.37260434 Z M5.40676628,3.70663708 L6.43334385,3.28879969 L6.55293361,3.71208644 L5.48025155,3.92763275 C5.46235211,3.85112037 5.43763177,3.77723005 5.40676628,3.70663708 Z M5.22508507,5.03527079 L6.0738875,5.71901191 L5.76165083,6.02882096 L5.06031754,5.20364283 C5.1202157,5.15264902 5.17538765,5.09627573 5.22508507,5.03527079 Z M4.6932666,5.42315194 L5.09184102,6.45354836 L4.6665316,6.56573253 L4.46942362,5.48772716 C4.54671479,5.47287616 4.62155118,5.45112917 4.6932666,5.42315194 Z M3.43085632,5.23805386 L2.77705189,6.11033832 L2.45653467,5.80910404 L3.25938086,5.07698594 C3.31150237,5.13571454 3.3689092,5.18965202 3.43085632,5.23805386 Z M4.06060147,5.50063219 L3.91242731,6.57497934 L3.48605534,6.46690373 L3.82927527,5.44929175 C3.90366456,5.4732012 3.98100124,5.49054248 4.06060147,5.50063219 Z M3.00885579,4.65337615 L1.98660372,5.04880019 L1.87441955,4.62349078 L2.95104319,4.42663544 C2.96350767,4.50478072 2.98300123,4.58058351 3.00885579,4.65337615 Z M2.95319812,4.00464091 L1.84125254,3.83145515 L1.95675291,3.40703431 L3.01156342,3.78342825 C2.98582824,3.85446879 2.96616435,3.928415 2.95319812,4.00464091 Z M3.73629832,3.02896205 L3.29609449,1.99927475 L3.71722965,1.87231583 L3.95591903,2.96139996 C3.88003335,2.97746547 3.80661208,3.00020041 3.73629832,3.02896205 Z M3.20489443,3.43298844 L2.32579599,2.74979369 L2.6325782,2.43458255 L3.36248718,3.26361564 C3.30505694,3.31522891 3.25228988,3.3719225 3.20489443,3.43298844 Z" id="Path-85" fill="#050505"></path>
                </g>
            </g>
            <g id="mouth" transform="translate(14.735445, 27.212591)" sketch:type="MSShapeGroup">
                <path d="M0,3.10755329 C0,3.10755329 1.45564643,3.99995915 3.03257699,3.99995915 C4.60950754,3.99995915 6.01540853,2.80841162 6.01540853,2.80841162 L6.01540853,2.23944015 L0.271076353,2.23944015 L0,3.10755329 Z" id="lip" fill="#DD2029"></path>
                <rect id="back" fill="#0A0605" x="0.339526387" y="0.814341873" width="5.33650167" height="1.8502615"></rect>
                <rect id="teeth" fill="#FFFFFF" x="0.339526387" y="0" width="5.33650167" height="1.8502615"></rect>
            </g>
            <path d="M21.0220051,27.0688514 L14.6588523,27.1262158 L14.4679098,22.252049 C12.8399845,23.9636104 10.4920791,23.5551683 10.4920791,23.5551683 C10.4920791,23.5551683 14.0852399,22.9698719 14.351378,21.035167 C14.3513781,20.5558604 14.2170653,20.4586097 12.6203551,20.4586097 C11.0236448,20.4586097 9.88257904,21.0275483 8.08072802,21.9937804 C9.00350599,20.86946 10.9789923,19.9518533 12.6539925,19.9518533 C13.7854513,19.9518533 15.1662558,19.9050206 15.1991155,20.7390446 L15.2162381,20.7164135 L15.4484337,25.00911 L20.1351149,25.00911 L20.2579929,21.0837749 C20.3169227,19.9086059 21.5012257,19.9518533 22.8068361,19.9518533 C24.4818363,19.9518533 26.4573226,20.86946 27.3801005,21.9937804 C25.5782495,21.0275483 24.4371838,20.4586097 22.8404735,20.4586097 C21.2437632,20.4586097 21.1094504,20.5558604 21.1094505,21.035167 C21.3755886,22.9698719 24.9687495,23.5551683 24.9687495,23.5551683 C24.9687495,23.5551683 22.6486555,23.9587723 21.0220051,22.2823264 L21.0220051,27.0688514 Z" id="Path-108" fill="#AA651A" sketch:type="MSShapeGroup"></path>
            <g id="mustache" transform="translate(0.000000, 24.837427)" fill="#4F1906" sketch:type="MSShapeGroup">
                <path d="M17.8846713,1.84263239 C15.956917,0.530424359 14.2352509,0.0192735573 11.6811777,0.0192735573 C7.9223172,0.0497900231 2.14852939,2.30760696 0.00758025805,7.86521751 C1.92775438,8.72449695 2.88097183,9.46251358 6.92030183,9.51310667 C13.373944,9.51310667 16.7334196,5.76158904 17.8846713,1.84263239 Z" id="Path-97"></path>
                <path d="M35.4888731,1.84263239 C33.5611188,0.530424359 31.8394526,0.0192735573 29.2853794,0.0192735573 C25.526519,0.0497900231 19.8740153,2.30760696 17.7330662,7.86521751 C19.6532403,8.72449695 20.4851736,9.46251358 24.5245036,9.51310667 C30.9781458,9.51310667 34.3376214,5.76158904 35.4888731,1.84263239 Z" id="Path-98" transform="translate(26.610970, 4.766190) scale(-1, 1) translate(-26.610970, -4.766190) "></path>
            </g>
        </g>
    </g>
</svg>