<svg width="88" height="61" viewBox="0 0 88 61" xmlns="http://www.w3.org/2000/svg"><title>yeoman</title><defs><filter x="-50%" y="-50%" width="200%" height="200%" filterUnits="objectBoundingBox" id="a"><feGaussianBlur stdDeviation="5.09" in="SourceGraphic" result="blur"/></filter></defs><g fill="none" fill-rule="evenodd"><path d="M38.743 22.825c21.397 0 38.743-5.11 38.743-11.412C77.486 5.11 60.14 0 38.743 0 17.346 0 0 5.11 0 11.413s17.346 11.412 38.743 11.412z" transform="translate(5.256 30.753)" fill-opacity=".1" filter="url(#a)" fill="#000"/><g id="ear"><path d="M54.535 30.695c2.987 0 5.41-2.052 5.41-4.584 0-2.53-2.423-4.583-5.41-4.583s-5.41 2.052-5.41 4.584c0 2.533 2.423 4.585 5.41 4.585z" id="Oval-8" fill="#E9A84D"/><path d="M57.766 27.76c.963 0 1.743-.743 1.743-1.66 0-.918-.78-1.662-1.744-1.662-.963 0-1.743.744-1.743 1.66 0 .92.78 1.663 1.743 1.663z" id="Oval-7" fill="#DF8829"/><path d="M57.883 24.436s-.807.427-.807 1.657.864 1.666.864 1.666-1.917 0-1.917-1.65c0-1.647 1.86-1.674 1.86-1.674z" id="Path-102" fill="#BD5D12"/></g><g transform="matrix(-1 0 0 1 38.397 21.528)"><path d="M5.41 9.168c2.986 0 5.408-2.052 5.408-4.584C10.818 2.052 8.396 0 5.408 0 2.423 0 0 2.052 0 4.584c0 2.532 2.422 4.584 5.41 4.584z" fill="#E9A84D"/><ellipse fill="#DF8829" cx="8.48" cy="4.572" rx="1.711" ry="1.661"/><path d="M8.43 2.91s-.715.426-.715 1.656.765 1.666.765 1.666-1.697 0-1.697-1.648S8.43 2.91 8.43 2.91z" fill="#BD5D12"/></g><g transform="translate(32.136 23.141)"><path d="M1.32 23.446s3.572 3.29 10.524 3.29c6.953 0 10.213-3.098 10.213-3.098L23.593 0H0l1.32 23.446z" fill="#F4CF8C"/><path d="M23.522 1.09l.07-1.09H0l.06 1.09h23.462z" fill="#C58236"/><path d="M1.09 19.536l.234 4.043s3.573 3.187 10.526 3.187c6.952 0 10.212-3.002 10.212-3.002l.273-4.07c-.833.654-4.232 2.974-10.484 2.974-6.18 0-9.808-2.41-10.76-3.134z" fill="#DD2029"/><path d="M11.854 22.802c-.313 1.218-.38 1.003-.38 2.19 0 1.184.38 1.805.38 1.805s.373-.666.373-1.806c0-1.14-.052-1.004-.373-2.188z" id="Path-108" fill="#050505"/><ellipse fill="#FFF" cx="13.775" cy="25.021" rx=".587" ry=".497"/><path d="M9.486 11.623s1.237.423 2.293.423c1.055 0 2.305-.453 2.305-.453s-.6 1.045-2.18 1.045c-1.577 0-2.42-1.015-2.42-1.015zM8.14 16.83s1.977.675 3.664.675 3.683-.723 3.683-.723-.96 1.668-3.48 1.668c-2.522 0-3.867-1.62-3.867-1.62z" fill="#C07216"/></g><path d="M31.93 20.734l-1.64-10.642s3.79-5.35 13.513-5.398c9.723-.048 13.598 5.398 13.598 5.398L55.98 20.734H31.93z" fill="#050505"/><path d="M27.222 20.59l.676 2.565h31.656l1.107-2.42-33.438-.146z" fill="#050505"/><path d="M31.82 20.686l-.53-4.552h25.33l-.635 4.552H31.82z" fill="#DD2029"/><g transform="translate(39.908 12.97)"><ellipse fill="#050505" cx="3.974" cy="3.971" rx="3.974" ry="3.971"/><ellipse fill="#DD2029" cx="3.988" cy="3.985" rx="3.559" ry="3.557"/><ellipse fill="#050505" cx="3.988" cy="3.985" rx="3.045" ry="3.043"/><ellipse fill="#DD2029" cx="3.988" cy="3.985" rx="2.616" ry="2.614"/><ellipse fill="#050505" cx="3.974" cy="3.971" rx=".8" ry=".8"/><path d="M3.898 2.772l-.094-1.036.415.01-.102 1.03c-.043-.005-.087-.007-.13-.007-.03 0-.06 0-.09.002zm.604.11l.445-.96.355.214-.613.855c-.06-.04-.122-.077-.188-.108zm.695.964l1.035-.13.005.416-1.035-.066c.002-.027.002-.054.002-.08 0-.048-.002-.094-.007-.14zm-.235-.59l.84-.615.207.362-.933.44c-.033-.065-.07-.127-.115-.186zm.14 1.22l.958.404-.203.363-.863-.574c.042-.062.077-.126.107-.194zm-.414.504l.61.866-.365.2L4.5 5.09c.066-.032.13-.068.188-.11zm-1.185.12l-.404.96-.363-.203.573-.86c.06.04.125.075.193.104zm.63.093l.112 1.033H3.83l.083-1.027.074.002c.05 0 .1-.003.147-.01zm-1.15-.523l-.85.598-.2-.364.94-.426c.03.068.067.132.11.192zm-.208-.578l-1.054.095.01-.416 1.045.105c-.003.036-.005.073-.005.11 0 .036.002.072.005.107zm.49-1.085l-.63-.83.357-.213.46.928c-.066.033-.13.07-.188.115zm-.397.5l-.95-.422.21-.358.846.585c-.04.06-.076.125-.106.194zm1.322-.722l.162-1.043.4.11-.352.988c-.068-.024-.138-.042-.21-.055zm.554.247l.672-.834.293.295-.81.687c-.048-.054-.1-.103-.156-.148zm.452 1.095l1.032.124-.095.405-.982-.312c.022-.07.038-.142.046-.216zM5.103 3.5l.97-.396.112.4-1.012.203c-.017-.072-.04-.142-.07-.208zm-.17 1.253l.8.645-.295.292-.662-.78c.057-.047.11-.1.156-.157zm-.503.366l.376.97-.4.107-.188-1.017c.073-.014.144-.035.212-.06zm-1.192-.176l-.617.823-.3-.284.756-.69c.05.054.104.105.162.15zm.595.248l-.14 1.014-.403-.102.324-.96c.07.022.143.038.22.048zm-.993-.8l-.965.373-.106-.4 1.015-.187c.012.074.03.145.055.214zm-.053-.612l-1.05-.164.11-.4.995.355c-.024.068-.042.138-.055.21zm.74-.92l-.416-.973.4-.12.224 1.028c-.072.015-.14.037-.207.064zm-.502.38l-.83-.645.29-.297.69.782c-.056.05-.105.103-.15.16z" fill="#050505"/></g><g><path d="M41.11 33.312s1.373.842 2.86.842c1.49 0 2.817-1.124 2.817-1.124v-.537h-5.422l-.256.82z" fill="#DD2029"/><path fill="#0A0605" d="M41.43 31.148h5.036v1.746H41.43z"/><path fill="#FFF" d="M41.43 30.38h5.036v1.745H41.43z"/></g><path d="M47.043 30.243l-6.006.054-.18-4.6c-1.537 1.615-3.753 1.23-3.753 1.23s3.392-.553 3.643-2.38c0-.45-.127-.543-1.634-.543s-2.584.537-4.285 1.45c.87-1.062 2.736-1.928 4.317-1.928 1.068 0 2.37-.045 2.402.743l.016-.023.22 4.052h4.423l.116-3.706c.055-1.11 1.173-1.068 2.405-1.068 1.58 0 3.446.866 4.317 1.927-1.7-.912-2.778-1.45-4.285-1.45-1.508 0-1.635.093-1.635.545.252 1.826 3.643 2.38 3.643 2.38s-2.19.38-3.725-1.203v4.518z" fill="#AA651A"/><g fill="#4F1906"><path d="M44.082 29.876c-1.82-1.238-3.445-1.72-5.856-1.72-3.547.028-8.997 2.16-11.018 7.405 1.813.812 2.712 1.508 6.525 1.556 6.09 0 9.262-3.54 10.35-7.24z"/><path d="M43.94 29.876c1.818-1.238 3.443-1.72 5.854-1.72 3.548.028 8.883 2.16 10.904 7.405-1.813.812-2.598 1.508-6.41 1.556-6.092 0-9.263-3.54-10.35-7.24z"/></g></g></svg>